SplineFontDB: 3.2
FontName: FiraSans-Light
FullName: Fira Sans Light
FamilyName: Fira Sans Light
Weight: Light
Copyright: Digitized data copyright 2012-2016, The Mozilla Foundation and Telefonica S.A.
Version: 4.203
ItalicAngle: 0
UnderlinePosition: -100
UnderlineWidth: 50
Ascent: 800
Descent: 200
InvalidEm: 0
sfntRevision: 0x000433f7
LayerCount: 2
Layer: 0 1 "Back" 1
Layer: 1 1 "Fore" 0
XUID: [1021 11 743341563 21586]
StyleMap: 0x0040
FSType: 0
OS2Version: 4
OS2_WeightWidthSlopeOnly: 0
OS2_UseTypoMetrics: 1
CreationTime: 1476947922
ModificationTime: 1592138205
PfmFamily: 17
TTFWeight: 300
TTFWidth: 5
LineGap: 0
VLineGap: 0
Panose: 2 11 4 3 5 0 0 2 0 4
OS2TypoAscent: 935
OS2TypoAOffset: 0
OS2TypoDescent: -265
OS2TypoDOffset: 0
OS2TypoLinegap: 0
OS2WinAscent: 935
OS2WinAOffset: 0
OS2WinDescent: 265
OS2WinDOffset: 0
HheadAscent: 935
HheadAOffset: 0
HheadDescent: -265
HheadDOffset: 0
OS2SubXSize: 650
OS2SubYSize: 600
OS2SubXOff: 0
OS2SubYOff: 75
OS2SupXSize: 650
OS2SupYSize: 600
OS2SupXOff: 0
OS2SupYOff: 350
OS2StrikeYSize: 50
OS2StrikeYPos: 313
OS2CapHeight: 685
OS2XHeight: 523
OS2Vendor: 'CTDB'
OS2CodePages: 2000019f.00000000
OS2UnicodeRanges: 00000027.00000001.00000000.00000000
Lookup: 1 0 0 "'locl' Localized Forms in Latin lookup 0" { "'locl' Localized Forms in Latin lookup 0 subtable"  } ['locl' ('latn' <'TAT ' > ) ]
Lookup: 1 0 0 "'locl' Localized Forms in Latin lookup 1" { "'locl' Localized Forms in Latin lookup 1 subtable"  } ['locl' ('latn' <'TRK ' > ) ]
Lookup: 1 0 0 "'locl' Localized Forms in Latin lookup 2" { "'locl' Localized Forms in Latin lookup 2 subtable"  } ['locl' ('latn' <'KAZ ' > ) ]
Lookup: 1 0 0 "'locl' Localized Forms in Latin lookup 3" { "'locl' Localized Forms in Latin lookup 3 subtable"  } ['locl' ('latn' <'PLK ' > ) ]
Lookup: 1 0 0 "'locl' Localized Forms in Latin lookup 4" { "'locl' Localized Forms in Latin lookup 4 subtable"  } ['locl' ('latn' <'AZE ' > ) ]

StartChar: .notdef
Encoding: 65536 -1 0
Width: 666
Flags: W
LayerCount: 2
Fore
SplineSet
550.5 1057.5 m 1
 550.5 -357.5 l 1
 115.5 -357.5 l 1
 115.5 1057.5 l 1
 550.5 1057.5 l 1
481.5 -290.5 m 1
 481.5 990.5 l 1
 185.5 990.5 l 1
 185.5 -290.5 l 1
 481.5 -290.5 l 1
324 458.5 m 0
 387.612067389 458.5 387.612067389 458.5 415.056033694 424.060512871 c 0
 442.5 389.621025743 442.5 389.621025743 442.5 335.027209737 c 0
 442.5 280.433393732 442.5 280.433393732 419.036947648 250.192126256 c 0
 395.573895296 219.95085878 395.573895296 219.95085878 347.5 211.584050705 c 1
 347.5 173 l 2
 347.5 158.577039083 347.5 158.577039083 337.647862068 150.038519541 c 0
 327.795724135 141.5 327.795724135 141.5 315 141.5 c 0
 302.204275865 141.5 302.204275865 141.5 292.352137932 150.038519541 c 0
 282.5 158.577039083 282.5 158.577039083 282.5 173 c 2
 282.5 264.087665916 l 1
 289.570262758 264.487869469 l 2
 340.019794371 267.343503334 340.019794371 267.343503334 356.759897185 281.880961041 c 0
 373.5 296.418418748 373.5 296.418418748 373.5 334 c 0
 373.5 364.576196679 373.5 364.576196679 362.333071023 380.038098339 c 0
 351.166142046 395.5 351.166142046 395.5 321.934596703 395.5 c 0
 292.703051361 395.5 292.703051361 395.5 271.229071015 385.229835487 c 0
 262.467384655 381.5 262.467384655 381.5 255 381.5 c 0
 240.895478125 381.5 240.895478125 381.5 232.197739063 390.197739062 c 0
 223.5 398.895478125 223.5 398.895478125 223.5 412 c 0
 223.5 436.378338012 223.5 436.378338012 258.093746576 448.105031767 c 0
 288.758902864 458.5 288.758902864 458.5 324 458.5 c 0
345.302260937 115.302260938 m 0
 357.5 103.104521875 357.5 103.104521875 357.5 84.5533148026 c 0
 357.5 66.0021077302 357.5 66.0021077302 345.430945291 53.3296002855 c 0
 333.212278352 40.5 333.212278352 40.5 315 40.5 c 0
 296.787721648 40.5 296.787721648 40.5 284.569054709 53.3296002855 c 0
 272.5 66.0021077302 272.5 66.0021077302 272.5 84.5533148026 c 0
 272.5 103.104521875 272.5 103.104521875 284.697739063 115.302260938 c 0
 296.895478125 127.5 296.895478125 127.5 315 127.5 c 0
 333.104521875 127.5 333.104521875 127.5 345.302260937 115.302260938 c 0
EndSplineSet
EndChar

StartChar: A
Encoding: 65 65 3
Width: 595
GlyphClass: 2
Flags: W
LayerCount: 2
Fore
SplineSet
155.155351003 179.5 m 1,0,-1
 92.888671875 -0 l 1,1,-1
 16 -0 l 1,2,-1
 255.950551297 685 l 1,3,-1
 345.00386122 685 l 1,4,-1
 583.819335938 0 l 1,5,-1
 504.9453125 0 l 1,6,-1
 442.678633372 179.5 l 1,7,-1
 155.155351003 179.5 l 1,0,-1
421.097107785 245.5 m 1,8,-1
 299.925379976 611.411132812 l 1,9,-1
 177.799990952 245.5 l 1,10,-1
 421.097107785 245.5 l 1,8,-1
EndSplineSet
Substitution2: "Single Substitution lookup 19 subtable" ordfeminine
EndChar

StartChar: Aacute
Encoding: 193 193 4
Width: 680
GlyphClass: 2
Flags: W
LayerCount: 2
Fore
SplineSet
411.927734375 891.440429688 m 1
 444.975585938 825.045898438 l 1
 232.80859375 741.465820312 l 1
 210.72265625 788.697265625 l 1
 411.927734375 891.440429688 l 1
EndSplineSet
Refer: 3 65 N 1 0 0 1 0 0 0
EndChar

StartChar: Acircumflex
Encoding: 194 194 5
Width: 680
GlyphClass: 2
Flags: W
LayerCount: 2
Fore
SplineSet
310.545898438 894 m 1
 349.151367188 894 l 1
 486.350585938 787.133789062 l 1
 450.901367188 745.857421875 l 1
 328.529296875 826.749023438 l 1
 205.174804688 745.860351562 l 1
 169.72265625 787.138671875 l 1
 307.95703125 894 l 1
 310.545898438 894 l 1
EndSplineSet
Refer: 3 65 N 1 0 0 1 0 0 0
EndChar

StartChar: Adieresis
Encoding: 196 196 6
Width: 680
GlyphClass: 2
Flags: W
LayerCount: 2
Fore
SplineSet
264.025390625 854.302734375 m 0
 277.72265625 840.604492188 277.72265625 840.604492188 277.72265625 820.5 c 0
 277.72265625 800.296875 277.72265625 800.296875 263.905273438 787.080078125 c 0
 250.229492188 774 250.229492188 774 230.22265625 774 c 0
 210.215820312 774 210.215820312 774 196.540039062 787.080078125 c 0
 182.72265625 800.296875 182.72265625 800.296875 182.72265625 820.5 c 0
 182.72265625 840.604492188 182.72265625 840.604492188 196.419921875 854.302734375 c 0
 210.118164062 868 210.118164062 868 230.22265625 868 c 0
 250.327148438 868 250.327148438 868 264.025390625 854.302734375 c 0
453.025390625 854.302734375 m 0
 466.72265625 840.604492188 466.72265625 840.604492188 466.72265625 820.5 c 0
 466.72265625 800.296875 466.72265625 800.296875 452.905273438 787.080078125 c 0
 439.229492188 774 439.229492188 774 419.22265625 774 c 0
 399.215820312 774 399.215820312 774 385.540039062 787.080078125 c 0
 371.72265625 800.296875 371.72265625 800.296875 371.72265625 820.5 c 0
 371.72265625 840.604492188 371.72265625 840.604492188 385.419921875 854.302734375 c 0
 399.118164062 868 399.118164062 868 419.22265625 868 c 0
 439.327148438 868 439.327148438 868 453.025390625 854.302734375 c 0
EndSplineSet
Refer: 3 65 N 1 0 0 1 0 0 0
EndChar

StartChar: Agrave
Encoding: 192 192 7
Width: 680
GlyphClass: 2
Flags: W
LayerCount: 2
Fore
SplineSet
238.770507812 891.440429688 m 1
 439.975585938 788.697265625 l 1
 417.889648438 741.465820312 l 1
 205.72265625 825.045898438 l 1
 238.770507812 891.440429688 l 1
EndSplineSet
Refer: 3 65 N 1 0 0 1 0 0 0
EndChar

StartChar: Aring
Encoding: 197 197 8
Width: 680
GlyphClass: 2
Flags: W
LayerCount: 2
Fore
SplineSet
400.924804688 918.400390625 m 0
 430.72265625 889.686523438 430.72265625 889.686523438 430.72265625 845.5 c 0
 430.72265625 801.313476562 430.72265625 801.313476562 400.924804688 772.599609375 c 0
 371.24609375 744 371.24609375 744 324.72265625 744 c 0
 278.19921875 744 278.19921875 744 248.520507812 772.599609375 c 0
 218.72265625 801.313476562 218.72265625 801.313476562 218.72265625 845.5 c 0
 218.72265625 889.686523438 218.72265625 889.686523438 248.520507812 918.400390625 c 0
 278.19921875 947 278.19921875 947 324.72265625 947 c 0
 371.24609375 947 371.24609375 947 400.924804688 918.400390625 c 0
324.72265625 795 m 0
 348.04296875 795 348.04296875 795 360.331054688 807.7109375 c 0
 372.72265625 820.530273438 372.72265625 820.530273438 372.72265625 845.03515625 c 0
 372.72265625 869.541015625 372.72265625 869.541015625 360.346679688 882.770507812 c 0
 347.970703125 896 347.970703125 896 324.72265625 896 c 0
 301.474609375 896 301.474609375 896 289.098632812 882.770507812 c 0
 276.72265625 869.541015625 276.72265625 869.541015625 276.72265625 845.03515625 c 0
 276.72265625 820.530273438 276.72265625 820.530273438 289.114257812 807.7109375 c 0
 301.40234375 795 301.40234375 795 324.72265625 795 c 0
EndSplineSet
Refer: 3 65 N 1 0 0 1 0 0 0
EndChar

StartChar: Atilde
Encoding: 195 195 9
Width: 695
GlyphClass: 2
Flags: W
LayerCount: 2
Fore
SplineSet
286.899641523 818.454101562 m 0
 277.326171875 823 277.326171875 823 269.022460938 823 c 0
 254.546875 823 254.546875 823 243.555664062 814.646484375 c 0
 232.564453125 806.29296875 232.564453125 806.29296875 219.267578125 786.34765625 c 2
 215.588867188 780.830078125 l 1
 166.72265625 805.263671875 l 1
 170.4296875 812.077148438 l 2
 209.564453125 884 209.564453125 884 269.022460938 884 c 0
 287.661950641 884 287.661950641 884 306.020991618 877.586914062 c 0
 324.378875829 871.173828125 324.378875829 871.173828125 346.337774126 858.828125 c 0
 367.094792039 848.125 367.094792039 848.125 378.984038033 843.5625 c 0
 389.649414062 839 389.649414062 839 402.021484375 839 c 0
 414.393554688 839 414.393554688 839 425.39453125 847.801757812 c 0
 436.396484375 856.602539062 436.396484375 856.602539062 454.39453125 884.200195312 c 1
 503.010742188 859.891601562 l 1
 499.771484375 853.228515625 l 2
 462.716796875 777 462.716796875 777 401.022460938 777 c 0
 381.179580832 777 381.179580832 777 362.317346431 783.900390625 c 0
 340.882463355 791.741210938 340.882463355 791.741210938 319.544748663 802.825195312 c 0
 298.208190738 813.908203125 298.208190738 813.908203125 286.899641523 818.454101562 c 0
EndSplineSet
Refer: 3 65 N 1 0 0 1 0 0 0
EndChar

StartChar: AE
Encoding: 198 198 10
Width: 814
GlyphClass: 2
Flags: W
LayerCount: 2
Fore
SplineSet
537.59928925 65 m 1,0,-1
 770.474609375 65 l 1,1,-1
 770.474609375 0 l 1,2,-1
 476.188988745 -0 l 1,3,-1
 428.85041651 176.5 l 1,4,-1
 146.907331289 176.5 l 1,5,-1
 76.146484375 0 l 1,6,-1
 0 0 l 1,7,-1
 277.29442581 685 l 1,8,-1
 724.598632812 685 l 1,9,-1
 715.498046875 620 l 1,10,-1
 386.180980794 620 l 1,11,-1
 450.121820635 386.5 l 1,12,-1
 715.474609375 386.5 l 1,13,-1
 715.474609375 322.5 l 1,14,-1
 467.473803232 322.5 l 1,15,-1
 537.59928925 65 l 1,0,-1
411.625061379 242.5 m 1,16,-1
 317.043389997 611.96484375 l 1,17,-1
 172.335332195 242.5 l 1,18,-1
 411.625061379 242.5 l 1,16,-1
EndSplineSet
EndChar

StartChar: B
Encoding: 66 66 11
Width: 628
GlyphClass: 2
Flags: W
LayerCount: 2
Fore
SplineSet
527.643554688 319.4609375 m 0,0,1
 574 276.674804688 574 276.674804688 574 193.267578125 c 0,2,3
 574 95.576171875 574 95.576171875 506.462890625 47.7880859375 c 0,4,5
 437.575851213 0 437.575851213 0 308.544776119 0 c 2,6,-1
 111 0 l 1,7,-1
 111 685 l 1,8,-1
 271.5 685 l 2,9,10
 403.629489272 685 403.629489272 685 474.884765625 641.215820312 c 0,11,12
 542 597.430664062 542 597.430664062 542 510.325195312 c 0,13,14
 542 445.896484375 542 445.896484375 505.619140625 405.651367188 c 0,15,16
 480.094726562 377.416992188 480.094726562 377.416992188 441.782969916 363.938476562 c 1,17,18
 492.9375 351.494140625 492.9375 351.494140625 527.643554688 319.4609375 c 0,0,1
186 620 m 1,19,-1
 186 391.5 l 1,20,-1
 320.529850746 391.5 l 2,21,22
 387.235132929 391.5 387.235132929 391.5 427.154879897 421.971679688 c 0,23,24
 466 452.442382812 466 452.442382812 466 506.234375 c 0,25,26
 466 567.122070312 466 567.122070312 420.39518715 593.561523438 c 0,27,28
 373.714683419 620 373.714683419 620 278.037313433 620 c 2,29,-1
 186 620 l 1,19,-1
186 65 m 1,30,-1
 308.544776119 65 l 2,31,32
 497 65 497 65 497 192.28125 c 0,33,34
 497 262.256835938 497 262.256835938 453.942543144 295.37890625 c 0,35,36
 407.033276003 328.5 407.033276003 328.5 328.156716418 328.5 c 2,37,-1
 186 328.5 l 1,38,-1
 186 65 l 1,30,-1
EndSplineSet
EndChar

StartChar: C
Encoding: 67 67 12
Width: 580
GlyphClass: 2
Flags: W
LayerCount: 2
Fore
SplineSet
439.870117188 618.474609375 m 0,0,1
 407.21784484 630 407.21784484 630 365.090849384 630 c 0,2,3
 265.772152728 630 265.772152728 630 203.566148548 560.239257812 c 0,4,5
 144 490.478515625 144 490.478515625 144 343.012695312 c 0,6,7
 144 247.012695312 144 247.012695312 171.28515625 182.439453125 c 0,8,9
 199.359365277 117.8671875 199.359365277 117.8671875 248.886894836 87.4384765625 c 128,-1,10
 298.427917654 57 298.427917654 57 361.902288268 57 c 0,11,12
 412.350473331 57 412.350473331 57 446.79296875 71.0009765625 c 0,13,14
 479.622070312 85.0009765625 479.622070312 85.0009765625 513.8203125 112.359375 c 2,15,-1
 519.689453125 117.0546875 l 1,16,-1
 559.649414062 66.7822265625 l 1,17,-1
 554.654296875 62.0537109375 l 2,18,19
 477.484375 -11 477.484375 -11 359.776580857 -11 c 0,20,21
 272.368280949 -11 272.368280949 -11 203.955377199 30.3466796875 c 0,22,23
 138.545898438 71.6826171875 138.545898438 71.6826171875 102.2734375 151.225585938 c 128,-1,24
 66 230.76953125 66 230.76953125 66 342.989257812 c 128,-1,25
 66 455.26953125 66 455.26953125 103.8046875 534.810546875 c 128,-1,26
 141.609375 614.3515625 141.609375 614.3515625 207.18234221 655.165039062 c 0,27,28
 275.580714757 696 275.580714757 696 360.839434562 696 c 0,29,30
 422.933340891 696 422.933340891 696 464.606445312 680.03515625 c 0,31,32
 505.291015625 664.0703125 505.291015625 664.0703125 546.1796875 631.359375 c 2,33,-1
 552.040039062 626.670898438 l 1,34,-1
 510.670898438 574.959960938 l 1,35,-1
 504.8203125 579.640625 l 2,36,37
 470.754882812 606.893554688 470.754882812 606.893554688 439.870117188 618.474609375 c 0,0,1
EndSplineSet
EndChar

StartChar: Ccedilla
Encoding: 199 199 13
Width: 580
GlyphClass: 2
Flags: W
LayerCount: 2
Fore
SplineSet
456.15234375 -75.935546875 m 0,0,1
 480 -97.1337890625 480 -97.1337890625 480 -132.5 c 0,2,3
 480 -177.19921875 480 -177.19921875 447.521484375 -202.099609375 c 0,4,5
 413.501153694 -227 413.501153694 -227 361.535439397 -227 c 128,-1,6
 309.569725099 -227 309.569725099 -227 273.573101274 -204.775390625 c 2,7,-1
 267.638017795 -201.110351562 l 1,8,-1
 293.663950489 -152.138671875 l 1,9,-1
 300.933856869 -155.939453125 l 2,10,11
 327.834794 -170 327.834794 -170 361.905992877 -170 c 0,12,13
 384.875118847 -170 384.875118847 -170 398.63438198 -160.813476562 c 128,-1,14
 412.392607147 -151.626953125 412.392607147 -151.626953125 412.392607147 -133.357421875 c 128,-1,15
 412.392607147 -115.087890625 412.392607147 -115.087890625 393.889844278 -106.181640625 c 0,16,17
 372.738194903 -96 372.738194903 -96 325.768205821 -96 c 2,18,-1
 317.020237378 -96 l 1,19,-1
 325.595903642 -9.265625 l 1,20,21
 249.563934442 -1.7666015625 249.563934442 -1.7666015625 188.741265384 40.0126953125 c 0,22,23
 131.35546875 81.791015625 131.35546875 81.791015625 98.677734375 159.283203125 c 128,-1,24
 66 236.776367188 66 236.776367188 66 346.029296875 c 128,-1,25
 66 455.28125 66 455.28125 103.8046875 534.818359375 c 128,-1,26
 141.609375 614.35546875 141.609375 614.35546875 207.182788323 655.166992188 c 0,27,28
 275.582601381 696 275.582601381 696 360.843116787 696 c 0,29,30
 422.938330852 696 422.938330852 696 464.606445312 680.03515625 c 0,31,32
 505.291015625 664.0703125 505.291015625 664.0703125 546.1796875 631.359375 c 2,33,-1
 552.040039062 626.670898438 l 1,34,-1
 510.670898438 574.959960938 l 1,35,-1
 504.8203125 579.640625 l 2,36,37
 470.754882812 606.893554688 470.754882812 606.893554688 439.870117188 618.474609375 c 0,38,39
 407.222503823 630 407.222503823 630 365.094621147 630 c 0,40,41
 265.773832778 630 265.773832778 630 203.566518501 560.239257812 c 0,42,43
 144 490.478515625 144 490.478515625 144 343.012695312 c 0,44,45
 144 247.012695312 144 247.012695312 171.28515625 182.439453125 c 0,46,47
 199.359646634 117.8671875 199.359646634 117.8671875 248.888219272 87.4384765625 c 128,-1,48
 298.430285454 57 298.430285454 57 361.905992877 57 c 0,49,50
 412.35524041 57 412.35524041 57 446.79296875 71.0009765625 c 0,51,52
 479.622070312 85.0009765625 479.622070312 85.0009765625 513.8203125 112.359375 c 2,53,-1
 519.689453125 117.0546875 l 1,54,-1
 559.564453125 66.888671875 l 1,55,-1
 554.76171875 62.158203125 l 2,56,57
 488.103515625 -3.505859375 488.103515625 -3.505859375 384.75782881 -10.5654296875 c 1,58,-1
 384.75782881 -49.7060546875 l 1,59,60
 431.848221824 -54.7373046875 431.848221824 -54.7373046875 456.15234375 -75.935546875 c 0,0,1
EndSplineSet
EndChar

StartChar: D
Encoding: 68 68 14
Width: 662
GlyphClass: 2
Flags: W
LayerCount: 2
Fore
SplineSet
505.08203125 612.618164062 m 0,0,1
 596 540.235351562 596 540.235351562 596 347.881835938 c 128,-1,2
 596 155.666015625 596 155.666015625 504.146484375 77.8330078125 c 0,3,4
 407.666386861 0 407.666386861 0 266.299031477 0 c 2,5,-1
 111 0 l 1,6,-1
 111 685 l 1,7,-1
 254.5 685 l 2,8,9
 409.672347912 685 409.672347912 685 505.08203125 612.618164062 c 0,0,1
471.273683414 151.211914062 m 0,10,11
 518 221.051757812 518 221.051757812 518 347.85546875 c 0,12,13
 518 460.857421875 518 460.857421875 484.118164062 520.240234375 c 0,14,15
 448.364874962 579.622070312 448.364874962 579.622070312 393.021299939 599.811523438 c 128,-1,16
 337.678772416 620 337.678772416 620 263.081113801 620 c 2,17,-1
 186 620 l 1,18,-1
 186 65 l 1,19,-1
 270.589588378 65 l 2,20,21
 409.8273778 65 409.8273778 65 471.273683414 151.211914062 c 0,10,11
EndSplineSet
EndChar

StartChar: Eth
Encoding: 208 208 15
Width: 667
GlyphClass: 2
Flags: W
LayerCount: 2
Fore
SplineSet
510.08203125 612.618164062 m 0,0,1
 601 540.235351562 601 540.235351562 601 347.881835938 c 128,-1,2
 601 155.666015625 601 155.666015625 509.146484375 77.8330078125 c 0,3,4
 412.666386861 0 412.666386861 0 271.299031477 0 c 2,5,-1
 116 0 l 1,6,-1
 116 320.5 l 1,7,-1
 23 320.5 l 1,8,-1
 23 383.5 l 1,9,-1
 116 383.5 l 1,10,-1
 116 685 l 1,11,-1
 259.5 685 l 2,12,13
 414.672347912 685 414.672347912 685 510.08203125 612.618164062 c 0,0,1
476.273683414 151.211914062 m 0,14,15
 523 221.051757812 523 221.051757812 523 347.85546875 c 0,16,17
 523 460.857421875 523 460.857421875 489.118164062 520.240234375 c 0,18,19
 453.364874962 579.622070312 453.364874962 579.622070312 398.021299939 599.811523438 c 128,-1,20
 342.678772416 620 342.678772416 620 268.081113801 620 c 2,21,-1
 191 620 l 1,22,-1
 191 383.5 l 1,23,-1
 373.736077482 383.5 l 1,24,-1
 373.736077482 320.5 l 1,25,-1
 191 320.5 l 1,26,-1
 191 65 l 1,27,-1
 275.589588378 65 l 2,28,29
 414.8273778 65 414.8273778 65 476.273683414 151.211914062 c 0,14,15
EndSplineSet
EndChar

StartChar: E
Encoding: 69 69 16
Width: 542
GlyphClass: 2
Flags: W
LayerCount: 2
Fore
SplineSet
490.124023438 685 m 1,0,-1
 481.024414062 620 l 1,1,-1
 186 620 l 1,2,-1
 186 387.5 l 1,3,-1
 444 387.5 l 1,4,-1
 444 322.5 l 1,5,-1
 186 322.5 l 1,6,-1
 186 65 l 1,7,-1
 496 65 l 1,8,-1
 496 0 l 1,9,-1
 111 0 l 1,10,-1
 111 685 l 1,11,-1
 490.124023438 685 l 1,0,-1
EndSplineSet
EndChar

StartChar: Eacute
Encoding: 201 201 17
Width: 627
GlyphClass: 2
Flags: W
LayerCount: 2
Fore
SplineSet
408.205078125 891.440429688 m 1
 441.252929688 825.045898438 l 1
 229.0859375 741.465820312 l 1
 207 788.697265625 l 1
 408.205078125 891.440429688 l 1
EndSplineSet
Refer: 16 69 N 1 0 0 1 0 0 0
EndChar

StartChar: Ecircumflex
Encoding: 202 202 18
Width: 627
GlyphClass: 2
Flags: W
LayerCount: 2
Fore
SplineSet
306.823242188 894 m 1
 345.428710938 894 l 1
 482.627929688 787.133789062 l 1
 447.178710938 745.857421875 l 1
 324.806640625 826.749023438 l 1
 201.452148438 745.860351562 l 1
 166 787.138671875 l 1
 304.234375 894 l 1
 306.823242188 894 l 1
EndSplineSet
Refer: 16 69 N 1 0 0 1 0 0 0
EndChar

StartChar: Edieresis
Encoding: 203 203 19
Width: 627
GlyphClass: 2
Flags: W
LayerCount: 2
Fore
SplineSet
260.302734375 854.302734375 m 0
 274 840.604492188 274 840.604492188 274 820.5 c 0
 274 800.296875 274 800.296875 260.182617188 787.080078125 c 0
 246.506835938 774 246.506835938 774 226.5 774 c 0
 206.493164062 774 206.493164062 774 192.817382812 787.080078125 c 0
 179 800.296875 179 800.296875 179 820.5 c 0
 179 840.604492188 179 840.604492188 192.697265625 854.302734375 c 0
 206.395507812 868 206.395507812 868 226.5 868 c 0
 246.604492188 868 246.604492188 868 260.302734375 854.302734375 c 0
449.302734375 854.302734375 m 0
 463 840.604492188 463 840.604492188 463 820.5 c 0
 463 800.296875 463 800.296875 449.182617188 787.080078125 c 0
 435.506835938 774 435.506835938 774 415.5 774 c 0
 395.493164062 774 395.493164062 774 381.817382812 787.080078125 c 0
 368 800.296875 368 800.296875 368 820.5 c 0
 368 840.604492188 368 840.604492188 381.697265625 854.302734375 c 0
 395.395507812 868 395.395507812 868 415.5 868 c 0
 435.604492188 868 435.604492188 868 449.302734375 854.302734375 c 0
EndSplineSet
Refer: 16 69 N 1 0 0 1 0 0 0
EndChar

StartChar: Egrave
Encoding: 200 200 20
Width: 627
GlyphClass: 2
Flags: W
LayerCount: 2
Fore
SplineSet
235.047851562 891.440429688 m 1
 436.252929688 788.697265625 l 1
 414.166992188 741.465820312 l 1
 202 825.045898438 l 1
 235.047851562 891.440429688 l 1
EndSplineSet
Refer: 16 69 N 1 0 0 1 0 0 0
EndChar

StartChar: F
Encoding: 70 70 21
Width: 511
GlyphClass: 2
Flags: W
LayerCount: 2
Fore
SplineSet
186 0 m 1,0,-1
 111 0 l 1,1,-1
 111 685 l 1,2,-1
 484.124023438 685 l 1,3,-1
 475.024414062 620 l 1,4,-1
 186 620 l 1,5,-1
 186 375.5 l 1,6,-1
 438 375.5 l 1,7,-1
 438 310.5 l 1,8,-1
 186 310.5 l 1,9,-1
 186 0 l 1,0,-1
EndSplineSet
EndChar

StartChar: G
Encoding: 71 71 22
Width: 648
GlyphClass: 2
Flags: W
LayerCount: 2
Fore
SplineSet
451.310659124 617.466796875 m 0,0,1
 415.628232759 630 415.628232759 630 369.471264368 630 c 0,2,3
 309.320357399 630 309.320357399 630 257.819234914 600.86328125 c 128,-1,4
 206.456492457 571.805664062 206.456492457 571.805664062 174.672851562 507.75 c 0,5,6
 144 443.694335938 144 443.694335938 144 344.936523438 c 0,7,8
 144 198.294921875 144 198.294921875 200.915095187 126.647460938 c 0,9,10
 260.245016164 55 260.245016164 55 366.298850575 55 c 0,11,12
 446.300062859 55 446.300062859 55 508 86.9921875 c 1,13,-1
 508 311.5 l 1,14,-1
 369.97418283 311.5 l 1,15,-1
 360.351607399 376.5 l 1,16,-1
 582 376.5 l 1,17,-1
 582 47.0244140625 l 1,18,-1
 578.212890625 44.9013671875 l 2,19,20
 478.4921875 -11 478.4921875 -11 366.298850575 -11 c 0,21,22
 224.062769397 -11 224.062769397 -11 143.997070312 80.451171875 c 0,23,24
 66 171.901367188 66 171.901367188 66 344.948242188 c 0,25,26
 66 457.326171875 66 457.326171875 106.376953125 536.903320312 c 128,-1,27
 146.754882812 616.48046875 146.754882812 616.48046875 215.751706178 656.270507812 c 0,28,29
 286.89762931 696 286.89762931 696 369.471264368 696 c 0,30,31
 432.278241739 696 432.278241739 696 478.076171875 679.045898438 c 0,32,33
 522.2578125 662.092773438 522.2578125 662.092773438 567.163085938 626.372070312 c 2,34,-1
 573.567382812 621.278320312 l 1,35,-1
 527.248046875 572.385742188 l 1,36,-1
 521.87890625 576.59375 l 2,37,38
 485.799804688 604.872070312 485.799804688 604.872070312 451.310659124 617.466796875 c 0,0,1
EndSplineSet
EndChar

StartChar: H
Encoding: 72 72 23
Width: 700
GlyphClass: 2
Flags: W
LayerCount: 2
Fore
SplineSet
186 393.5 m 1,0,-1
 514 393.5 l 1,1,-1
 514 685 l 1,2,-1
 589 685 l 1,3,-1
 589 0 l 1,4,-1
 514 0 l 1,5,-1
 514 327.5 l 1,6,-1
 186 327.5 l 1,7,-1
 186 0 l 1,8,-1
 111 0 l 1,9,-1
 111 685 l 1,10,-1
 186 685 l 1,11,-1
 186 393.5 l 1,0,-1
EndSplineSet
EndChar

StartChar: I
Encoding: 73 73 24
Width: 297
GlyphClass: 2
Flags: W
LayerCount: 2
Fore
SplineSet
111 685 m 1,0,-1
 186 685 l 1,1,-1
 186 0 l 1,2,-1
 111 0 l 1,3,-1
 111 685 l 1,0,-1
EndSplineSet
EndChar

StartChar: Iacute
Encoding: 205 205 25
Width: 347
GlyphClass: 2
Flags: W
LayerCount: 2
Fore
SplineSet
259.205078125 891.440429688 m 1
 292.252929688 825.045898438 l 1
 80.0859375 741.465820312 l 1
 58 788.697265625 l 1
 259.205078125 891.440429688 l 1
EndSplineSet
Refer: 24 73 N 1 0 0 1 0 0 0
EndChar

StartChar: Icircumflex
Encoding: 206 206 26
Width: 347
GlyphClass: 2
Flags: W
LayerCount: 2
Fore
SplineSet
157.823242188 894 m 1
 196.428710938 894 l 1
 333.627929688 787.133789062 l 1
 298.178710938 745.857421875 l 1
 175.806640625 826.749023438 l 1
 52.4521484375 745.860351562 l 1
 17 787.138671875 l 1
 155.234375 894 l 1
 157.823242188 894 l 1
EndSplineSet
Refer: 24 73 N 1 0 0 1 0 0 0
EndChar

StartChar: Idieresis
Encoding: 207 207 27
Width: 347
GlyphClass: 2
Flags: W
LayerCount: 2
Fore
SplineSet
111.302734375 854.302734375 m 0
 125 840.604492188 125 840.604492188 125 820.5 c 0
 125 800.296875 125 800.296875 111.182617188 787.080078125 c 0
 97.5068359375 774 97.5068359375 774 77.5 774 c 0
 57.4931640625 774 57.4931640625 774 43.8173828125 787.080078125 c 0
 30 800.296875 30 800.296875 30 820.5 c 0
 30 840.604492188 30 840.604492188 43.697265625 854.302734375 c 0
 57.3955078125 868 57.3955078125 868 77.5 868 c 0
 97.6044921875 868 97.6044921875 868 111.302734375 854.302734375 c 0
300.302734375 854.302734375 m 0
 314 840.604492188 314 840.604492188 314 820.5 c 0
 314 800.296875 314 800.296875 300.182617188 787.080078125 c 0
 286.506835938 774 286.506835938 774 266.5 774 c 0
 246.493164062 774 246.493164062 774 232.817382812 787.080078125 c 0
 219 800.296875 219 800.296875 219 820.5 c 0
 219 840.604492188 219 840.604492188 232.697265625 854.302734375 c 0
 246.395507812 868 246.395507812 868 266.5 868 c 0
 286.604492188 868 286.604492188 868 300.302734375 854.302734375 c 0
EndSplineSet
Refer: 24 73 N 1 0 0 1 0 0 0
EndChar

StartChar: Igrave
Encoding: 204 204 28
Width: 347
GlyphClass: 2
Flags: W
LayerCount: 2
Fore
SplineSet
86.0478515625 891.440429688 m 1
 287.252929688 788.697265625 l 1
 265.166992188 741.465820312 l 1
 53 825.045898438 l 1
 86.0478515625 891.440429688 l 1
EndSplineSet
Refer: 24 73 N 1 0 0 1 0 0 0
EndChar

StartChar: J
Encoding: 74 74 29
Width: 306
GlyphClass: 2
Flags: W
LayerCount: 2
Fore
SplineSet
201.9609375 685 m 1,0,-1
 201.9609375 97.3115234375 l 2,1,2
 201.9609375 36.1875 201.9609375 36.1875 185.802734375 -3.0888671875 c 0,3,4
 169.645507812 -43.22265625 169.645507812 -43.22265625 135.3984375 -69.16796875 c 128,-1,5
 101.150390625 -95.1123046875 101.150390625 -95.1123046875 41.1806640625 -118.490234375 c 2,6,-1
 34.0341796875 -121.276367188 l 1,7,-1
 13 -63.43359375 l 1,8,-1
 19.4755859375 -60.6181640625 l 2,9,10
 64.365234375 -41.1015625 64.365234375 -41.1015625 87.1298828125 -20.7080078125 c 0,11,12
 109.89453125 -0.7392578125 109.89453125 -0.7392578125 118.427734375 26.6484375 c 128,-1,13
 126.9609375 54.03515625 126.9609375 54.03515625 126.9609375 99.935546875 c 2,14,-1
 126.9609375 685 l 1,15,-1
 201.9609375 685 l 1,0,-1
EndSplineSet
EndChar

StartChar: K
Encoding: 75 75 30
Width: 577
GlyphClass: 2
Flags: W
LayerCount: 2
Fore
SplineSet
267.527414466 369.166015625 m 1,0,-1
 585.268554688 -0 l 1,1,-1
 492.9375 -0 l 1,2,-1
 186 358.33203125 l 1,3,-1
 186 0 l 1,4,-1
 111 0 l 1,5,-1
 111 685 l 1,6,-1
 186 685 l 1,7,-1
 186 374.60546875 l 1,8,-1
 480.16015625 685 l 1,9,-1
 569.358398438 685 l 1,10,-1
 267.527414466 369.166015625 l 1,0,-1
EndSplineSet
EndChar

StartChar: L
Encoding: 76 76 31
Width: 507
GlyphClass: 2
Flags: W
LayerCount: 2
Fore
SplineSet
186 685 m 1,0,-1
 186 67.521484375 l 1,1,-1
 488.193359375 67.521484375 l 1,2,-1
 477.971679688 0 l 1,3,-1
 111 0 l 1,4,-1
 111 685 l 1,5,-1
 186 685 l 1,0,-1
EndSplineSet
EndChar

StartChar: M
Encoding: 77 77 33
Width: 800
GlyphClass: 2
Flags: W
LayerCount: 2
Fore
SplineSet
665.05859375 685 m 1,0,-1
 732.50390625 -0 l 1,1,-1
 659.420898438 -0 l 1,2,-1
 626.840342656 334.75 l 2,3,4
 612.045898438 492.953125 612.045898438 492.953125 604.530273438 593.633789062 c 1,5,-1
 436.287787515 81 l 1,6,-1
 366.321604633 81 l 1,7,-1
 192.44140625 593.431640625 l 1,8,9
 186.845703125 505.211914062 186.845703125 505.211914062 174.71875 375.85546875 c 1,10,-1
 172.637406108 336.91796875 l 1,11,-1
 141.095703125 0 l 1,12,-1
 69 0 l 1,13,-1
 135.423828125 685 l 1,14,-1
 230.727539062 685 l 1,15,-1
 402.687486585 169.58984375 l 1,16,-1
 568.705078125 685 l 1,17,-1
 665.05859375 685 l 1,0,-1
EndSplineSet
EndChar

StartChar: N
Encoding: 78 78 34
Width: 703
GlyphClass: 2
Flags: W
LayerCount: 2
Fore
SplineSet
592 685 m 1,0,-1
 592 0 l 1,1,-1
 500.016291456 -0 l 1,2,-1
 177.086914062 591.913085938 l 1,3,4
 182.999023438 486.065429688 182.999023438 486.065429688 183 390.5 c 2,5,-1
 183 0 l 1,6,-1
 111 0 l 1,7,-1
 111 685 l 1,8,-1
 200.033203125 685 l 1,9,-1
 525.729492188 93.2431640625 l 1,10,11
 520 187.724609375 520 187.724609375 520 261.5 c 2,12,-1
 520 685 l 1,13,-1
 592 685 l 1,0,-1
EndSplineSet
EndChar

StartChar: Ntilde
Encoding: 209 209 35
Width: 803
GlyphClass: 2
Flags: W
LayerCount: 2
Fore
SplineSet
339.176985273 818.454101562 m 0
 329.603515625 823 329.603515625 823 321.299804688 823 c 0
 306.82421875 823 306.82421875 823 295.833007812 814.646484375 c 0
 284.841796875 806.29296875 284.841796875 806.29296875 271.544921875 786.34765625 c 2
 267.866210938 780.830078125 l 1
 219 805.263671875 l 1
 222.70703125 812.077148438 l 2
 261.841796875 884 261.841796875 884 321.299804688 884 c 0
 339.939294391 884 339.939294391 884 358.298335368 877.586914062 c 0
 376.656219579 871.173828125 376.656219579 871.173828125 398.615117876 858.828125 c 0
 419.372135789 848.125 419.372135789 848.125 431.261381783 843.5625 c 0
 441.926757812 839 441.926757812 839 454.298828125 839 c 0
 466.670898438 839 466.670898438 839 477.671875 847.801757812 c 0
 488.673828125 856.602539062 488.673828125 856.602539062 506.671875 884.200195312 c 1
 555.288085938 859.891601562 l 1
 552.048828125 853.228515625 l 2
 514.994140625 777 514.994140625 777 453.299804688 777 c 0
 433.456924582 777 433.456924582 777 414.594690181 783.900390625 c 0
 393.159807105 791.741210938 393.159807105 791.741210938 371.822092413 802.825195312 c 0
 350.485534488 813.908203125 350.485534488 813.908203125 339.176985273 818.454101562 c 0
EndSplineSet
Refer: 34 78 N 1 0 0 1 0 0 0
EndChar

StartChar: O
Encoding: 79 79 36
Width: 721
GlyphClass: 2
Flags: W
LayerCount: 2
Fore
SplineSet
360.994903747 696 m 128,-1,1
 450.051047319 696 450.051047319 696 517.808982621 655.1796875 c 0,2,3
 583.46484375 614.314453125 583.46484375 614.314453125 619.232421875 534.2578125 c 128,-1,4
 655 454.201171875 655 454.201171875 655 342.995117188 c 128,-1,5
 655 231.7890625 655 231.7890625 619.74609375 152.240234375 c 128,-1,6
 584.493164062 72.69140625 584.493164062 72.69140625 518.927363047 30.8447265625 c 0,7,8
 451.142896824 -11 451.142896824 -11 361.034700131 -11 c 128,-1,9
 270.925483018 -11 270.925483018 -11 203.154282256 30.33203125 c 0,10,11
 137.541992188 71.6748046875 137.541992188 71.6748046875 101.771484375 150.73828125 c 128,-1,12
 66 229.801757812 66 229.801757812 66 340.532226562 c 128,-1,13
 66 451.263671875 66 451.263671875 101.756835938 531.295898438 c 128,-1,14
 137.514648438 611.329101562 137.514648438 611.329101562 203.627757181 653.658203125 c 0,15,0
 271.938760175 696 271.938760175 696 360.994903747 696 c 128,-1,1
201.250178354 126.65625 m 0,16,17
 260.387604673 55 260.387604673 55 359.97754491 55 c 0,18,19
 463.701206961 55 463.701206961 55 521.293717253 126.149414062 c 0,20,21
 577 197.299804688 577 197.299804688 577 342.491210938 c 128,-1,22
 577 487.68359375 577 487.68359375 520.781466364 558.841796875 c 0,23,24
 462.677725603 630 462.677725603 630 361.02755719 630 c 128,-1,25
 259.378409197 630 259.378409197 630 200.746090826 557.87109375 c 0,26,27
 144 485.743164062 144 485.743164062 144 342.02734375 c 128,-1,28
 144 198.311523438 144 198.311523438 201.250178354 126.65625 c 0,16,17
EndSplineSet
Substitution2: "Single Substitution lookup 19 subtable" ordmasculine
EndChar

StartChar: Oacute
Encoding: 211 211 37
Width: 806
GlyphClass: 2
Flags: W
LayerCount: 2
Fore
SplineSet
464.205078125 891.440429688 m 1
 497.252929688 825.045898438 l 1
 285.0859375 741.465820312 l 1
 263 788.697265625 l 1
 464.205078125 891.440429688 l 1
EndSplineSet
Refer: 36 79 N 1 0 0 1 0 0 0
Substitution2: "'locl' Localized Forms in Latin lookup 3 subtable" Oacute.loclPLK
EndChar

StartChar: Ocircumflex
Encoding: 212 212 39
Width: 806
GlyphClass: 2
Flags: W
LayerCount: 2
Fore
SplineSet
362.823242188 894 m 1
 401.428710938 894 l 1
 538.627929688 787.133789062 l 1
 503.178710938 745.857421875 l 1
 380.806640625 826.749023438 l 1
 257.452148438 745.860351562 l 1
 222 787.138671875 l 1
 360.234375 894 l 1
 362.823242188 894 l 1
EndSplineSet
Refer: 36 79 N 1 0 0 1 0 0 0
EndChar

StartChar: Odieresis
Encoding: 214 214 40
Width: 806
GlyphClass: 2
Flags: W
LayerCount: 2
Fore
SplineSet
316.302734375 854.302734375 m 0
 330 840.604492188 330 840.604492188 330 820.5 c 0
 330 800.296875 330 800.296875 316.182617188 787.080078125 c 0
 302.506835938 774 302.506835938 774 282.5 774 c 0
 262.493164062 774 262.493164062 774 248.817382812 787.080078125 c 0
 235 800.296875 235 800.296875 235 820.5 c 0
 235 840.604492188 235 840.604492188 248.697265625 854.302734375 c 0
 262.395507812 868 262.395507812 868 282.5 868 c 0
 302.604492188 868 302.604492188 868 316.302734375 854.302734375 c 0
505.302734375 854.302734375 m 0
 519 840.604492188 519 840.604492188 519 820.5 c 0
 519 800.296875 519 800.296875 505.182617188 787.080078125 c 0
 491.506835938 774 491.506835938 774 471.5 774 c 0
 451.493164062 774 451.493164062 774 437.817382812 787.080078125 c 0
 424 800.296875 424 800.296875 424 820.5 c 0
 424 840.604492188 424 840.604492188 437.697265625 854.302734375 c 0
 451.395507812 868 451.395507812 868 471.5 868 c 0
 491.604492188 868 491.604492188 868 505.302734375 854.302734375 c 0
EndSplineSet
Refer: 36 79 N 1 0 0 1 0 0 0
EndChar

StartChar: Ograve
Encoding: 210 210 41
Width: 806
GlyphClass: 2
Flags: W
LayerCount: 2
Fore
SplineSet
291.047851562 891.440429688 m 1
 492.252929688 788.697265625 l 1
 470.166992188 741.465820312 l 1
 258 825.045898438 l 1
 291.047851562 891.440429688 l 1
EndSplineSet
Refer: 36 79 N 1 0 0 1 0 0 0
EndChar

StartChar: Oslash
Encoding: 216 216 42
Width: 721
GlyphClass: 2
Flags: W
LayerCount: 2
Fore
SplineSet
613.859375 547.618164062 m 128,-1,1
 655 465.364257812 655 465.364257812 655 342.903320312 c 0,2,3
 655 232.403320312 655 232.403320312 619.74609375 152.653320312 c 128,-1,4
 584.493164062 72.9033203125 584.493164062 72.9033203125 518.927363047 30.9501953125 c 0,5,6
 451.142896824 -11 451.142896824 -11 359.97754491 -11 c 0,7,8
 319.431152344 -11 319.431152344 -11 284.021554547 -2.64453125 c 1,9,-1
 250.544632415 -121.788085938 l 1,10,-1
 179.9921875 -102.60546875 l 1,11,-1
 220.946327072 18.5322265625 l 1,12,13
 147.298828125 57.1474609375 147.298828125 57.1474609375 106.649414062 138.424804688 c 128,-1,14
 66 219.703125 66 219.703125 66 340.18359375 c 0,15,16
 66 450.6796875 66 450.6796875 101.756835938 530.903320312 c 128,-1,17
 137.514648438 611.126953125 137.514648438 611.126953125 203.627757181 653.557617188 c 0,18,19
 271.938760175 696 271.938760175 696 359.97754491 696 c 0,20,21
 398.663711639 696 398.663711639 696 433.90289928 688.452148438 c 1,22,-1
 470.528837832 811.6328125 l 1,23,-1
 541.016601562 793.745117188 l 1,24,-1
 499.004681068 667.618164062 l 1,25,0
 572.717773438 629.872070312 572.717773438 629.872070312 613.859375 547.618164062 c 128,-1,1
418.117000374 623.322265625 m 1,26,27
 391.035050992 630 391.035050992 630 359.97754491 630 c 0,28,29
 259.378409197 630 259.378409197 630 200.746090826 555.990234375 c 0,30,31
 144 481.979492188 144 481.979492188 144 333.5 c 0,32,33
 144 229.025390625 144 229.025390625 172.41015625 161.918945312 c 0,34,35
 198.756271636 100.983398438 198.756271636 100.983398438 246.734383772 70.1298828125 c 1,36,-1
 418.117000374 623.322265625 l 1,26,27
521.293717253 128.005859375 m 0,37,38
 577 201.01171875 577 201.01171875 577 349.5 c 0,39,40
 577 553.15234375 577 553.15234375 472.276817459 617.162109375 c 1,41,-1
 300.787056746 61.68359375 l 1,42,43
 327.585329341 55.5 327.585329341 55.5 359.97754491 55 c 0,44,45
 463.701206961 55 463.701206961 55 521.293717253 128.005859375 c 0,37,38
EndSplineSet
EndChar

StartChar: Otilde
Encoding: 213 213 43
Width: 821
GlyphClass: 2
Flags: W
LayerCount: 2
Fore
SplineSet
339.176985273 818.454101562 m 0
 329.603515625 823 329.603515625 823 321.299804688 823 c 0
 306.82421875 823 306.82421875 823 295.833007812 814.646484375 c 0
 284.841796875 806.29296875 284.841796875 806.29296875 271.544921875 786.34765625 c 2
 267.866210938 780.830078125 l 1
 219 805.263671875 l 1
 222.70703125 812.077148438 l 2
 261.841796875 884 261.841796875 884 321.299804688 884 c 0
 339.939294391 884 339.939294391 884 358.298335368 877.586914062 c 0
 376.656219579 871.173828125 376.656219579 871.173828125 398.615117876 858.828125 c 0
 419.372135789 848.125 419.372135789 848.125 431.261381783 843.5625 c 0
 441.926757812 839 441.926757812 839 454.298828125 839 c 0
 466.670898438 839 466.670898438 839 477.671875 847.801757812 c 0
 488.673828125 856.602539062 488.673828125 856.602539062 506.671875 884.200195312 c 1
 555.288085938 859.891601562 l 1
 552.048828125 853.228515625 l 2
 514.994140625 777 514.994140625 777 453.299804688 777 c 0
 433.456924582 777 433.456924582 777 414.594690181 783.900390625 c 0
 393.159807105 791.741210938 393.159807105 791.741210938 371.822092413 802.825195312 c 0
 350.485534488 813.908203125 350.485534488 813.908203125 339.176985273 818.454101562 c 0
EndSplineSet
Refer: 36 79 N 1 0 0 1 0 0 0
EndChar

StartChar: OE
Encoding: 338 338 44
Width: 900
GlyphClass: 2
Flags: W
LayerCount: 2
Fore
SplineSet
526.593317601 65 m 1,0,-1
 854 65 l 1,1,-1
 854 0 l 1,2,-1
 418.063027674 0 l 1,3,4
 383.494745251 -11 383.494745251 -11 345.876172608 -11 c 0,5,6
 263.315519465 -11 263.315519465 -11 199.160024332 30.408203125 c 0,7,8
 136.485351562 71.7607421875 136.485351562 71.7607421875 101.243164062 151.28515625 c 128,-1,9
 66 230.809570312 66 230.809570312 66 340.533203125 c 128,-1,10
 66 450.255859375 66 450.255859375 101.229492188 530.75 c 128,-1,11
 136.458984375 611.243164062 136.458984375 611.243164062 199.626905488 653.58203125 c 0,12,13
 264.312536644 696 264.312536644 696 345.876172608 696 c 0,14,15
 384.505819067 696 384.505819067 696 421.081188438 685 c 1,16,-1
 848.124023438 685 l 1,17,-1
 839.024414062 620 l 1,18,-1
 530.039201747 620 l 1,19,20
 570.856663344 583.887695312 570.856663344 583.887695312 596.582317073 529.973632812 c 0,21,22
 625.761887312 468.823242188 625.761887312 468.823242188 630.794163344 387.5 c 1,23,-1
 802 387.5 l 1,24,-1
 802 322.5 l 1,25,-1
 632.012070532 322.5 l 1,26,27
 628.93768322 232.286132812 628.93768322 232.286132812 598.715913755 164.213867188 c 0,28,29
 571.869745251 103.741210938 571.869745251 103.741210938 526.593317601 65 c 1,0,-1
241.863083372 85.81640625 m 128,-1,31
 287.672659182 55 287.672659182 55 346.904315197 55 c 0,32,33
 441.660104948 55 441.660104948 55 496.839433337 127.56640625 c 128,-1,34
 552.018761726 200.133789062 552.018761726 200.133789062 552.018761726 343.934570312 c 128,-1,35
 552.018761726 487.735351562 552.018761726 487.735351562 496.358495544 558.8671875 c 128,-1,36
 440.698229362 630 440.698229362 630 347.944506332 630 c 128,-1,37
 255.191787348 630 255.191787348 630 199.005401325 557.416015625 c 0,38,39
 144 484.83203125 144 484.83203125 144 341.038085938 c 0,40,41
 144 245.932617188 144 245.932617188 169.837890625 181.318359375 c 0,42,30
 195.947078741 116.704101562 195.947078741 116.704101562 241.863083372 85.81640625 c 128,-1,31
EndSplineSet
EndChar

StartChar: P
Encoding: 80 80 45
Width: 600
GlyphClass: 2
Flags: W
LayerCount: 2
Fore
SplineSet
487.02734375 633.500976562 m 0,0,1
 555 582.001953125 555 582.001953125 555 476.180664062 c 0,2,3
 555 364.407226562 555 364.407226562 484.001953125 311.954101562 c 0,4,5
 410.654488017 259.5 410.654488017 259.5 276.5 259.5 c 2,6,-1
 186 259.5 l 1,7,-1
 186 0 l 1,8,-1
 111 0 l 1,9,-1
 111 685 l 1,10,-1
 279.5 685 l 2,11,12
 417.351260148 685 417.351260148 685 487.02734375 633.500976562 c 0,0,1
428.927942894 357.775390625 m 0,13,14
 477 392.05078125 477 392.05078125 477 475.17578125 c 0,15,16
 477 553.461914062 477 553.461914062 430.569711271 587.23046875 c 0,17,18
 379.656517599 621 379.656517599 621 278.5 621 c 2,19,-1
 186 621 l 1,20,-1
 186 323.5 l 1,21,-1
 276.5 323.5 l 2,22,23
 376.372980844 323.5 376.372980844 323.5 428.927942894 357.775390625 c 0,13,14
EndSplineSet
EndChar

StartChar: Thorn
Encoding: 222 222 46
Width: 600
GlyphClass: 2
Flags: W
LayerCount: 2
Fore
SplineSet
487.544921875 513.822265625 m 0,0,1
 555 462.029296875 555 462.029296875 555 355.7109375 c 0,2,3
 555 240.553710938 555 240.553710938 484.030273438 186.819335938 c 0,4,5
 411.654171675 133.0859375 411.654171675 133.0859375 282.301282051 133.0859375 c 2,6,-1
 186 133.0859375 l 1,7,-1
 186 0 l 1,8,-1
 111 0 l 1,9,-1
 111 685 l 1,10,-1
 186 685 l 1,11,-1
 186 565.614257812 l 1,12,-1
 285.493589744 565.614257812 l 2,13,14
 419.134064503 565.614257812 419.134064503 565.614257812 487.544921875 513.822265625 c 0,0,1
429.14847506 229.124023438 m 0,15,16
 477 264.749023438 477 264.749023438 477 355 c 0,17,18
 477 436.282226562 477 436.282226562 431.262131911 470.891601562 c 0,19,20
 382.830916967 505.5 382.830916967 505.5 284.429487179 505.5 c 2,21,-1
 186 505.5 l 1,22,-1
 186 193.5 l 1,23,-1
 282.301282051 193.5 l 2,24,25
 378.604642428 193.5 378.604642428 193.5 429.14847506 229.124023438 c 0,15,16
EndSplineSet
EndChar

StartChar: Q
Encoding: 81 81 47
Width: 720
GlyphClass: 2
Flags: W
LayerCount: 2
Fore
SplineSet
359.41966774 -9 m 0,0,1
 270.676554991 -9 270.676554991 -9 203.135892586 31.818359375 c 0,2,3
 137.559570312 72.6650390625 137.559570312 72.6650390625 101.780273438 151.243164062 c 128,-1,4
 66 229.8203125 66 229.8203125 66 340.548828125 c 128,-1,5
 66 451.278320312 66 451.278320312 101.756835938 531.305664062 c 128,-1,6
 137.514648438 611.333984375 137.514648438 611.333984375 203.571231936 653.661132812 c 0,7,8
 271.663188564 696 271.663188564 696 360.43376431 696 c 128,-1,9
 449.204340055 696 449.204340055 696 516.745002459 655.159179688 c 0,10,11
 583.46484375 614.2734375 583.46484375 614.2734375 619.232421875 534.17578125 c 128,-1,12
 655 454.079101562 655 454.079101562 655 341.831054688 c 0,13,14
 655 109.233398438 655 109.233398438 504.308333696 35.8564453125 c 1,15,16
 607.883789062 26.2607421875 607.883789062 26.2607421875 676.252929688 -28.69921875 c 2,17,-1
 681.927734375 -33.3564453125 l 1,18,-1
 632.478515625 -96.4033203125 l 1,19,-1
 626.520507812 -91.1064453125 l 2,20,21
 573.734375 -44.185546875 573.734375 -44.185546875 515.180628814 -26.5927734375 c 0,22,23
 456.137220916 -9 456.137220916 -9 359.41966774 -9 c 0,0,1
201.201277064 126.65625 m 0,24,25
 260.149073049 55 260.149073049 55 359.41966774 55 c 0,26,27
 462.810729034 55 462.810729034 55 520.218562926 126.149414062 c 0,28,29
 577 197.299804688 577 197.299804688 577 342.491210938 c 128,-1,30
 577 487.68359375 577 487.68359375 519.707954623 558.841796875 c 0,31,32
 461.790529576 630 461.790529576 630 360.466313046 630 c 128,-1,33
 259.143113664 630 259.143113664 630 200.698805946 557.87109375 c 0,34,35
 144 485.743164062 144 485.743164062 144 342.02734375 c 128,-1,36
 144 198.311523438 144 198.311523438 201.201277064 126.65625 c 0,24,25
EndSplineSet
EndChar

StartChar: R
Encoding: 82 82 48
Width: 620
GlyphClass: 2
Flags: W
LayerCount: 2
Fore
SplineSet
396.960500684 313.938476562 m 1,0,-1
 591.646484375 0 l 1,1,-1
 503.166992188 -0 l 1,2,-1
 317.380460009 299.5 l 1,3,-1
 186 299.5 l 1,4,-1
 186 0 l 1,5,-1
 111 0 l 1,6,-1
 111 685 l 1,7,-1
 289.389680336 685 l 2,8,9
 405.428359873 685 405.428359873 685 470.545079744 647.977539062 c 0,10,11
 551 600.885742188 551 600.885742188 551 495.646484375 c 0,12,13
 551 420.44921875 551 420.44921875 510.114257812 375.310546875 c 0,14,15
 470.607607212 333.393554688 470.607607212 333.393554688 396.960500684 313.938476562 c 1,0,-1
186 363.5 m 1,16,-1
 297.786811734 363.5 l 2,17,18
 375.647859568 363.5 375.647859568 363.5 418.251615951 389.732421875 c 0,19,20
 470.452826103 421.874023438 470.452826103 421.874023438 470.452826103 495.165039062 c 0,21,22
 470.452826103 559.625 470.452826103 559.625 427.903396864 590.3125 c 128,-1,23
 385.352942585 621 385.352942585 621 287.290397487 621 c 2,24,-1
 186 621 l 1,25,-1
 186 363.5 l 1,16,-1
EndSplineSet
EndChar

StartChar: S
Encoding: 83 83 49
Width: 569
GlyphClass: 2
Flags: W
LayerCount: 2
Fore
SplineSet
374.273233176 615.498046875 m 0,0,1
 336.105845971 630 336.105845971 630 287.521877552 630 c 0,2,3
 222.061109501 630 222.061109501 630 183.03722237 601.134765625 c 0,4,5
 144.954101562 572.26953125 144.954101562 572.26953125 144.954101562 523.98046875 c 0,6,7
 144.954101562 490.8828125 144.954101562 490.8828125 158.341796875 469.681640625 c 0,8,9
 172.645648453 448.385742188 172.645648453 448.385742188 207.624605277 430.956054688 c 128,-1,10
 242.603562101 413.525390625 242.603562101 413.525390625 312.541678305 393.965820312 c 128,-1,11
 382.48083648 374.40625 382.48083648 374.40625 426.657226562 350.282226562 c 0,12,13
 469.86328125 326.157226562 469.86328125 326.157226562 493.875 287.392578125 c 128,-1,14
 517.954101562 248.51953125 517.954101562 248.51953125 517.954101562 189.80078125 c 128,-1,15
 517.954101562 131.034179688 517.954101562 131.034179688 488.826171875 85.2919921875 c 128,-1,16
 459.676757812 39.515625 459.676757812 39.515625 406.427734375 14.2578125 c 0,17,18
 350.180786358 -11 350.180786358 -11 275.785119445 -11 c 0,19,20
 137.47265625 -11 137.47265625 -11 44.3046875 77.048828125 c 2,21,-1
 39 82.0625 l 1,22,-1
 82.7607421875 130.970703125 l 1,23,-1
 88.3310546875 126.196289062 l 2,24,25
 129.4609375 90.9423828125 129.4609375 90.9423828125 172.050683176 72.970703125 c 0,26,27
 216.618896468 55 216.618896468 55 274.718141435 55 c 0,28,29
 350.764289957 55 350.764289957 55 397.83323296 91.15234375 c 0,30,31
 441.954101562 127.3046875 441.954101562 127.3046875 441.954101562 189.35546875 c 0,32,33
 441.954101562 228.44140625 441.954101562 228.44140625 427.444335938 253.137695312 c 128,-1,34
 412.973632812 277.76953125 412.973632812 277.76953125 378.486962738 296.140625 c 0,35,36
 342.995356324 314.512695312 342.995356324 314.512695312 276.653081049 333.799804688 c 0,37,38
 162.853207695 365.561523438 162.853207695 365.561523438 115.783203125 408.268554688 c 0,39,40
 68.9541015625 450.9765625 68.9541015625 450.9765625 68.9541015625 524.512695312 c 0,41,42
 68.9541015625 573.62109375 68.9541015625 573.62109375 95.6962890625 613.07421875 c 128,-1,43
 122.358398438 652.408203125 122.358398438 652.408203125 170.270997199 674.204101562 c 0,44,45
 220.638819478 696 220.638819478 696 287.407260774 696 c 128,-1,46
 354.17570207 696 354.17570207 696 403.774414062 676.951171875 c 0,47,48
 450.501953125 657.951171875 450.501953125 657.951171875 494.489257812 618.056640625 c 2,49,-1
 500.088867188 612.977539062 l 1,50,-1
 455.098632812 564.131835938 l 1,51,-1
 449.61328125 568.772460938 l 2,52,53
 411.53125 600.99609375 411.53125 600.99609375 374.273233176 615.498046875 c 0,0,1
EndSplineSet
EndChar

StartChar: T
Encoding: 84 84 50
Width: 525
GlyphClass: 2
Flags: W
LayerCount: 2
Fore
SplineSet
516.056640625 685 m 1,0,-1
 507.075195312 617 l 1,1,-1
 301.570967051 617 l 1,2,-1
 307 0 l 1,3,-1
 233 0 l 1,4,-1
 223.059810606 617 l 1,5,-1
 15 617 l 1,6,-1
 15 685 l 1,7,-1
 516.056640625 685 l 1,0,-1
EndSplineSet
EndChar

StartChar: U
Encoding: 85 85 51
Width: 682
GlyphClass: 2
Flags: W
LayerCount: 2
Fore
SplineSet
581 685 m 1,0,-1
 581 216.594726562 l 2,1,2
 581 113.833007812 581 113.833007812 520.956054688 51.5087890625 c 0,3,4
 458.61977508 -11 458.61977508 -11 340.498976786 -11 c 128,-1,5
 222.379201707 -11 222.379201707 -11 160.541992188 51.021484375 c 0,6,7
 101 112.85546875 101 112.85546875 101 216.594726562 c 2,8,-1
 101 685 l 1,9,-1
 176 685 l 1,10,-1
 176 222.528320312 l 2,11,12
 176 141.294921875 176 141.294921875 216.279825587 98.6474609375 c 128,-1,13
 256.560674388 56 256.560674388 56 341.02388535 56 c 128,-1,14
 425.432865993 56 425.432865993 56 465.216432997 99.1123046875 c 128,-1,15
 505 142.223632812 505 142.223632812 505 222.528320312 c 2,16,-1
 505 685 l 1,17,-1
 581 685 l 1,0,-1
EndSplineSet
EndChar

StartChar: Uacute
Encoding: 218 218 52
Width: 767
GlyphClass: 2
Flags: W
LayerCount: 2
Fore
SplineSet
445.205078125 891.440429688 m 1
 478.252929688 825.045898438 l 1
 266.0859375 741.465820312 l 1
 244 788.697265625 l 1
 445.205078125 891.440429688 l 1
EndSplineSet
Refer: 51 85 N 1 0 0 1 0 0 0
EndChar

StartChar: Ucircumflex
Encoding: 219 219 53
Width: 767
GlyphClass: 2
Flags: W
LayerCount: 2
Fore
SplineSet
343.823242188 894 m 1
 382.428710938 894 l 1
 519.627929688 787.133789062 l 1
 484.178710938 745.857421875 l 1
 361.806640625 826.749023438 l 1
 238.452148438 745.860351562 l 1
 203 787.138671875 l 1
 341.234375 894 l 1
 343.823242188 894 l 1
EndSplineSet
Refer: 51 85 N 1 0 0 1 0 0 0
EndChar

StartChar: Udieresis
Encoding: 220 220 54
Width: 767
GlyphClass: 2
Flags: W
LayerCount: 2
Fore
SplineSet
297.302734375 854.302734375 m 0
 311 840.604492188 311 840.604492188 311 820.5 c 0
 311 800.296875 311 800.296875 297.182617188 787.080078125 c 0
 283.506835938 774 283.506835938 774 263.5 774 c 0
 243.493164062 774 243.493164062 774 229.817382812 787.080078125 c 0
 216 800.296875 216 800.296875 216 820.5 c 0
 216 840.604492188 216 840.604492188 229.697265625 854.302734375 c 0
 243.395507812 868 243.395507812 868 263.5 868 c 0
 283.604492188 868 283.604492188 868 297.302734375 854.302734375 c 0
486.302734375 854.302734375 m 0
 500 840.604492188 500 840.604492188 500 820.5 c 0
 500 800.296875 500 800.296875 486.182617188 787.080078125 c 0
 472.506835938 774 472.506835938 774 452.5 774 c 0
 432.493164062 774 432.493164062 774 418.817382812 787.080078125 c 0
 405 800.296875 405 800.296875 405 820.5 c 0
 405 840.604492188 405 840.604492188 418.697265625 854.302734375 c 0
 432.395507812 868 432.395507812 868 452.5 868 c 0
 472.604492188 868 472.604492188 868 486.302734375 854.302734375 c 0
EndSplineSet
Refer: 51 85 N 1 0 0 1 0 0 0
EndChar

StartChar: Ugrave
Encoding: 217 217 55
Width: 767
GlyphClass: 2
Flags: W
LayerCount: 2
Fore
SplineSet
272.047851562 891.440429688 m 1
 473.252929688 788.697265625 l 1
 451.166992188 741.465820312 l 1
 239 825.045898438 l 1
 272.047851562 891.440429688 l 1
EndSplineSet
Refer: 51 85 N 1 0 0 1 0 0 0
EndChar

StartChar: V
Encoding: 86 86 56
Width: 576
GlyphClass: 2
Flags: W
LayerCount: 2
Fore
SplineSet
565.67578125 685 m 1,0,-1
 331.805878948 0 l 1,1,-1
 250.811549495 -0 l 1,2,-1
 16 685 l 1,3,-1
 96.875 685 l 1,4,-1
 291.843896673 79.7900390625 l 1,5,-1
 487.823242188 685 l 1,6,-1
 565.67578125 685 l 1,0,-1
EndSplineSet
EndChar

StartChar: W
Encoding: 87 87 57
Width: 855
GlyphClass: 2
Flags: W
LayerCount: 2
Fore
SplineSet
827.65625 685 m 1,0,-1
 659.37109375 -0 l 1,1,-1
 572.435546875 -0 l 1,2,-1
 428.334960938 593.697265625 l 1,3,-1
 269.233398438 0 l 1,4,-1
 184.306640625 -0 l 1,5,-1
 30 685 l 1,6,-1
 106.444335938 685 l 1,7,-1
 230.857421875 83.03125 l 1,8,-1
 389.411132812 685 l 1,9,-1
 468.23046875 685 l 1,10,-1
 614.767578125 82.568359375 l 1,11,-1
 755.234375 685 l 1,12,-1
 827.65625 685 l 1,0,-1
EndSplineSet
EndChar

StartChar: X
Encoding: 88 88 58
Width: 544
GlyphClass: 2
Flags: W
LayerCount: 2
Fore
SplineSet
275.384765625 415.784179688 m 1,0,-1
 434.500976562 685 l 1,1,-1
 517.044921875 685 l 1,2,-1
 321.233355445 370.33984375 l 1,3,-1
 544.869140625 0 l 1,4,-1
 459.461914062 0 l 1,5,-1
 274.377135128 320.90625 l 1,6,-1
 92.3427734375 0 l 1,7,-1
 10 0 l 1,8,-1
 228.503106721 367.374023438 l 1,9,-1
 30.716796875 685 l 1,10,-1
 116.268554688 685 l 1,11,-1
 275.384765625 415.784179688 l 1,0,-1
EndSplineSet
EndChar

StartChar: Y
Encoding: 89 89 59
Width: 553
GlyphClass: 2
Flags: W
LayerCount: 2
Fore
SplineSet
283.903439357 330.235351562 m 1,0,-1
 467.75 685 l 1,1,-1
 548.754882812 685 l 1,2,-1
 320.958329285 267.799804688 l 1,3,-1
 320.958329285 0 l 1,4,-1
 242.795909375 0 l 1,5,-1
 242.795909375 266.810546875 l 1,6,-1
 13 685 l 1,7,-1
 97.009765625 685 l 1,8,-1
 283.903439357 330.235351562 l 1,0,-1
EndSplineSet
EndChar

StartChar: Yacute
Encoding: 221 221 60
Width: 638
GlyphClass: 2
Flags: W
LayerCount: 2
Fore
SplineSet
396.528320312 891.440429688 m 1
 429.576171875 825.045898438 l 1
 217.409179688 741.465820312 l 1
 195.323242188 788.697265625 l 1
 396.528320312 891.440429688 l 1
EndSplineSet
Refer: 59 89 N 1 0 0 1 0 0 0
EndChar

StartChar: Z
Encoding: 90 90 61
Width: 546
GlyphClass: 2
Flags: W
LayerCount: 2
Fore
SplineSet
73 685 m 1,0,-1
 498 685 l 1,1,-1
 498 629.7109375 l 1,2,-1
 498 627.608398438 l 1,3,-1
 125.024414062 66.54296875 l 1,4,-1
 493.217773438 66.54296875 l 1,5,-1
 482.954101562 0 l 1,6,-1
 35 0 l 1,7,-1
 35 58.25 l 1,8,-1
 410.916992188 618 l 1,9,-1
 73 618 l 1,10,-1
 73 685 l 1,0,-1
EndSplineSet
EndChar

StartChar: a
Encoding: 97 97 62
Width: 566
GlyphClass: 2
Flags: W
LayerCount: 2
Fore
SplineSet
115.98046875 276.614257812 m 128,-1,1
 175.9609375 321.5 175.9609375 321.5 288.506704178 321.5 c 2,2,-1
 388 321.5 l 1,3,-1
 388 362.908203125 l 2,4,5
 388 419.961914062 388 419.961914062 360.263792995 445.0078125 c 128,-1,6
 332.493536777 470 332.493536777 470 267.614614627 470 c 128,-1,7
 202.735692477 470 202.735692477 470 120.07421875 440.454101562 c 2,8,-1
 112.875 437.8203125 l 1,9,-1
 93.09765625 495.833007812 l 1,10,-1
 99.732421875 498.471679688 l 2,11,12
 190.060183865 534 190.060183865 534 274.510654855 534 c 128,-1,13
 359.0988574 534 359.0988574 534 405.31640625 500.5546875 c 0,14,15
 461 458.466796875 461 458.466796875 461 365.137695312 c 2,16,-1
 461 119.874023438 l 2,17,18
 461 81.943359375 461 81.943359375 470.331054688 66.375 c 128,-1,19
 479.662109375 50.806640625 479.662109375 50.806640625 500.228515625 42.9736328125 c 2,20,-1
 506.7734375 40.4814453125 l 1,21,-1
 489.629882812 -12.1396484375 l 1,22,-1
 483.0625 -10.8623046875 l 2,23,24
 444.770507812 -3.4169921875 444.770507812 -3.4169921875 423.630859375 18.265625 c 0,25,26
 407.081054688 35.2392578125 407.081054688 35.2392578125 399.609375 65.2607421875 c 1,27,28
 340.184424758 -10.5 340.184424758 -10.5 229.292649348 -11 c 0,29,30
 147.446289062 -11 147.446289062 -11 101.759765625 32.6513671875 c 0,31,32
 56.5 76.525390625 56.5 76.525390625 56 148.893554688 c 0,33,0
 56 231.728515625 56 231.728515625 115.98046875 276.614257812 c 128,-1,1
388 134.520507812 m 1,34,-1
 388 264.5 l 1,35,-1
 298.196276787 264.5 l 2,36,37
 214.722543313 264.5 214.722543313 264.5 172.483398438 236.346679688 c 0,38,39
 133 208.193359375 133 208.193359375 133 151.954101562 c 0,40,41
 133 102.78515625 133 102.78515625 159.802734375 76.892578125 c 0,42,43
 187.41699967 51 187.41699967 51 240.058841135 51 c 0,44,45
 335.609844634 51 335.609844634 51 388 134.520507812 c 1,34,-1
EndSplineSet
Substitution2: "Single Substitution lookup 19 subtable" ordfeminine
EndChar

StartChar: aacute
Encoding: 225 225 63
Width: 651
GlyphClass: 2
Flags: W
LayerCount: 2
Fore
SplineSet
371.462890625 785.7421875 m 1
 404.481445312 719.407226562 l 1
 196.004882812 628.533203125 l 1
 170 675.366210938 l 1
 371.462890625 785.7421875 l 1
EndSplineSet
Refer: 62 97 N 1 0 0 1 0 0 0
EndChar

StartChar: acircumflex
Encoding: 226 226 64
Width: 651
GlyphClass: 2
Flags: W
LayerCount: 2
Fore
SplineSet
271.970703125 779 m 1
 310.635742188 779 l 1
 313.284179688 779 l 1
 451.290039062 669.19921875 l 1
 415.974609375 626.7734375 l 1
 292.653320312 712.694335938 l 1
 170.314453125 626.76953125 l 1
 135 669.1953125 l 1
 271.970703125 779 l 1
EndSplineSet
Refer: 62 97 N 1 0 0 1 0 0 0
EndChar

StartChar: adieresis
Encoding: 228 228 65
Width: 651
GlyphClass: 2
Flags: W
LayerCount: 2
Fore
SplineSet
229.302734375 728.302734375 m 0
 243 714.604492188 243 714.604492188 243 694.5 c 0
 243 674.296875 243 674.296875 229.182617188 661.080078125 c 0
 215.506835938 648 215.506835938 648 195.5 648 c 0
 175.493164062 648 175.493164062 648 161.817382812 661.080078125 c 0
 148 674.296875 148 674.296875 148 694.5 c 0
 148 714.604492188 148 714.604492188 161.697265625 728.302734375 c 0
 175.395507812 742 175.395507812 742 195.5 742 c 0
 215.604492188 742 215.604492188 742 229.302734375 728.302734375 c 0
418.302734375 728.302734375 m 0
 432 714.604492188 432 714.604492188 432 694.5 c 0
 432 674.296875 432 674.296875 418.182617188 661.080078125 c 0
 404.506835938 648 404.506835938 648 384.5 648 c 0
 364.493164062 648 364.493164062 648 350.817382812 661.080078125 c 0
 337 674.296875 337 674.296875 337 694.5 c 0
 337 714.604492188 337 714.604492188 350.697265625 728.302734375 c 0
 364.395507812 742 364.395507812 742 384.5 742 c 0
 404.604492188 742 404.604492188 742 418.302734375 728.302734375 c 0
EndSplineSet
Refer: 62 97 N 1 0 0 1 0 0 0
EndChar

StartChar: agrave
Encoding: 224 224 66
Width: 651
GlyphClass: 2
Flags: W
LayerCount: 2
Fore
SplineSet
213.025390625 785.7421875 m 1
 414.33984375 675.447265625 l 1
 389.6328125 628.4765625 l 1
 180 719.388671875 l 1
 213.025390625 785.7421875 l 1
EndSplineSet
Refer: 62 97 N 1 0 0 1 0 0 0
EndChar

StartChar: aring
Encoding: 229 229 67
Width: 651
GlyphClass: 2
Flags: W
LayerCount: 2
Fore
SplineSet
366.202148438 792.400390625 m 0
 396 763.686523438 396 763.686523438 396 719.5 c 0
 396 675.313476562 396 675.313476562 366.202148438 646.599609375 c 0
 336.5234375 618 336.5234375 618 290 618 c 0
 243.4765625 618 243.4765625 618 213.797851562 646.599609375 c 0
 184 675.313476562 184 675.313476562 184 719.5 c 0
 184 763.686523438 184 763.686523438 213.797851562 792.400390625 c 0
 243.4765625 821 243.4765625 821 290 821 c 0
 336.5234375 821 336.5234375 821 366.202148438 792.400390625 c 0
290 669 m 0
 313.3203125 669 313.3203125 669 325.608398438 681.7109375 c 0
 338 694.530273438 338 694.530273438 338 719.03515625 c 0
 338 743.541015625 338 743.541015625 325.624023438 756.770507812 c 0
 313.248046875 770 313.248046875 770 290 770 c 0
 266.751953125 770 266.751953125 770 254.375976562 756.770507812 c 0
 242 743.541015625 242 743.541015625 242 719.03515625 c 0
 242 694.530273438 242 694.530273438 254.391601562 681.7109375 c 0
 266.6796875 669 266.6796875 669 290 669 c 0
EndSplineSet
Refer: 62 97 N 1 0 0 1 0 0 0
EndChar

StartChar: atilde
Encoding: 227 227 68
Width: 666
GlyphClass: 2
Flags: W
LayerCount: 2
Fore
SplineSet
252.176985273 692.454101562 m 0
 242.603515625 697 242.603515625 697 234.299804688 697 c 0
 219.82421875 697 219.82421875 697 208.833007812 688.646484375 c 0
 197.841796875 680.29296875 197.841796875 680.29296875 184.544921875 660.34765625 c 2
 180.866210938 654.830078125 l 1
 132 679.263671875 l 1
 135.70703125 686.077148438 l 2
 174.841796875 758 174.841796875 758 234.299804688 758 c 0
 252.939294391 758 252.939294391 758 271.298335368 751.586914062 c 0
 289.656219579 745.173828125 289.656219579 745.173828125 311.615117876 732.828125 c 0
 332.372135789 722.125 332.372135789 722.125 344.261381783 717.5625 c 0
 354.926757812 713 354.926757812 713 367.298828125 713 c 0
 379.670898438 713 379.670898438 713 390.671875 721.801757812 c 0
 401.673828125 730.602539062 401.673828125 730.602539062 419.671875 758.200195312 c 1
 468.288085938 733.891601562 l 1
 465.048828125 727.228515625 l 2
 427.994140625 651 427.994140625 651 366.299804688 651 c 0
 346.456924582 651 346.456924582 651 327.594690181 657.900390625 c 0
 306.159807105 665.741210938 306.159807105 665.741210938 284.822092413 676.825195312 c 0
 263.485534488 687.908203125 263.485534488 687.908203125 252.176985273 692.454101562 c 0
EndSplineSet
Refer: 62 97 N 1 0 0 1 0 0 0
EndChar

StartChar: ae
Encoding: 230 230 69
Width: 877
GlyphClass: 2
Flags: W
LayerCount: 2
Fore
SplineSet
764.60546875 465.709960938 m 128,-1,1
 818 397.418945312 818 397.418945312 818 279.802734375 c 0,2,3
 818 257.96484375 818 257.96484375 815.288085938 231.5 c 1,4,-1
 460.539709689 231.5 l 1,5,6
 465.889735115 141.818359375 465.889735115 141.818359375 507.758887297 97.4091796875 c 128,-1,7
 549.628039479 53 549.628039479 53 619.236686391 53 c 0,8,9
 659.991794564 53 659.991794564 53 691.775228828 65.05859375 c 0,10,11
 722.825195312 77.1181640625 722.825195312 77.1181640625 758.005859375 103.50390625 c 2,12,-1
 763.973632812 107.979492188 l 1,13,-1
 800.830078125 59.2763671875 l 1,14,-1
 795.252929688 54.69921875 l 2,15,16
 755.317382812 21.9326171875 755.317382812 21.9326171875 712.694335938 5.4990234375 c 0,17,18
 669.06803578 -11 669.06803578 -11 616.147928994 -11 c 0,19,20
 549.209770248 -11 549.209770248 -11 498.517751479 17.5048828125 c 0,21,22
 452.709227071 43.263671875 452.709227071 43.263671875 423.877808339 89.6689453125 c 1,23,24
 384.717351609 38.6123046875 384.717351609 38.6123046875 338.234166975 13.8056640625 c 128,-1,25
 291.751987796 -11 291.751987796 -11 229.023668639 -11 c 0,26,27
 148.446289062 -11 148.446289062 -11 102.259765625 33.1435546875 c 128,-1,28
 56 77.357421875 56 77.357421875 56 148.904296875 c 0,29,30
 56 231.7578125 56 231.7578125 116.986328125 277.12890625 c 128,-1,31
 178.032024316 322.5 178.032024316 322.5 285.650887574 322.5 c 2,32,-1
 380.887573964 322.5 l 1,33,-1
 380.887573964 362.943359375 l 2,34,35
 380.887573964 419.940429688 380.887573964 419.940429688 353.806652182 444.970703125 c 128,-1,36
 326.726735854 470 326.726735854 470 265.176809819 470 c 128,-1,37
 203.626883783 470 203.626883783 470 122.07421875 440.454101562 c 2,38,-1
 115.018554688 437.873046875 l 1,39,-1
 93.9619140625 495.779296875 l 1,40,-1
 100.732421875 498.471679688 l 2,41,42
 190.475533931 534 190.475533931 534 271.236686391 534 c 0,43,44
 341.488824427 534 341.488824427 534 383.561078495 507.282226562 c 0,45,46
 419.517150518 484.448242188 419.517150518 484.448242188 437.500716531 443.103515625 c 1,47,48
 495.530545026 534 495.530545026 534 607.911242604 534 c 0,49,0
 711.209960938 534 711.209960938 534 764.60546875 465.709960938 c 128,-1,1
745 291.5 m 1,50,-1
 745 298.69921875 l 2,51,52
 745 380.830078125 745 380.830078125 710.840820312 425.915039062 c 0,53,54
 676.050919933 471 676.050919933 471 606.881656805 471 c 0,55,56
 543.639550203 471 543.639550203 471 504.71135355 426.193359375 c 128,-1,57
 465.782151442 381.38671875 465.782151442 381.38671875 460.534682415 291.5 c 1,58,-1
 745 291.5 l 1,50,-1
380.887573964 256.288085938 m 2,59,-1
 380.887573964 264.5 l 1,60,-1
 293.887573964 264.5 l 2,61,62
 215.098118528 264.5 215.098118528 264.5 173.987304688 235.868164062 c 0,63,64
 134 207.236328125 134 207.236328125 134 151.954101562 c 0,65,66
 134 102.78515625 134 102.78515625 160.802734375 76.892578125 c 0,67,68
 187.947820359 51 187.947820359 51 237.709793362 51 c 128,-1,69
 287.47076091 51 287.47076091 51 323.949669471 73.3623046875 c 128,-1,70
 360.428578033 95.724609375 360.428578033 95.724609375 396.664166513 146.399414062 c 1,71,72
 381.402366864 198.32421875 381.402366864 198.32421875 380.887573964 256.288085938 c 2,59,-1
EndSplineSet
EndChar

StartChar: b
Encoding: 98 98 70
Width: 611
GlyphClass: 2
Flags: W
LayerCount: 2
Fore
SplineSet
179 463.86328125 m 1,0,1
 241.146473584 534 241.146473584 534 336.994475138 534 c 0,2,3
 438.358398438 534 438.358398438 534 490.1796875 463.39453125 c 128,-1,4
 542 392.7890625 542 392.7890625 542 265.399414062 c 128,-1,5
 542 138.009765625 542 138.009765625 487.686523438 63.5048828125 c 128,-1,6
 433.374023438 -11 433.374023438 -11 328.331491713 -11 c 0,7,8
 275.364835117 -11 275.364835117 -11 231.864856699 10.9111328125 c 0,9,10
 199.833007812 28.138671875 199.833007812 28.138671875 176.3046875 54.5087890625 c 1,11,-1
 171.349609375 0 l 1,12,-1
 106 0 l 1,13,-1
 106 735.149414062 l 1,14,-1
 179 743.959960938 l 1,15,-1
 179 463.86328125 l 1,0,1
428.248046875 104.9921875 m 0,16,17
 465 157.984375 465 157.984375 465 263.9140625 c 0,18,19
 465 471 465 471 324 471 c 0,20,21
 275.637668336 471 275.637668336 471 240.896905214 449.592773438 c 0,22,23
 207.633789062 428.157226562 207.633789062 428.157226562 179 389.063476562 c 1,24,-1
 179 127.994140625 l 1,25,26
 202.747070312 92.9345703125 202.747070312 92.9345703125 236.530516229 72.466796875 c 0,27,28
 272.241000518 52 272.241000518 52 316.419889503 52 c 0,29,30
 388.968145718 52 388.968145718 52 428.248046875 104.9921875 c 0,16,17
EndSplineSet
EndChar

StartChar: c
Encoding: 99 99 71
Width: 499
GlyphClass: 2
Flags: W
LayerCount: 2
Fore
SplineSet
370.439453125 459.44921875 m 0,0,1
 343.728669819 469 343.728669819 469 306.677944862 469 c 0,2,3
 229.333764098 469 229.333764098 469 183.1015625 415.904296875 c 0,4,5
 141 362.80859375 141 362.80859375 141 259.620117188 c 128,-1,6
 141 156.430664062 141 156.430664062 182.564453125 105.71484375 c 0,7,8
 228.151854245 55 228.151854245 55 305.577694236 55 c 0,9,10
 342.545685503 55 342.545685503 55 370.458984375 65.5595703125 c 0,11,12
 397.818359375 76.119140625 397.818359375 76.119140625 425.973632812 97.478515625 c 2,13,-1
 432.1015625 102.127929688 l 1,14,-1
 468.625 51.2568359375 l 1,15,-1
 463.34765625 46.779296875 l 2,16,17
 395.250976562 -11 395.250976562 -11 304.477443609 -11 c 0,18,19
 228.346332139 -11 228.346332139 -11 172.46484375 21.2900390625 c 0,20,21
 120.587890625 53.6015625 120.587890625 53.6015625 92.2939453125 114.180664062 c 128,-1,22
 64 174.760742188 64 174.760742188 64 257.583984375 c 128,-1,23
 64 340.408203125 64 340.408203125 92.25 402.892578125 c 128,-1,24
 120.5 465.377929688 120.5 465.377929688 172.290039062 499.651367188 c 0,25,26
 228.221694373 534 228.221694373 534 303.377192982 534 c 0,27,28
 353.803710938 534 353.803710938 534 390.020507812 521.065429688 c 128,-1,29
 426.303710938 508.107421875 426.303710938 508.107421875 460.34765625 479.220703125 c 2,30,-1
 465.78125 474.611328125 l 1,31,-1
 427.78515625 424.823242188 l 1,32,-1
 421.79296875 429.663085938 l 2,33,34
 396.767578125 449.875 396.767578125 449.875 370.439453125 459.44921875 c 0,0,1
EndSplineSet
EndChar

StartChar: ccedilla
Encoding: 231 231 72
Width: 499
GlyphClass: 2
Flags: W
LayerCount: 2
Fore
SplineSet
396.15234375 -75.935546875 m 128,-1,1
 420 -97.1337890625 420 -97.1337890625 420 -132.5 c 0,2,3
 420 -177.19921875 420 -177.19921875 387.521484375 -202.099609375 c 128,-1,4
 355.04296875 -227 355.04296875 -227 301.89883026 -227 c 0,5,6
 248.103318499 -227 248.103318499 -227 210.839194902 -204.775390625 c 2,7,-1
 204.695127465 -201.110351562 l 1,8,-1
 231.63747565 -152.138671875 l 1,9,-1
 239.163367278 -155.939453125 l 2,10,11
 267.011530233 -170 267.011530233 -170 302.282431532 -170 c 0,12,13
 326.060337849 -170 326.060337849 -170 340.304087054 -160.813476562 c 0,14,15
 354 -151.626953125 354 -151.626953125 354 -133.357421875 c 128,-1,16
 354 -115.087890625 354 -115.087890625 335.392486449 -106.181640625 c 0,17,18
 313.496053039 -96 313.496053039 -96 264.872174117 -96 c 2,19,-1
 255.825846074 -96 l 1,20,-1
 264.726040299 -8.0380859375 l 1,21,22
 169.268554688 3.98046875 169.268554688 3.98046875 116.634765625 72.92578125 c 128,-1,23
 64 141.872070312 64 141.872070312 64 258.133789062 c 0,24,25
 64 340.436523438 64 340.436523438 92.25 402.912109375 c 128,-1,26
 120.5 465.387695312 120.5 465.387695312 172.290039062 499.65625 c 0,27,28
 228.22374668 534 228.22374668 534 303.382733221 534 c 0,29,30
 353.803710938 534 353.803710938 534 390.020507812 521.065429688 c 128,-1,31
 426.303710938 508.107421875 426.303710938 508.107421875 460.34765625 479.220703125 c 2,32,-1
 465.78125 474.611328125 l 1,33,-1
 427.78515625 424.823242188 l 1,34,-1
 421.79296875 429.663085938 l 2,35,36
 396.767578125 449.875 396.767578125 449.875 370.439453125 459.44921875 c 0,37,38
 343.73608275 469 343.73608275 469 306.683638287 469 c 0,39,40
 229.335868016 469 229.335868016 469 183.1015625 415.904296875 c 0,41,42
 141 362.80859375 141 362.80859375 141 259.620117188 c 128,-1,43
 141 156.430664062 141 156.430664062 182.564453125 105.71484375 c 0,44,45
 228.153903311 55 228.153903311 55 305.583336598 55 c 0,46,47
 342.553043532 55 342.553043532 55 370.458984375 65.5595703125 c 0,48,49
 397.818359375 76.119140625 397.818359375 76.119140625 425.973632812 97.478515625 c 2,50,-1
 432.1015625 102.127929688 l 1,51,-1
 468.548828125 51.361328125 l 1,52,-1
 463.455078125 46.8720703125 l 2,53,54
 405.188476562 -4.482421875 405.188476562 -4.482421875 325.938917839 -10.5322265625 c 1,55,-1
 325.938917839 -49.7060546875 l 1,56,0
 372.3046875 -54.7373046875 372.3046875 -54.7373046875 396.15234375 -75.935546875 c 128,-1,1
EndSplineSet
EndChar

StartChar: d
Encoding: 100 100 73
Width: 615
GlyphClass: 2
Flags: W
LayerCount: 2
Fore
SplineSet
436 743.959960938 m 1,0,-1
 509 735.149414062 l 1,1,-1
 509 0 l 1,2,-1
 444.626953125 0 l 1,3,-1
 438.912109375 65.3154296875 l 1,4,5
 383.054054054 -10.5 383.054054054 -10.5 279.903716216 -10.75 c 0,6,7
 177.671875 -10.9931640625 177.671875 -10.9931640625 123.3359375 62.03125 c 128,-1,8
 69 135.055664062 69 135.055664062 69 259.0703125 c 0,9,10
 69 339.29296875 69 339.29296875 94.1494140625 401.23046875 c 128,-1,11
 119.298828125 463.168945312 119.298828125 463.168945312 167.646484375 498.583984375 c 0,12,13
 218.18285473 534 218.18285473 534 289 534 c 0,14,15
 378.170185811 534 378.170185811 534 436 475.2109375 c 1,16,-1
 436 743.959960938 l 1,0,-1
436 399.649414062 m 1,17,18
 382.144003378 471 382.144003378 471 299.810810811 471 c 0,19,20
 227.263302365 471 227.263302365 471 185.138671875 417.12109375 c 0,21,22
 145.9765625 363.369140625 145.9765625 363.369140625 145.9765625 264.932617188 c 0,23,24
 145.9765625 262.540039062 145.9765625 262.540039062 146 260.120117188 c 0,25,26
 146 157.9609375 146 157.9609375 182.266601562 104.98046875 c 0,27,28
 220.927787162 52 220.927787162 52 289 52 c 0,29,30
 340.512880068 52 340.512880068 52 375.729307432 73.8779296875 c 0,31,32
 409.225585938 95.7060546875 409.225585938 95.7060546875 436 140.340820312 c 1,33,-1
 436 399.649414062 l 1,17,18
EndSplineSet
EndChar

StartChar: eth
Encoding: 240 240 74
Width: 586
GlyphClass: 2
Flags: W
LayerCount: 2
Fore
SplineSet
423.390625 723.87109375 m 1,0,-1
 354.825890743 657.282226562 l 1,1,2
 439.198242188 594.967773438 439.198242188 594.967773438 478.099609375 505.704101562 c 128,-1,3
 517 416.440429688 517 416.440429688 517 279.48046875 c 128,-1,4
 517 142.520507812 517 142.520507812 457.104492188 65.7607421875 c 128,-1,5
 397.209960938 -11 397.209960938 -11 289.582874645 -11 c 128,-1,6
 182.0859375 -11 182.0859375 -11 123.04296875 55.2490234375 c 128,-1,7
 64 121.497070312 64 121.497070312 64 234.572265625 c 0,8,9
 64 296.590820312 64 296.590820312 87.185546875 350.421875 c 128,-1,10
 110.372070312 404.25390625 110.372070312 404.25390625 156.186523438 437.8046875 c 0,11,12
 203.365737453 471.356445312 203.365737453 471.356445312 272.75 471.356445312 c 0,13,14
 365.565607244 471.356445312 365.565607244 471.356445312 431.817382812 409.1953125 c 1,15,16
 420.013671875 467.322265625 420.013671875 467.322265625 394.19399562 513.784179688 c 0,17,18
 362.607273911 567.028320312 362.607273911 567.028320312 305.547999527 610.383789062 c 1,19,-1
 223.945904356 534.528320312 l 1,20,-1
 164.721679688 560.047851562 l 1,21,-1
 249.67689098 643.389648438 l 1,22,23
 185.259602865 673.098632812 185.259602865 673.098632812 134.048828125 683.140625 c 2,24,-1
 126.068359375 684.708007812 l 1,25,-1
 143.158203125 745.182617188 l 1,26,-1
 149.940429688 743.861328125 l 2,27,28
 228.397061435 729.186523438 228.397061435 729.186523438 300.320490057 690.96484375 c 1,29,-1
 375.524769176 764.926757812 l 1,30,-1
 423.390625 723.87109375 l 1,0,-1
403.716796875 112.362304688 m 0,31,32
 443 172.724609375 443 172.724609375 443 289.5 c 0,33,34
 443 308.459960938 443 308.459960938 441.169921875 334.822265625 c 1,35,36
 376.35995206 421 376.35995206 421 281.356060606 421 c 0,37,38
 210.268865412 421 210.268865412 421 173.709960938 371.075195312 c 0,39,40
 139 321.150390625 139 321.150390625 139 241.5 c 0,41,42
 139 150.04296875 139 150.04296875 176.599609375 101.021484375 c 0,43,44
 216.485987808 52 216.485987808 52 289.225689512 52 c 128,-1,45
 361.965391217 52 361.965391217 52 403.716796875 112.362304688 c 0,31,32
EndSplineSet
EndChar

StartChar: e
Encoding: 101 101 75
Width: 566
GlyphClass: 2
Flags: W
LayerCount: 2
Fore
SplineSet
402.122070312 5.470703125 m 0,0,1
 357.754004945 -11 357.754004945 -11 302.236702128 -11 c 0,2,3
 186.140593833 -11 186.140593833 -11 124.991210938 60.4306640625 c 128,-1,4
 64 131.860351562 64 131.860351562 64 257.120117188 c 0,5,6
 64 339.33203125 64 339.33203125 90.1806640625 401.78125 c 128,-1,7
 116.360351562 464.229492188 116.360351562 464.229492188 165.712890625 499.115234375 c 0,8,9
 217.544054397 534 217.544054397 534 288.199468085 534 c 0,10,11
 399.188476562 534 399.188476562 534 453.09375 465.71875 c 128,-1,12
 507 397.438476562 507 397.438476562 507 279.802734375 c 0,13,14
 507 257.96484375 507 257.96484375 504.288085938 231.5 c 1,15,-1
 141.440429688 231.5 l 1,16,17
 147.548828125 141.830078125 147.548828125 141.830078125 188.557461353 97.4150390625 c 0,18,19
 232.473378283 53 232.473378283 53 305.47606383 53 c 0,20,21
 348.195146277 53 348.195146277 53 381.016882064 65.0625 c 0,22,23
 411.85546875 77.1240234375 411.85546875 77.1240234375 448.0859375 103.5625 c 2,24,-1
 454.137695312 107.978515625 l 1,25,-1
 489.734375 59.197265625 l 1,26,-1
 484.252929688 54.69921875 l 2,27,28
 444.329101562 21.9423828125 444.329101562 21.9423828125 402.122070312 5.470703125 c 0,0,1
435 291.5 m 1,29,-1
 435 298.69921875 l 2,30,31
 435 380.803710938 435 380.803710938 400.356445312 425.90234375 c 0,32,33
 364.014451047 471 364.014451047 471 290.359042553 471 c 0,34,35
 224.06390251 471 224.06390251 471 183.770507812 426.206054688 c 0,36,37
 146.4375 381.411132812 146.4375 381.411132812 141.358398438 291.5 c 1,38,-1
 435 291.5 l 1,29,-1
EndSplineSet
EndChar

StartChar: eacute
Encoding: 233 233 76
Width: 651
GlyphClass: 2
Flags: W
LayerCount: 2
Fore
SplineSet
389.462890625 785.7421875 m 1
 422.481445312 719.407226562 l 1
 214.004882812 628.533203125 l 1
 188 675.366210938 l 1
 389.462890625 785.7421875 l 1
EndSplineSet
Refer: 75 101 N 1 0 0 1 0 0 0
EndChar

StartChar: ecircumflex
Encoding: 234 234 77
Width: 651
GlyphClass: 2
Flags: W
LayerCount: 2
Fore
SplineSet
289.970703125 779 m 1
 328.635742188 779 l 1
 331.284179688 779 l 1
 469.290039062 669.19921875 l 1
 433.974609375 626.7734375 l 1
 310.653320312 712.694335938 l 1
 188.314453125 626.76953125 l 1
 153 669.1953125 l 1
 289.970703125 779 l 1
EndSplineSet
Refer: 75 101 N 1 0 0 1 0 0 0
EndChar

StartChar: edieresis
Encoding: 235 235 78
Width: 651
GlyphClass: 2
Flags: W
LayerCount: 2
Fore
SplineSet
247.302734375 728.302734375 m 0
 261 714.604492188 261 714.604492188 261 694.5 c 0
 261 674.296875 261 674.296875 247.182617188 661.080078125 c 0
 233.506835938 648 233.506835938 648 213.5 648 c 0
 193.493164062 648 193.493164062 648 179.817382812 661.080078125 c 0
 166 674.296875 166 674.296875 166 694.5 c 0
 166 714.604492188 166 714.604492188 179.697265625 728.302734375 c 0
 193.395507812 742 193.395507812 742 213.5 742 c 0
 233.604492188 742 233.604492188 742 247.302734375 728.302734375 c 0
436.302734375 728.302734375 m 0
 450 714.604492188 450 714.604492188 450 694.5 c 0
 450 674.296875 450 674.296875 436.182617188 661.080078125 c 0
 422.506835938 648 422.506835938 648 402.5 648 c 0
 382.493164062 648 382.493164062 648 368.817382812 661.080078125 c 0
 355 674.296875 355 674.296875 355 694.5 c 0
 355 714.604492188 355 714.604492188 368.697265625 728.302734375 c 0
 382.395507812 742 382.395507812 742 402.5 742 c 0
 422.604492188 742 422.604492188 742 436.302734375 728.302734375 c 0
EndSplineSet
Refer: 75 101 N 1 0 0 1 0 0 0
EndChar

StartChar: egrave
Encoding: 232 232 79
Width: 651
GlyphClass: 2
Flags: W
LayerCount: 2
Fore
SplineSet
231.025390625 785.7421875 m 1
 432.33984375 675.447265625 l 1
 407.6328125 628.4765625 l 1
 198 719.388671875 l 1
 231.025390625 785.7421875 l 1
EndSplineSet
Refer: 75 101 N 1 0 0 1 0 0 0
EndChar

StartChar: f
Encoding: 102 102 80
Width: 351
GlyphClass: 2
Flags: W
LayerCount: 2
Fore
SplineSet
212.338623744 661.12109375 m 128,-1,1
 189.871550904 642.243164062 189.871550904 642.243164062 189.871550904 599.5 c 2,2,-1
 189.871550904 523 l 1,3,-1
 339.385742188 523 l 1,4,-1
 328.83203125 461 l 1,5,-1
 189.871550904 461 l 1,6,-1
 185 0 l 1,7,-1
 112 0 l 1,8,-1
 112 461 l 1,9,-1
 21 461 l 1,10,-1
 21 523 l 1,11,-1
 112 523 l 1,12,-1
 112 601.5 l 2,13,14
 112 666.752929688 112 666.752929688 154.073703903 704.876953125 c 0,15,16
 199.359287404 743 199.359287404 743 278.173557651 743 c 0,17,18
 342.141601562 743 342.141601562 743 404.622070312 714.3203125 c 2,19,-1
 411.48046875 711.171875 l 1,20,-1
 385.197265625 654.663085938 l 1,21,-1
 378.471679688 657.637695312 l 2,22,23
 327.913085938 680 327.913085938 680 283.375705159 680 c 0,24,0
 234.804611899 680 234.804611899 680 212.338623744 661.12109375 c 128,-1,1
EndSplineSet
EndChar

StartChar: g
Encoding: 103 103 81
Width: 533
GlyphClass: 2
Flags: W
LayerCount: 2
Fore
SplineSet
78.556640625 264.577148438 m 0,0,1
 56 301.400390625 56 301.400390625 56 354.116210938 c 0,2,3
 56 434.3359375 56 434.3359375 111.283203125 484.16796875 c 0,4,5
 167.416649538 534 167.416649538 534 262.016895891 534 c 0,6,7
 273.195481463 533.888671875 273.195481463 533.888671875 283.692205488 533.888671875 c 0,8,9
 367.296526287 533.888671875 367.296526287 533.888671875 410.018554688 541.314453125 c 0,10,11
 450.393554688 548.739257812 450.393554688 548.739257812 504.171875 570.479492188 c 1,12,-1
 527.046875 500.639648438 l 1,13,-1
 519.462890625 498.624023438 l 2,14,15
 477.50390625 487.47265625 477.50390625 487.47265625 399.385532628 484.4453125 c 1,16,17
 468.5 439.977539062 468.5 439.977539062 469 351.655273438 c 0,18,19
 469 272.888671875 469 272.888671875 415.724609375 224.194335938 c 0,20,21
 359.65075153 175.5 359.65075153 175.5 264.057291326 175.5 c 0,22,23
 223.609513451 175.5 223.609513451 175.5 192.74723519 184.795898438 c 1,24,25
 176.336893062 175.396484375 176.336893062 175.396484375 166.79394493 162.396484375 c 128,-1,26
 157.250996797 149.572265625 157.250996797 149.572265625 157.250996797 134.3828125 c 0,27,28
 157.250996797 89.3955078125 157.250996797 89.3955078125 237.488561344 89.3955078125 c 2,29,-1
 327.822243284 89.3955078125 l 2,30,31
 412.190429688 89.3955078125 412.190429688 89.3955078125 460.095703125 51.1982421875 c 128,-1,32
 508 13.0009765625 508 13.0009765625 508 -47.5 c 0,33,34
 508 -123.455078125 508 -123.455078125 448.409179688 -164.227539062 c 0,35,36
 387.675572456 -205 387.675572456 -205 262.96652042 -205 c 0,37,38
 139.12890625 -205 139.12890625 -205 86.064453125 -167.697265625 c 128,-1,39
 33 -130.39453125 33 -130.39453125 33 -47.5 c 2,40,-1
 33 -40 l 1,41,-1
 101.805664062 -40 l 1,42,-1
 101.997070312 -47.2998046875 l 2,43,44
 102.939453125 -83.0986328125 102.939453125 -83.0986328125 116.552734375 -103.065429688 c 128,-1,45
 130.166015625 -123.03125 130.166015625 -123.03125 164.011493168 -132.515625 c 0,46,47
 199.288747107 -142 199.288747107 -142 265.120040526 -142 c 0,48,49
 356.318244031 -142 356.318244031 -142 396.004246601 -118.193359375 c 0,50,51
 434 -94.38671875 434 -94.38671875 434 -50.5 c 0,52,53
 434 -13.2783203125 434 -13.2783203125 405.438221427 6.8662109375 c 0,54,55
 375.185155841 27.0107421875 375.185155841 27.0107421875 318.25750049 27.0107421875 c 2,56,-1
 227.92381855 27.0107421875 l 2,57,58
 159.304884166 27.0107421875 159.304884166 27.0107421875 122.966796875 54.2265625 c 0,59,60
 87 81.4423828125 87 81.4423828125 87 124.021484375 c 0,61,62
 87 151.543945312 87 151.543945312 103.212890625 175.782226562 c 0,63,64
 116.07421875 195.008789062 116.07421875 195.008789062 137.142578125 210.110351562 c 1,65,66
 98.4287109375 232.133789062 98.4287109375 232.133789062 78.556640625 264.577148438 c 0,0,1
360.854647107 442.30078125 m 128,-1,68
 327.608448035 474 327.608448035 474 261.931792928 474 c 128,-1,69
 196.321559645 474 196.321559645 474 162.97053863 441.291992188 c 0,70,71
 131 408.583984375 131 408.583984375 131 352.37109375 c 128,-1,72
 131 296.159179688 131 296.159179688 164.971496107 264.350585938 c 0,73,74
 200.370177445 232.5 200.370177445 232.5 263.492705814 232.5 c 128,-1,75
 326.614196342 232.5 326.614196342 232.5 360.405261948 263.791015625 c 128,-1,76
 394.24406824 295.127929688 394.24406824 295.127929688 394.24406824 352.795898438 c 128,-1,67
 394.24406824 410.46484375 394.24406824 410.46484375 360.854647107 442.30078125 c 128,-1,68
EndSplineSet
EndChar

StartChar: h
Encoding: 104 104 82
Width: 614
GlyphClass: 2
Flags: W
LayerCount: 2
Fore
SplineSet
472.926757812 490.405273438 m 0,0,1
 513 446.811523438 513 446.811523438 513 371.076171875 c 2,2,-1
 513 0 l 1,3,-1
 440 0 l 1,4,-1
 440 361.99609375 l 2,5,6
 440 411.950195312 440 411.950195312 420.547053639 439.100585938 c 0,7,8
 396.97350181 472 396.97350181 472 344.696622523 472 c 128,-1,9
 292.420779345 472 292.420779345 472 253.64232803 446.697265625 c 128,-1,10
 214.722965892 421.301757812 214.722965892 421.301757812 179 372.403320312 c 1,11,-1
 179 0 l 1,12,-1
 106 0 l 1,13,-1
 106 735.149414062 l 1,14,-1
 179 743.959960938 l 1,15,-1
 179 450.616210938 l 1,16,17
 251.795981803 534 251.795981803 534 354.591463415 534 c 0,18,19
 432.416718274 534 432.416718274 534 472.926757812 490.405273438 c 0,0,1
EndSplineSet
EndChar

StartChar: i
Encoding: 105 105 83
Width: 285
GlyphClass: 2
Flags: W
LayerCount: 2
Fore
SplineSet
178.802734375 738.802734375 m 128,-1,1
 193 724.604492188 193 724.604492188 193 703.5 c 128,-1,2
 193 682.395507812 193 682.395507812 178.802734375 668.197265625 c 128,-1,3
 164.604492188 654 164.604492188 654 142 654 c 128,-1,4
 119.395507812 654 119.395507812 654 105.197265625 668.197265625 c 128,-1,5
 91 682.395507812 91 682.395507812 91 703.5 c 128,-1,6
 91 724.604492188 91 724.604492188 105.197265625 738.802734375 c 128,-1,7
 119.395507812 753 119.395507812 753 142 753 c 128,-1,0
 164.604492188 753 164.604492188 753 178.802734375 738.802734375 c 128,-1,1
106 523 m 1,8,-1
 179 523 l 1,9,-1
 179 0 l 1,10,-1
 106 0 l 1,11,-1
 106 523 l 1,8,-1
EndSplineSet
Substitution2: "Single Substitution lookup 19 subtable" dotlessi
Substitution2: "'locl' Localized Forms in Latin lookup 6 subtable" i.loclTRK
Substitution2: "'locl' Localized Forms in Latin lookup 4 subtable" i.loclTRK
Substitution2: "'locl' Localized Forms in Latin lookup 2 subtable" i.loclTRK
Substitution2: "'locl' Localized Forms in Latin lookup 1 subtable" i.loclTRK
Substitution2: "'locl' Localized Forms in Latin lookup 0 subtable" i.loclTRK
EndChar

StartChar: dotlessi
Encoding: 305 305 84
Width: 285
GlyphClass: 2
Flags: W
LayerCount: 2
Fore
SplineSet
106 523 m 1,0,-1
 179 523 l 1,1,-1
 179 0 l 1,2,-1
 106 0 l 1,3,-1
 106 523 l 1,0,-1
EndSplineSet
EndChar

StartChar: iacute
Encoding: 237 237 85
Width: 285
GlyphClass: 2
Flags: W
LayerCount: 2
Fore
SplineSet
22 674.443359375 m 1,0,-1
 223.462890625 784.819335938 l 1,1,-1
 256.481445312 718.783203125 l 1,2,-1
 48.0048828125 627.908203125 l 1,3,-1
 22 674.443359375 l 1,0,-1
108.737304688 523 m 1,4,-1
 181.737304688 523 l 1,5,-1
 181.737304688 0 l 1,6,-1
 108.737304688 0 l 1,7,-1
 108.737304688 523 l 1,4,-1
EndSplineSet
EndChar

StartChar: icircumflex
Encoding: 238 238 86
Width: 285
GlyphClass: 2
Flags: W
LayerCount: 2
Fore
SplineSet
-13 667.51171875 m 1,0,-1
 123.970703125 779 l 1,1,-1
 165.284179688 779 l 1,2,-1
 303.290039062 667.534179688 l 1,3,-1
 267.974609375 625.426757812 l 1,4,-1
 144.653320312 711.34765625 l 1,5,-1
 22.314453125 625.407226562 l 1,6,-1
 -13 667.51171875 l 1,0,-1
109.135742188 523 m 1,7,-1
 182.135742188 523 l 1,8,-1
 182.135742188 0 l 1,9,-1
 109.135742188 0 l 1,10,-1
 109.135742188 523 l 1,7,-1
EndSplineSet
EndChar

StartChar: idieresis
Encoding: 239 239 87
Width: 285
GlyphClass: 2
Flags: W
LayerCount: 2
Fore
SplineSet
81.302734375 728.302734375 m 128,-1,1
 95 714.604492188 95 714.604492188 95 694.5 c 128,-1,2
 95 674.296875 95 674.296875 81.1826171875 661.080078125 c 128,-1,3
 67.5068359375 648 67.5068359375 648 47.5 648 c 128,-1,4
 27.4931640625 648 27.4931640625 648 13.8173828125 661.080078125 c 0,5,6
 0.5 674.5 0.5 674.5 0 694.5 c 0,7,8
 -0 714.604492188 -0 714.604492188 13.697265625 728.302734375 c 128,-1,9
 27.3955078125 742 27.3955078125 742 47.5 742 c 128,-1,0
 67.6044921875 742 67.6044921875 742 81.302734375 728.302734375 c 128,-1,1
270.302734375 728.302734375 m 128,-1,11
 284 714.604492188 284 714.604492188 284 694.5 c 128,-1,12
 284 674.296875 284 674.296875 270.182617188 661.080078125 c 128,-1,13
 256.506835938 648 256.506835938 648 236.5 648 c 128,-1,14
 216.493164062 648 216.493164062 648 202.817382812 661.080078125 c 128,-1,15
 189 674.296875 189 674.296875 189 694.5 c 128,-1,16
 189 714.604492188 189 714.604492188 202.697265625 728.302734375 c 128,-1,17
 216.395507812 742 216.395507812 742 236.5 742 c 128,-1,10
 256.604492188 742 256.604492188 742 270.302734375 728.302734375 c 128,-1,11
106 523 m 1,18,-1
 179 523 l 1,19,-1
 179 0 l 1,20,-1
 106 0 l 1,21,-1
 106 523 l 1,18,-1
EndSplineSet
EndChar

StartChar: igrave
Encoding: 236 236 89
Width: 285
GlyphClass: 2
Flags: W
LayerCount: 2
Fore
SplineSet
32 718.76953125 m 1,0,-1
 65.025390625 784.819335938 l 1,1,-1
 266.33984375 674.525390625 l 1,2,-1
 241.6328125 627.857421875 l 1,3,-1
 32 718.76953125 l 1,0,-1
108.750976562 523 m 1,4,-1
 181.750976562 523 l 1,5,-1
 181.750976562 0 l 1,6,-1
 108.750976562 0 l 1,7,-1
 108.750976562 523 l 1,4,-1
EndSplineSet
EndChar

StartChar: j
Encoding: 106 106 90
Width: 285
GlyphClass: 2
Flags: W
LayerCount: 2
Fore
SplineSet
180.85546875 738.802734375 m 128,-1,1
 195.053710938 724.604492188 195.053710938 724.604492188 195.053710938 703.5 c 128,-1,2
 195.053710938 682.395507812 195.053710938 682.395507812 180.85546875 668.197265625 c 128,-1,3
 166.658203125 654 166.658203125 654 144.053710938 654 c 128,-1,4
 121.44921875 654 121.44921875 654 107.250976562 668.197265625 c 128,-1,5
 93.0537109375 682.395507812 93.0537109375 682.395507812 93.0537109375 703.5 c 128,-1,6
 93.0537109375 724.604492188 93.0537109375 724.604492188 107.250976562 738.802734375 c 128,-1,7
 121.44921875 753 121.44921875 753 144.053710938 753 c 128,-1,0
 166.658203125 753 166.658203125 753 180.85546875 738.802734375 c 128,-1,1
181.053710938 523 m 1,8,-1
 181.053710938 23.8173828125 l 2,9,10
 181.053710938 -43.8603515625 181.053710938 -43.8603515625 165.478515625 -84.8994140625 c 0,11,12
 149.904296875 -126.951171875 149.904296875 -126.951171875 119.747070312 -152.428710938 c 128,-1,13
 89.58984375 -177.90625 89.58984375 -177.90625 35.640625 -202.3359375 c 2,14,-1
 28.53125 -205.555664062 l 1,15,-1
 6 -149.890625 l 1,16,17
 49.29296875 -128.244140625 49.29296875 -128.244140625 68.662109375 -110.764648438 c 128,-1,18
 88.0322265625 -93.2841796875 88.0322265625 -93.2841796875 98.04296875 -62.298828125 c 0,19,20
 108.053710938 -32.087890625 108.053710938 -32.087890625 108.053710938 22.3310546875 c 2,21,-1
 108.053710938 523 l 1,22,-1
 181.053710938 523 l 1,8,-1
EndSplineSet
EndChar

StartChar: uni0237
Encoding: 65540 -1 91
Width: 285
Flags: W
LayerCount: 2
Fore
SplineSet
181.053710938 523 m 1,0,-1
 181.053710938 21.86328125 l 2,1,2
 181.053710938 -46.0791015625 181.053710938 -46.0791015625 165.478515625 -87.279296875 c 128,-1,3
 149.904296875 -128.478515625 149.904296875 -128.478515625 119.747070312 -153.440429688 c 128,-1,4
 89.58984375 -178.401367188 89.58984375 -178.401367188 35.640625 -202.3359375 c 2,5,-1
 28.53125 -205.555664062 l 1,6,-1
 6 -151.013671875 l 1,7,8
 49.29296875 -129.803710938 49.29296875 -129.803710938 68.662109375 -112.676757812 c 128,-1,9
 88.0322265625 -95.5498046875 88.0322265625 -95.5498046875 98.04296875 -65.189453125 c 128,-1,10
 108.053710938 -34.8291015625 108.053710938 -34.8291015625 108.053710938 19.859375 c 2,11,-1
 108.053710938 523 l 1,12,-1
 181.053710938 523 l 1,0,-1
EndSplineSet
EndChar

StartChar: k
Encoding: 107 107 92
Width: 518
GlyphClass: 2
Flags: W
LayerCount: 2
Fore
SplineSet
259.352293446 287.962890625 m 1,0,-1
 518.603515625 0 l 1,1,-1
 429.004882812 0 l 1,2,-1
 179 280.046875 l 1,3,-1
 179 0 l 1,4,-1
 106 0 l 1,5,-1
 106 735.149414062 l 1,6,-1
 179 743.959960938 l 1,7,-1
 179 291.137695312 l 1,8,-1
 407.968298333 523 l 1,9,-1
 496.84375 523 l 1,10,-1
 259.352293446 287.962890625 l 1,0,-1
EndSplineSet
EndChar

StartChar: l
Encoding: 108 108 93
Width: 299
GlyphClass: 2
Flags: W
LayerCount: 2
Fore
SplineSet
127.64453125 15.71484375 m 128,-1,1
 101 42.3671875 101 42.3671875 101 93.4013671875 c 2,2,-1
 101 735.149414062 l 1,3,-1
 174 743.959960938 l 1,4,-1
 174 96.57421875 l 2,5,6
 174 76.58984375 174 76.58984375 181.603515625 65.294921875 c 128,-1,7
 189.206054688 54 189.206054688 54 208.5 54 c 128,-1,8
 227.833984375 54 227.833984375 54 241.334960938 60.30078125 c 2,9,-1
 248.6953125 63.7353515625 l 1,10,-1
 269.87890625 6.8037109375 l 1,11,-1
 263.846679688 3.787109375 l 2,12,13
 234.271484375 -11 234.271484375 -11 200.5 -11 c 0,14,0
 154.350585938 -11 154.350585938 -11 127.64453125 15.71484375 c 128,-1,1
EndSplineSet
EndChar

StartChar: m
Encoding: 109 109 95
Width: 898
GlyphClass: 2
Flags: W
LayerCount: 2
Fore
SplineSet
758.484375 489.865234375 m 0,0,1
 797 445.731445312 797 445.731445312 797 371.076171875 c 2,2,-1
 797 0 l 1,3,-1
 724 0 l 1,4,-1
 724 361.99609375 l 2,5,6
 724 419.546875 724 419.546875 700.980238971 445.7734375 c 128,-1,7
 677.960477941 472 677.960477941 472 635.374858597 472 c 128,-1,8
 592.789239253 472 592.789239253 472 557.36275099 446.27734375 c 128,-1,9
 521.935219881 420.5546875 521.935219881 420.5546875 488 372.475585938 c 1,10,-1
 488 0 l 1,11,-1
 415 0 l 1,12,-1
 415 361.99609375 l 2,13,14
 415 419.546875 415 419.546875 391.980238971 445.7734375 c 128,-1,15
 368.960477941 472 368.960477941 472 325.840921946 472 c 128,-1,16
 282.72136595 472 282.72136595 472 247.310520362 446.2890625 c 128,-1,17
 211.900717619 420.578125 211.900717619 420.578125 179 372.530273438 c 1,18,-1
 179 0 l 1,19,-1
 106 0 l 1,20,-1
 106 523 l 1,21,-1
 170.590820312 523 l 1,22,-1
 174.762695312 448.739257812 l 1,23,24
 202.928079044 484.30859375 202.928079044 484.30859375 239.267056702 506.303710938 c 0,25,26
 285.027096295 534 285.027096295 534 340.483508908 534 c 128,-1,27
 395.939921521 534 395.939921521 534 433.2109375 504.833984375 c 0,28,29
 463.430664062 480.391601562 463.430664062 480.391601562 477.197265625 440.034179688 c 1,30,31
 507.186262726 480.805664062 507.186262726 480.805664062 546.589119061 505.256835938 c 0,32,33
 592.909166431 534 592.909166431 534 648.714932127 534 c 0,34,35
 719.696178592 534 719.696178592 534 758.484375 489.865234375 c 0,0,1
EndSplineSet
EndChar

StartChar: n
Encoding: 110 110 96
Width: 614
GlyphClass: 2
Flags: W
LayerCount: 2
Fore
SplineSet
473.427734375 490.890625 m 0,0,1
 513 447.78125 513 447.78125 513 371.076171875 c 2,2,-1
 513 0 l 1,3,-1
 440 0 l 1,4,-1
 440 361.99609375 l 2,5,6
 440 420.356445312 440 420.356445312 415.631752572 446.178710938 c 128,-1,7
 391.264541254 472 391.264541254 472 341.842142245 472 c 128,-1,8
 292.420779345 472 292.420779345 472 253.64232803 446.697265625 c 128,-1,9
 214.722965892 421.301757812 214.722965892 421.301757812 179 372.403320312 c 1,10,-1
 179 0 l 1,11,-1
 106 0 l 1,12,-1
 106 523 l 1,13,-1
 170.51171875 523 l 1,14,-1
 175.6015625 447.5 l 1,15,16
 206.003072599 484.032226562 206.003072599 484.032226562 245.458103087 506.4296875 c 0,17,18
 294.026748285 534 294.026748285 534 354.591463415 534 c 0,19,20
 433.481838319 534 433.481838319 534 473.427734375 490.890625 c 0,0,1
EndSplineSet
EndChar

StartChar: napostrophe
Encoding: 65542 -1 97
Width: 697
GlyphClass: 2
Flags: W
LayerCount: 2
Fore
SplineSet
144.899414062 730.192382812 m 128,-1,1
 158.989257812 715.515625 158.989257812 715.515625 158.989257812 694.5 c 0,2,3
 158.989257812 683.1875 158.989257812 683.1875 154.24609375 670.012695312 c 0,4,5
 143.11328125 639.087890625 143.11328125 639.087890625 136.336914062 625.423828125 c 1,6,-1
 98.546875 532 l 1,7,-1
 48 532 l 1,8,-1
 76.9365234375 653.948242188 l 1,9,10
 55.9892578125 668.274414062 55.9892578125 668.274414062 55.9892578125 694.5 c 0,11,12
 55.9892578125 715.604492188 55.9892578125 715.604492188 70.6875 730.302734375 c 128,-1,13
 85.384765625 745 85.384765625 745 108.034179688 745 c 128,-1,0
 130.68359375 745 130.68359375 745 144.899414062 730.192382812 c 128,-1,1
558.416992188 497.78515625 m 0,14,15
 597.989257812 454.0703125 597.989257812 454.0703125 597.989257812 376.288085938 c 2,16,-1
 597.989257812 0 l 1,17,-1
 524.989257812 0 l 1,18,-1
 524.989257812 367.748046875 l 2,19,20
 524.989257812 427.036132812 524.989257812 427.036132812 500.621010385 453.267578125 c 128,-1,21
 476.253799066 479.5 476.253799066 479.5 426.831400057 479.5 c 128,-1,22
 377.410037157 479.5 377.410037157 479.5 338.631585842 453.794921875 c 128,-1,23
 299.712223704 427.99609375 299.712223704 427.99609375 263.989257812 378.3203125 c 1,24,-1
 263.989257812 0 l 1,25,-1
 190.989257812 0 l 1,26,-1
 190.989257812 530.5 l 1,27,-1
 255.500976562 530.5 l 1,28,-1
 260.590820312 455 l 1,29,30
 290.992330412 491.532226562 290.992330412 491.532226562 330.447360899 513.9296875 c 0,31,32
 379.016006098 541.5 379.016006098 541.5 439.580721227 541.5 c 0,33,34
 518.471096132 541.5 518.471096132 541.5 558.416992188 497.78515625 c 0,14,15
EndSplineSet
Ligature2: "'locl' Localized Forms in Latin lookup 7 subtable" quoteright n
Ligature2: "'locl' Localized Forms in Latin lookup 7 subtable" quotesingle n
EndChar

StartChar: ntilde
Encoding: 241 241 98
Width: 714
GlyphClass: 2
Flags: W
LayerCount: 2
Fore
SplineSet
291.176985273 692.454101562 m 0
 281.603515625 697 281.603515625 697 273.299804688 697 c 0
 258.82421875 697 258.82421875 697 247.833007812 688.646484375 c 0
 236.841796875 680.29296875 236.841796875 680.29296875 223.544921875 660.34765625 c 2
 219.866210938 654.830078125 l 1
 171 679.263671875 l 1
 174.70703125 686.077148438 l 2
 213.841796875 758 213.841796875 758 273.299804688 758 c 0
 291.939294391 758 291.939294391 758 310.298335368 751.586914062 c 0
 328.656219579 745.173828125 328.656219579 745.173828125 350.615117876 732.828125 c 0
 371.372135789 722.125 371.372135789 722.125 383.261381783 717.5625 c 0
 393.926757812 713 393.926757812 713 406.298828125 713 c 0
 418.670898438 713 418.670898438 713 429.671875 721.801757812 c 0
 440.673828125 730.602539062 440.673828125 730.602539062 458.671875 758.200195312 c 1
 507.288085938 733.891601562 l 1
 504.048828125 727.228515625 l 2
 466.994140625 651 466.994140625 651 405.299804688 651 c 0
 385.456924582 651 385.456924582 651 366.594690181 657.900390625 c 0
 345.159807105 665.741210938 345.159807105 665.741210938 323.822092413 676.825195312 c 0
 302.485534488 687.908203125 302.485534488 687.908203125 291.176985273 692.454101562 c 0
EndSplineSet
Refer: 96 110 N 1 0 0 1 0 0 0
EndChar

StartChar: o
Encoding: 111 111 99
Width: 601
GlyphClass: 2
Flags: W
LayerCount: 2
Fore
SplineSet
171.375976562 500.680664062 m 0,0,1
 225.949644316 534 225.949644316 534 301.03440367 534 c 0,2,3
 415.987555548 534 415.987555548 534 476.526367188 462.067382812 c 128,-1,4
 537 390.134765625 537 390.134765625 537 263.45703125 c 128,-1,5
 537 136.779296875 537 136.779296875 475.75 63.1328125 c 128,-1,6
 414.327981651 -10.513671875 414.327981651 -10.513671875 299.96559633 -11 c 0,7,8
 184.979044223 -11 184.979044223 -11 124.458007812 61.919921875 c 128,-1,9
 64 134.83984375 64 134.83984375 64 261.013671875 c 0,10,11
 64 343.313476562 64 343.313476562 91.7548828125 405.33984375 c 128,-1,12
 119.509765625 467.366210938 119.509765625 467.366210938 171.375976562 500.680664062 c 0,0,1
180.658203125 105.578125 m 0,13,14
 222.814197785 53 222.814197785 53 299.96559633 53 c 128,-1,15
 377.174401519 53 377.174401519 53 420.369140625 105.6015625 c 0,16,17
 461 158.202148438 461 158.202148438 461 261.997070312 c 128,-1,18
 461 365.791015625 461 365.791015625 421.352539062 417.895507812 c 0,19,20
 379.275484698 470 379.275484698 470 301.564632311 470 c 128,-1,21
 223.854823681 470 223.854823681 470 181.14453125 417.41015625 c 0,22,23
 141 364.8203125 141 364.8203125 141 261.48828125 c 128,-1,24
 141 158.157226562 141 158.157226562 180.658203125 105.578125 c 0,13,14
EndSplineSet
Substitution2: "Single Substitution lookup 19 subtable" ordmasculine
EndChar

StartChar: oacute
Encoding: 243 243 100
Width: 686
GlyphClass: 2
Flags: W
LayerCount: 2
Fore
SplineSet
399.462890625 785.7421875 m 1
 432.481445312 719.407226562 l 1
 224.004882812 628.533203125 l 1
 198 675.366210938 l 1
 399.462890625 785.7421875 l 1
EndSplineSet
Refer: 99 111 N 1 0 0 1 0 0 0
Substitution2: "'locl' Localized Forms in Latin lookup 3 subtable" oacute.loclPLK
EndChar

StartChar: ocircumflex
Encoding: 244 244 102
Width: 686
GlyphClass: 2
Flags: W
LayerCount: 2
Fore
SplineSet
299.970703125 779 m 1
 338.635742188 779 l 1
 341.284179688 779 l 1
 479.290039062 669.19921875 l 1
 443.974609375 626.7734375 l 1
 320.653320312 712.694335938 l 1
 198.314453125 626.76953125 l 1
 163 669.1953125 l 1
 299.970703125 779 l 1
EndSplineSet
Refer: 99 111 N 1 0 0 1 0 0 0
EndChar

StartChar: odieresis
Encoding: 246 246 103
Width: 686
GlyphClass: 2
Flags: W
LayerCount: 2
Fore
SplineSet
257.302734375 728.302734375 m 0
 271 714.604492188 271 714.604492188 271 694.5 c 0
 271 674.296875 271 674.296875 257.182617188 661.080078125 c 0
 243.506835938 648 243.506835938 648 223.5 648 c 0
 203.493164062 648 203.493164062 648 189.817382812 661.080078125 c 0
 176 674.296875 176 674.296875 176 694.5 c 0
 176 714.604492188 176 714.604492188 189.697265625 728.302734375 c 0
 203.395507812 742 203.395507812 742 223.5 742 c 0
 243.604492188 742 243.604492188 742 257.302734375 728.302734375 c 0
446.302734375 728.302734375 m 0
 460 714.604492188 460 714.604492188 460 694.5 c 0
 460 674.296875 460 674.296875 446.182617188 661.080078125 c 0
 432.506835938 648 432.506835938 648 412.5 648 c 0
 392.493164062 648 392.493164062 648 378.817382812 661.080078125 c 0
 365 674.296875 365 674.296875 365 694.5 c 0
 365 714.604492188 365 714.604492188 378.697265625 728.302734375 c 0
 392.395507812 742 392.395507812 742 412.5 742 c 0
 432.604492188 742 432.604492188 742 446.302734375 728.302734375 c 0
EndSplineSet
Refer: 99 111 N 1 0 0 1 0 0 0
EndChar

StartChar: ograve
Encoding: 242 242 104
Width: 686
GlyphClass: 2
Flags: W
LayerCount: 2
Fore
SplineSet
241.025390625 785.7421875 m 1
 442.33984375 675.447265625 l 1
 417.6328125 628.4765625 l 1
 208 719.388671875 l 1
 241.025390625 785.7421875 l 1
EndSplineSet
Refer: 99 111 N 1 0 0 1 0 0 0
EndChar

StartChar: oslash
Encoding: 248 248 105
Width: 601
GlyphClass: 2
Flags: W
LayerCount: 2
Fore
SplineSet
508.37109375 413.994140625 m 128,-1,1
 537 352.642578125 537 352.642578125 537 264.079101562 c 0,2,3
 537 137.3828125 537 137.3828125 475.75 63.435546875 c 128,-1,4
 414.327981651 -10.51171875 414.327981651 -10.51171875 299.96559633 -11 c 0,5,6
 269.549468714 -11 269.549468714 -11 240.00592209 -4.466796875 c 1,7,-1
 196.107583142 -126.680664062 l 1,8,-1
 131.8515625 -108.544921875 l 1,9,-1
 175.436523438 16.25390625 l 1,10,11
 123.219726562 47.7197265625 123.219726562 47.7197265625 93.6103515625 110.001953125 c 128,-1,12
 64 172.28515625 64 172.28515625 64 257.41015625 c 128,-1,13
 64 342.534179688 64 342.534179688 91.7548828125 404.814453125 c 128,-1,14
 119.509765625 467.09375 119.509765625 467.09375 171.375976562 500.544921875 c 0,15,16
 225.949644316 534 225.949644316 534 301.03440367 534 c 0,17,18
 333.308419044 534 333.308419044 534 363.022098086 527.485351562 c 1,19,-1
 404.782822355 649.7109375 l 1,20,-1
 469.022460938 631.581054688 l 1,21,-1
 427.500976562 505.899414062 l 1,22,0
 479.7421875 475.344726562 479.7421875 475.344726562 508.37109375 413.994140625 c 128,-1,1
345.325195312 465.486328125 m 1,23,24
 326.388309024 470 326.388309024 470 301.03440367 470 c 0,25,26
 223.854823681 470 223.854823681 470 181.14453125 415.518554688 c 0,27,28
 141 361.037109375 141 361.037109375 141 253.5 c 0,29,30
 141 116.227539062 141 116.227539062 203.935761898 65.7490234375 c 1,31,-1
 345.325195312 465.486328125 l 1,23,24
420.369140625 107.493164062 m 0,32,33
 461 161.986328125 461 161.986328125 461 270.5 c 0,34,35
 461 406.692382812 461 406.692382812 399.209159081 456.270507812 c 1,36,-1
 257.957501613 56.921875 l 1,37,38
 277.880738425 53 277.880738425 53 299.96559633 53 c 0,39,40
 377.174401519 53 377.174401519 53 420.369140625 107.493164062 c 0,32,33
EndSplineSet
EndChar

StartChar: otilde
Encoding: 245 245 106
Width: 701
GlyphClass: 2
Flags: W
LayerCount: 2
Fore
SplineSet
280.176985273 692.454101562 m 0
 270.603515625 697 270.603515625 697 262.299804688 697 c 0
 247.82421875 697 247.82421875 697 236.833007812 688.646484375 c 0
 225.841796875 680.29296875 225.841796875 680.29296875 212.544921875 660.34765625 c 2
 208.866210938 654.830078125 l 1
 160 679.263671875 l 1
 163.70703125 686.077148438 l 2
 202.841796875 758 202.841796875 758 262.299804688 758 c 0
 280.939294391 758 280.939294391 758 299.298335368 751.586914062 c 0
 317.656219579 745.173828125 317.656219579 745.173828125 339.615117876 732.828125 c 0
 360.372135789 722.125 360.372135789 722.125 372.261381783 717.5625 c 0
 382.926757812 713 382.926757812 713 395.298828125 713 c 0
 407.670898438 713 407.670898438 713 418.671875 721.801757812 c 0
 429.673828125 730.602539062 429.673828125 730.602539062 447.671875 758.200195312 c 1
 496.288085938 733.891601562 l 1
 493.048828125 727.228515625 l 2
 455.994140625 651 455.994140625 651 394.299804688 651 c 0
 374.456924582 651 374.456924582 651 355.594690181 657.900390625 c 0
 334.159807105 665.741210938 334.159807105 665.741210938 312.822092413 676.825195312 c 0
 291.485534488 687.908203125 291.485534488 687.908203125 280.176985273 692.454101562 c 0
EndSplineSet
Refer: 99 111 N 1 0 0 1 0 0 0
EndChar

StartChar: oe
Encoding: 339 339 107
Width: 948
GlyphClass: 2
Flags: W
LayerCount: 2
Fore
SplineSet
561.734323602 498.53515625 m 0,0,1
 610.978438528 534 610.978438528 534 677.144736842 534 c 0,2,3
 781.188476562 534 781.188476562 534 835.09375 465.71875 c 128,-1,4
 889 397.438476562 889 397.438476562 889 279.802734375 c 0,5,6
 889 257.96484375 889 257.96484375 886.288085938 231.5 c 1,7,-1
 531.346756785 231.5 l 1,8,9
 537.615902549 141.830078125 537.615902549 141.830078125 579.358090049 97.4150390625 c 128,-1,10
 621.099275288 53 621.099275288 53 690.486842105 53 c 0,11,12
 731.11251028 53 731.11251028 53 762.794998972 65.05859375 c 0,13,14
 793.825195312 77.1181640625 793.825195312 77.1181640625 829.005859375 103.50390625 c 2,15,-1
 835.079101562 108.057617188 l 1,16,-1
 870.680664062 59.2705078125 l 1,17,-1
 865.326171875 54.7607421875 l 2,18,19
 826.36328125 21.9501953125 826.36328125 21.9501953125 783.694335938 5.4990234375 c 0,20,21
 740.159924959 -11 740.159924959 -11 687.407894737 -11 c 0,22,23
 615.189941406 -11 615.189941406 -11 563.431152344 24.3544921875 c 0,24,25
 517.979594984 55.400390625 517.979594984 55.400390625 490.359272204 109.602539062 c 1,26,27
 462.8020919 55.4189453125 462.8020919 55.4189453125 417.823601974 24.3759765625 c 0,28,29
 366.566945929 -11 366.566945929 -11 295.355263158 -11 c 0,30,31
 184.940121299 -11 184.940121299 -11 124.458007812 61.919921875 c 128,-1,32
 64 134.83984375 64 134.83984375 64 261.013671875 c 0,33,34
 64 343.313476562 64 343.313476562 91.7548828125 405.33984375 c 128,-1,35
 119.509765625 467.366210938 119.509765625 467.366210938 171.375976562 500.680664062 c 0,36,37
 224.281892475 534 224.281892475 534 296.381578947 534 c 128,-1,38
 368.569464433 534 368.569464433 534 420.314221834 499.174804688 c 0,39,40
 465.635485197 468.673828125 465.635485197 468.673828125 492.444978413 415.541992188 c 1,41,42
 518.893657484 467.682617188 518.893657484 467.682617188 561.734323602 498.53515625 c 0,0,1
816 291.5 m 1,43,-1
 816 298.69921875 l 2,44,45
 816 380.830078125 816 380.830078125 781.840820312 425.915039062 c 0,46,47
 747.120631168 471 747.120631168 471 681.11068565 471 c 128,-1,48
 615.101742393 471 615.101742393 471 575.806075247 426.180664062 c 128,-1,49
 536.511410362 381.361328125 536.511410362 381.361328125 531.263569079 291.5 c 1,50,-1
 816 291.5 l 1,43,-1
180.658203125 105.578125 m 0,51,52
 221.27109889 53 221.27109889 53 295.355263158 53 c 128,-1,53
 369.494551809 53 369.494551809 53 411.194644326 105.6015625 c 128,-1,54
 452.894736842 158.202148438 452.894736842 158.202148438 452.894736842 261.997070312 c 128,-1,55
 452.894736842 365.791015625 452.894736842 365.791015625 412.203921669 417.895507812 c 128,-1,56
 371.512104235 470 371.512104235 470 296.890727796 470 c 128,-1,57
 222.270353618 470 222.270353618 470 181.14453125 417.41015625 c 0,58,59
 141 364.8203125 141 364.8203125 141 261.48828125 c 128,-1,60
 141 158.157226562 141 158.157226562 180.658203125 105.578125 c 0,51,52
EndSplineSet
EndChar

StartChar: p
Encoding: 112 112 108
Width: 611
GlyphClass: 2
Flags: W
LayerCount: 2
Fore
SplineSet
239.485499068 510.064453125 m 0,0,1
 285.413473962 534 285.413473962 534 339.584079421 534 c 0,2,3
 443.489257812 534 443.489257812 534 492.745117188 462.853515625 c 128,-1,4
 542 391.706054688 542 391.706054688 542 265.369140625 c 128,-1,5
 542 139.032226562 542 139.032226562 488.715820312 64.015625 c 128,-1,6
 435.432617188 -11 435.432617188 -11 330.013198322 -11 c 0,7,8
 278.10342274 -11 278.10342274 -11 235.987807277 9.3232421875 c 0,9,10
 203.927017205 24.7939453125 203.927017205 24.7939453125 179.537678813 48.5185546875 c 1,11,-1
 179.537678813 -196.037109375 l 1,12,-1
 106 -206.106445312 l 1,13,-1
 106 523 l 1,14,-1
 170.5234375 523 l 1,15,-1
 174.945400577 459.790039062 l 1,16,17
 202.785697942 490.9375 202.785697942 490.9375 239.485499068 510.064453125 c 0,0,1
428.743164062 92.384765625 m 0,18,19
 465 146.76953125 465 146.76953125 465 256.5 c 0,20,21
 465 471 465 471 327.886335855 471 c 0,22,23
 280.404754394 471 280.404754394 471 245.763274268 448.338867188 c 128,-1,24
 211.023135972 425.61328125 211.023135972 425.61328125 179.537678813 386.020507812 c 1,25,-1
 179.537678813 112.740234375 l 1,26,27
 232.214911115 38 232.214911115 38 318.315454756 38 c 0,28,29
 390.614239519 38 390.614239519 38 428.743164062 92.384765625 c 0,18,19
EndSplineSet
EndChar

StartChar: thorn
Encoding: 254 254 109
Width: 611
GlyphClass: 2
Flags: W
LayerCount: 2
Fore
SplineSet
237.865072514 511.610351562 m 0,0,1
 282.971382942 534 282.971382942 534 338.077348066 534 c 0,2,3
 443.489257812 534 443.489257812 534 492.745117188 462.853515625 c 128,-1,4
 542 391.706054688 542 391.706054688 542 265.369140625 c 128,-1,5
 542 139.032226562 542 139.032226562 488.715820312 64.015625 c 128,-1,6
 435.432617188 -11 435.432617188 -11 328.331491713 -11 c 0,7,8
 275.472699413 -11 275.472699413 -11 232.587124482 9.3232421875 c 0,9,10
 201.934570312 24.7939453125 201.934570312 24.7939453125 179 48.5185546875 c 1,11,-1
 179 -193.818359375 l 1,12,-1
 106 -206.405273438 l 1,13,-1
 106 735.149414062 l 1,14,-1
 179 743.959960938 l 1,15,-1
 179 464.967773438 l 1,16,17
 204.482421875 494.15625 204.482421875 494.15625 237.865072514 511.610351562 c 0,0,1
428.743164062 92.384765625 m 0,18,19
 465 146.76953125 465 146.76953125 465 256.5 c 0,20,21
 465 471 465 471 326.165745856 471 c 0,22,23
 277.816104109 471 277.816104109 471 242.541306975 448.338867188 c 0,24,25
 208.607421875 425.61328125 208.607421875 425.61328125 179 386.020507812 c 1,26,-1
 179 112.740234375 l 1,27,28
 228.745252072 38 228.745252072 38 316.419889503 38 c 0,29,30
 390.040443715 38 390.040443715 38 428.743164062 92.384765625 c 0,18,19
EndSplineSet
EndChar

StartChar: q
Encoding: 113 113 110
Width: 615
GlyphClass: 2
Flags: W
LayerCount: 2
Fore
SplineSet
444.4609375 523 m 1,0,-1
 509 523 l 1,1,-1
 509 -206.106445312 l 1,2,-1
 435.472205075 -196.037109375 l 1,3,-1
 435.472205075 59.876953125 l 1,4,5
 411.835283233 31.8818359375 411.835283233 31.8818359375 379.550960102 13.5712890625 c 0,6,7
 336.229917726 -11 336.229917726 -11 277.708746223 -11 c 0,8,9
 177.671875 -11 177.671875 -11 123.3359375 62.025390625 c 128,-1,10
 69 135.05078125 69 135.05078125 69 259.067382812 c 0,11,12
 69 339.31640625 69 339.31640625 94.6611328125 401.250976562 c 128,-1,13
 120.321289062 463.184570312 120.321289062 463.184570312 168.658203125 498.591796875 c 0,14,15
 218.740420556 534 218.740420556 534 288.332548166 534 c 0,16,17
 378.13064908 534 378.13064908 534 440.9635902 471.151367188 c 1,18,-1
 444.4609375 523 l 1,0,-1
435.472205075 400.624023438 m 1,19,20
 379.842492167 471 379.842492167 471 298.956350109 471 c 0,21,22
 227.634742241 471 227.634742241 471 185.614257812 417.087890625 c 0,23,24
 145.9765625 363.331054688 145.9765625 363.331054688 145.9765625 264.875976562 c 0,25,26
 145.9765625 262.510742188 145.9765625 262.510742188 146 260.120117188 c 0,27,28
 146 157.9609375 146 157.9609375 182.266601562 104.98046875 c 0,29,30
 220.375490074 52 220.375490074 52 288.332548166 52 c 0,31,32
 338.924254996 52 338.924254996 52 372.984745014 73.849609375 c 128,-1,33
 407.031747784 95.689453125 407.031747784 95.689453125 435.472205075 139.41015625 c 1,34,-1
 435.472205075 400.624023438 l 1,19,20
EndSplineSet
EndChar

StartChar: r
Encoding: 114 114 111
Width: 388
GlyphClass: 2
Flags: W
LayerCount: 2
Fore
SplineSet
170.686523438 523 m 1,0,-1
 174.44921875 434.953125 l 1,1,2
 219.349609375 534 219.349609375 534 316.5 534 c 0,3,4
 348.555664062 534 348.555664062 534 370.561523438 527.712890625 c 2,5,-1
 377.211914062 525.8125 l 1,6,-1
 363.279296875 456.1484375 l 1,7,-1
 355.524414062 458.263671875 l 2,8,9
 334.490234375 464 334.490234375 464 311.5 464 c 0,10,11
 261.982421875 464 261.982421875 464 231.2421875 428.725585938 c 128,-1,12
 200.502929688 393.451171875 200.502929688 393.451171875 179 316.278320312 c 1,13,-1
 179 0 l 1,14,-1
 106 0 l 1,15,-1
 106 523 l 1,16,-1
 170.686523438 523 l 1,0,-1
EndSplineSet
EndChar

StartChar: s
Encoding: 115 115 112
Width: 494
GlyphClass: 2
Flags: W
LayerCount: 2
Fore
SplineSet
329.19140625 459.885742188 m 0,0,1
 295.36443075 471 295.36443075 471 255.103118965 471 c 0,2,3
 200.781961277 471 200.781961277 471 168.411095025 449.54296875 c 0,4,5
 138.077148438 428.086914062 138.077148438 428.086914062 138.077148438 393.879882812 c 128,-1,6
 138.077148438 359.672851562 138.077148438 359.672851562 163.943450393 340.840820312 c 0,7,8
 191.847743647 322.008789062 191.847743647 322.008789062 269.235836022 303.9609375 c 0,9,10
 365.1953125 281.21875 365.1953125 281.21875 406.635742188 245.607421875 c 128,-1,11
 448.077148438 209.99609375 448.077148438 209.99609375 448.077148438 143.686523438 c 0,12,13
 448.077148438 72.189453125 448.077148438 72.189453125 391.588867188 30.5947265625 c 128,-1,14
 335.099609375 -11 335.099609375 -11 244.129580699 -11 c 0,15,16
 176.739839108 -11 176.739839108 -11 128.862304688 7.0068359375 c 0,17,18
 82.6572265625 24.9755859375 82.6572265625 24.9755859375 44.6748046875 57.8251953125 c 2,19,-1
 39 62.7333984375 l 1,20,-1
 80.6259765625 110.864257812 l 1,21,-1
 86.2568359375 106.359375 l 2,22,23
 120.30859375 79.1181640625 120.30859375 79.1181640625 155.67578125 66.037109375 c 0,24,25
 194.031734954 53 194.031734954 53 243.032226872 53 c 0,26,27
 303.947152232 53 303.947152232 53 339.08203125 76.8564453125 c 0,28,29
 372.077148438 100.712890625 372.077148438 100.712890625 372.077148438 142.595703125 c 0,30,31
 372.077148438 171.579101562 372.077148438 171.579101562 361.140625 189.233398438 c 128,-1,32
 350.270507812 206.783203125 350.270507812 206.783203125 322.053490371 220.189453125 c 0,33,34
 291.675864469 233.595703125 291.675864469 233.595703125 231.044922277 247.931640625 c 0,35,36
 139.90234375 269.690429688 139.90234375 269.690429688 101.489257812 303.329101562 c 128,-1,37
 63.0771484375 336.967773438 63.0771484375 336.967773438 63.0771484375 393.46484375 c 0,38,39
 63.0771484375 433.608398438 63.0771484375 433.608398438 87.3916015625 465.86328125 c 128,-1,40
 111.706054688 498.118164062 111.706054688 498.118164062 152.846679688 515.7734375 c 0,41,42
 197.393452683 534 197.393452683 534 252.761597372 534 c 128,-1,43
 308.128670427 534 308.128670427 534 351.129882812 519.053710938 c 0,44,45
 392.20703125 504.163085938 392.20703125 504.163085938 431.12109375 474.465820312 c 2,46,-1
 436.887695312 470.064453125 l 1,47,-1
 401.393554688 420.108398438 l 1,48,-1
 395.306640625 424.3359375 l 2,49,50
 360.1171875 448.772460938 360.1171875 448.772460938 329.19140625 459.885742188 c 0,0,1
EndSplineSet
EndChar

StartChar: germandbls
Encoding: 223 223 113
Width: 612
GlyphClass: 2
Flags: W
LayerCount: 2
Fore
SplineSet
439.821890394 703.002929688 m 0,0,1
 488 663.005859375 488 663.005859375 488 601.5 c 0,2,3
 488 559.08203125 488 559.08203125 469.006835938 532.702148438 c 0,4,5
 450.012695312 507.03125 450.012695312 507.03125 414.273966672 480.203125 c 0,6,7
 388.001375847 460.205078125 388.001375847 460.205078125 376.803119227 447.8515625 c 128,-1,8
 365.60591133 435.498046875 365.60591133 435.498046875 365.60591133 417.84765625 c 128,-1,9
 365.60591133 400.196289062 365.60591133 400.196289062 382.431611761 384.500976562 c 128,-1,10
 399.258360914 368.8046875 399.258360914 368.8046875 439.4034502 344.064453125 c 0,11,12
 477.1015625 319.325195312 477.1015625 319.325195312 502.319335938 297.7890625 c 128,-1,13
 527.537109375 276.25390625 527.537109375 276.25390625 545.768554688 241.276367188 c 128,-1,14
 564 206.299804688 564 206.299804688 564 157.841796875 c 0,15,16
 564 82.8076171875 564 82.8076171875 515.802734375 35.9033203125 c 0,17,18
 467.5 -10.513671875 467.5 -10.513671875 389.768472906 -11 c 0,19,20
 329.7165371 -11 329.7165371 -11 282.814530095 12.9169921875 c 2,21,-1
 276.332377617 16.22265625 l 1,22,-1
 301.948468288 70.5546875 l 1,23,-1
 309.41641972 67.294921875 l 2,24,25
 342.165919412 53 342.165919412 53 385.472906404 53 c 0,26,27
 434.601350831 53 434.601350831 53 462.124023438 80.8876953125 c 0,28,29
 489 108.775390625 489 108.775390625 489 160.26171875 c 0,30,31
 489 194.375 489 194.375 475.243164062 219.700195312 c 128,-1,32
 461.486328125 245.026367188 461.486328125 245.026367188 442.025255927 261.909179688 c 0,33,34
 421.27313924 278.791992188 421.27313924 278.791992188 385.201287331 301.811523438 c 0,35,36
 338.20489532 330.467773438 338.20489532 330.467773438 314.319196429 355.142578125 c 128,-1,37
 290.433497537 379.817382812 290.433497537 379.817382812 290.433497537 417.49609375 c 0,38,39
 290.433497537 448.088867188 290.433497537 448.088867188 306.58696698 467.3828125 c 128,-1,40
 322.7393877 486.676757812 322.7393877 486.676757812 353.563433267 508.579101562 c 0,41,42
 384.971617149 532.248046875 384.971617149 532.248046875 399.451325816 549.848632812 c 0,43,44
 413.931034483 567.981445312 413.931034483 567.981445312 413.931034483 598.5 c 0,45,46
 413.931034483 636.896484375 413.931034483 636.896484375 384.329799107 658.948242188 c 128,-1,47
 354.728563732 681 354.728563732 681 306.004926108 681 c 0,48,49
 246.267606989 681 246.267606989 681 211.936523438 643.829101562 c 0,50,51
 179 606.657226562 179 606.657226562 179 530.5 c 2,52,-1
 179 0 l 1,53,-1
 106 0 l 1,54,-1
 106 532.5 l 2,55,56
 106 632.520507812 106 632.520507812 159.095703125 687.698242188 c 128,-1,57
 212.310546875 743 212.310546875 743 307.078817734 743 c 0,58,59
 388.391500539 743 388.391500539 743 439.821890394 703.002929688 c 0,0,1
EndSplineSet
EndChar

StartChar: t
Encoding: 116 116 114
Width: 371
GlyphClass: 2
Flags: W
LayerCount: 2
Fore
SplineSet
142.675771245 25.6494140625 m 0,0,1
 106 62.1650390625 106 62.1650390625 106 130.018554688 c 2,2,-1
 106 461 l 1,3,-1
 18 461 l 1,4,-1
 18 523 l 1,5,-1
 106 523 l 1,6,-1
 106 647.149414062 l 1,7,-1
 184.941076028 655.959960938 l 1,8,-1
 184.941076028 523 l 1,9,-1
 330.200195312 523 l 1,10,-1
 320.966796875 461 l 1,11,-1
 184.941076028 461 l 1,12,-1
 184.941076028 134.532226562 l 2,13,14
 184.941076028 92.810546875 184.941076028 92.810546875 204.393268309 73.4052734375 c 128,-1,15
 223.84657866 54 223.84657866 54 264.739257812 54 c 0,16,17
 301.497070312 54 301.497070312 54 339.76953125 76.0068359375 c 2,18,-1
 346.263671875 79.740234375 l 1,19,-1
 376.516601562 27.125 l 1,20,-1
 370.624023438 23.236328125 l 2,21,22
 318.750976562 -11 318.750976562 -11 255.954212051 -11 c 0,23,24
 184.139419408 -11 184.139419408 -11 142.675771245 25.6494140625 c 0,0,1
EndSplineSet
EndChar

StartChar: u
Encoding: 117 117 115
Width: 609
GlyphClass: 2
Flags: W
LayerCount: 2
Fore
SplineSet
503 523 m 1,0,-1
 503 0 l 1,1,-1
 438.23828125 0 l 1,2,-1
 435.771484375 76.455078125 l 1,3,4
 369.851659751 -11 369.851659751 -11 261.634854772 -11 c 0,5,6
 182.741701245 -11 182.741701245 -11 141.614257812 31.5830078125 c 0,7,8
 101 74.1669921875 101 74.1669921875 101 151.923828125 c 2,9,-1
 101 523 l 1,10,-1
 174 523 l 1,11,-1
 174 159.08984375 l 2,12,13
 174 102.747070312 174 102.747070312 198.883817427 77.3740234375 c 128,-1,14
 223.767634855 52 223.767634855 52 275.443983402 52 c 0,15,16
 366.756224066 52 366.756224066 52 430 150.392578125 c 1,17,-1
 430 523 l 1,18,-1
 503 523 l 1,0,-1
EndSplineSet
EndChar

StartChar: uacute
Encoding: 250 250 116
Width: 694
GlyphClass: 2
Flags: W
LayerCount: 2
Fore
SplineSet
400.462890625 785.7421875 m 1
 433.481445312 719.407226562 l 1
 225.004882812 628.533203125 l 1
 199 675.366210938 l 1
 400.462890625 785.7421875 l 1
EndSplineSet
Refer: 115 117 N 1 0 0 1 0 0 0
EndChar

StartChar: ucircumflex
Encoding: 251 251 117
Width: 694
GlyphClass: 2
Flags: W
LayerCount: 2
Fore
SplineSet
300.970703125 779 m 1
 339.635742188 779 l 1
 342.284179688 779 l 1
 480.290039062 669.19921875 l 1
 444.974609375 626.7734375 l 1
 321.653320312 712.694335938 l 1
 199.314453125 626.76953125 l 1
 164 669.1953125 l 1
 300.970703125 779 l 1
EndSplineSet
Refer: 115 117 N 1 0 0 1 0 0 0
EndChar

StartChar: udieresis
Encoding: 252 252 118
Width: 694
GlyphClass: 2
Flags: W
LayerCount: 2
Fore
SplineSet
258.302734375 728.302734375 m 0
 272 714.604492188 272 714.604492188 272 694.5 c 0
 272 674.296875 272 674.296875 258.182617188 661.080078125 c 0
 244.506835938 648 244.506835938 648 224.5 648 c 0
 204.493164062 648 204.493164062 648 190.817382812 661.080078125 c 0
 177 674.296875 177 674.296875 177 694.5 c 0
 177 714.604492188 177 714.604492188 190.697265625 728.302734375 c 0
 204.395507812 742 204.395507812 742 224.5 742 c 0
 244.604492188 742 244.604492188 742 258.302734375 728.302734375 c 0
447.302734375 728.302734375 m 0
 461 714.604492188 461 714.604492188 461 694.5 c 0
 461 674.296875 461 674.296875 447.182617188 661.080078125 c 0
 433.506835938 648 433.506835938 648 413.5 648 c 0
 393.493164062 648 393.493164062 648 379.817382812 661.080078125 c 0
 366 674.296875 366 674.296875 366 694.5 c 0
 366 714.604492188 366 714.604492188 379.697265625 728.302734375 c 0
 393.395507812 742 393.395507812 742 413.5 742 c 0
 433.604492188 742 433.604492188 742 447.302734375 728.302734375 c 0
EndSplineSet
Refer: 115 117 N 1 0 0 1 0 0 0
EndChar

StartChar: ugrave
Encoding: 249 249 119
Width: 694
GlyphClass: 2
Flags: W
LayerCount: 2
Fore
SplineSet
242.025390625 785.7421875 m 1
 443.33984375 675.447265625 l 1
 418.6328125 628.4765625 l 1
 209 719.388671875 l 1
 242.025390625 785.7421875 l 1
EndSplineSet
Refer: 115 117 N 1 0 0 1 0 0 0
EndChar

StartChar: v
Encoding: 118 118 120
Width: 500
GlyphClass: 2
Flags: W
LayerCount: 2
Fore
SplineSet
491.181640625 523 m 1,0,-1
 299.635690238 0 l 1,1,-1
 212.920705031 -0 l 1,2,-1
 15 523 l 1,3,-1
 95.037109375 523 l 1,4,-1
 256.153162436 67.267578125 l 1,5,-1
 413.215820312 523 l 1,6,-1
 491.181640625 523 l 1,0,-1
EndSplineSet
EndChar

StartChar: w
Encoding: 119 119 121
Width: 743
GlyphClass: 2
Flags: W
LayerCount: 2
Fore
SplineSet
722.169921875 523 m 1,0,-1
 575.499023438 -0 l 1,1,-1
 485.739257812 -0 l 1,2,-1
 375.549804688 445.508789062 l 1,3,-1
 248.459960938 0 l 1,4,-1
 159.756835938 0 l 1,5,-1
 25 523 l 1,6,-1
 100.55859375 523 l 1,7,-1
 206.922851562 69.052734375 l 1,8,-1
 337.784179688 523 l 1,9,-1
 415.465820312 523 l 1,10,-1
 529.327148438 68.501953125 l 1,11,-1
 649.649414062 523 l 1,12,-1
 722.169921875 523 l 1,0,-1
EndSplineSet
EndChar

StartChar: x
Encoding: 120 120 122
Width: 489
GlyphClass: 2
Flags: W
LayerCount: 2
Fore
SplineSet
251.453226845 320.819335938 m 1,0,-1
 383.7734375 523 l 1,1,-1
 467.922851562 523 l 1,2,-1
 297.005152619 279.467773438 l 1,3,-1
 490.860351562 0 l 1,4,-1
 402.788085938 0 l 1,5,-1
 248.453588205 236.255859375 l 1,6,-1
 95.1416015625 0 l 1,7,-1
 10 0 l 1,8,-1
 203.738177411 277.56640625 l 1,9,-1
 34.1025390625 523 l 1,10,-1
 120.159179688 523 l 1,11,-1
 251.453226845 320.819335938 l 1,0,-1
EndSplineSet
EndChar

StartChar: y
Encoding: 121 121 123
Width: 498
GlyphClass: 2
Flags: W
LayerCount: 2
Fore
SplineSet
207.593836421 -0 m 1,0,-1
 15 523 l 1,1,-1
 93.9814453125 523 l 1,2,-1
 254.056257041 59.7001953125 l 1,3,-1
 411.091796875 523 l 1,4,-1
 488.03515625 523 l 1,5,-1
 300.411047458 3.060546875 l 2,6,7
 278.062917329 -58.7841796875 278.062917329 -58.7841796875 251.096939011 -98.8603515625 c 128,-1,8
 224.131985742 -138.936523438 224.131985742 -138.936523438 180.677060481 -165.329101562 c 128,-1,9
 137.42201988 -191.599609375 137.42201988 -191.599609375 70.9619140625 -203.8671875 c 2,10,-1
 63.166015625 -205.352539062 l 1,11,-1
 55.2314453125 -145.84765625 l 1,12,13
 113.458411672 -131.521484375 113.458411672 -131.521484375 143.120270288 -113.321289062 c 128,-1,14
 172.782128903 -95.1201171875 172.782128903 -95.1201171875 189.537588727 -69.125 c 128,-1,15
 206.292023502 -43.12890625 206.292023502 -43.12890625 222.975729858 -0 c 1,16,-1
 213.191631974 -0 l 1,17,-1
 207.593836421 -0 l 1,0,-1
EndSplineSet
EndChar

StartChar: yacute
Encoding: 253 253 124
Width: 583
GlyphClass: 2
Flags: W
LayerCount: 2
Fore
SplineSet
357.638671875 785.7421875 m 1
 390.657226562 719.407226562 l 1
 182.180664062 628.533203125 l 1
 156.17578125 675.366210938 l 1
 357.638671875 785.7421875 l 1
EndSplineSet
Refer: 123 121 N 1 0 0 1 0 0 0
EndChar

StartChar: ydieresis
Encoding: 255 255 125
Width: 583
GlyphClass: 2
Flags: W
LayerCount: 2
Fore
SplineSet
215.478515625 728.302734375 m 0
 229.17578125 714.604492188 229.17578125 714.604492188 229.17578125 694.5 c 0
 229.17578125 674.296875 229.17578125 674.296875 215.358398438 661.080078125 c 0
 201.682617188 648 201.682617188 648 181.67578125 648 c 0
 161.668945312 648 161.668945312 648 147.993164062 661.080078125 c 0
 134.17578125 674.296875 134.17578125 674.296875 134.17578125 694.5 c 0
 134.17578125 714.604492188 134.17578125 714.604492188 147.873046875 728.302734375 c 0
 161.571289062 742 161.571289062 742 181.67578125 742 c 0
 201.780273438 742 201.780273438 742 215.478515625 728.302734375 c 0
404.478515625 728.302734375 m 0
 418.17578125 714.604492188 418.17578125 714.604492188 418.17578125 694.5 c 0
 418.17578125 674.296875 418.17578125 674.296875 404.358398438 661.080078125 c 0
 390.682617188 648 390.682617188 648 370.67578125 648 c 0
 350.668945312 648 350.668945312 648 336.993164062 661.080078125 c 0
 323.17578125 674.296875 323.17578125 674.296875 323.17578125 694.5 c 0
 323.17578125 714.604492188 323.17578125 714.604492188 336.873046875 728.302734375 c 0
 350.571289062 742 350.571289062 742 370.67578125 742 c 0
 390.780273438 742 390.780273438 742 404.478515625 728.302734375 c 0
EndSplineSet
Refer: 123 121 N 1 0 0 1 0 0 0
EndChar

StartChar: z
Encoding: 122 122 126
Width: 452
GlyphClass: 2
Flags: W
LayerCount: 2
Fore
SplineSet
52 523 m 1,0,-1
 418 523 l 1,1,-1
 418 471.963867188 l 1,2,-1
 418 469.71484375 l 1,3,-1
 117.6953125 63.1875 l 1,4,-1
 416.954101562 63.1875 l 1,5,-1
 409.154296875 0 l 1,6,-1
 28 0 l 1,7,-1
 28 50.8349609375 l 1,8,-1
 28 53.0751953125 l 1,9,-1
 328.3046875 458 l 1,10,-1
 52 458 l 1,11,-1
 52 523 l 1,0,-1
EndSplineSet
EndChar

StartChar: fi
Encoding: 65544 -1 127
Width: 563
GlyphClass: 3
Flags: W
LayerCount: 2
Fore
SplineSet
262 686.5 m 0
 213.85521151 686.5 213.85521151 686.5 193.177605755 668.069960088 c 0
 172.5 649.639920176 172.5 649.639920176 172.5 605 c 2
 172.5 530.5 l 1
 464.5 530.5 l 1
 464.5 -7.5 l 1
 391.5 -7.5 l 1
 391.5 468.5 l 1
 172.5 468.5 l 1
 172.5 -7.5 l 1
 99.5 -7.5 l 1
 99.5 468.5 l 1
 13.5 468.5 l 1
 13.5 530.5 l 1
 99.5 530.5 l 1
 99.5 608 l 2
 99.5 675.341494686 99.5 675.341494686 141.313534647 712.920747343 c 0
 183.127069293 750.5 183.127069293 750.5 261.505951623 750.5 c 0
 339.884833952 750.5 339.884833952 750.5 410.536528354 712.614308799 c 2
 416.96859891 709.165227486 l 1
 389.43814881 654.104327286 l 1
 382.823364162 657.20500759 l 2
 320.327380353 686.5 320.327380353 686.5 262 686.5 c 0
EndSplineSet
Ligature2: "'liga' Standard Ligatures lookup 13 subtable" f i
EndChar

StartChar: fl
Encoding: 65545 -1 128
Width: 583
GlyphClass: 3
Flags: W
LayerCount: 2
Fore
SplineSet
490 -18.5 m 0
 443.758657728 -18.5 443.758657728 -18.5 418.129328864 8.76524347233 c 0
 392.5 36.0304869447 392.5 36.0304869447 392.5 90 c 2
 392.5 667.522431447 l 1
 359.097883249 678.045905149 359.097883249 678.045905149 330.735598695 682.772952574 c 0
 302.37331414 687.5 302.37331414 687.5 267 687.5 c 0
 216.772426423 687.5 216.772426423 687.5 194.636213212 668.526102961 c 0
 172.5 649.552205923 172.5 649.552205923 172.5 607 c 2
 172.5 530.5 l 1
 311.700613127 530.5 l 1
 302.466570574 468.5 l 1
 172.5 468.5 l 1
 172.5 -7.5 l 1
 99.5 -7.5 l 1
 99.5 468.5 l 1
 13.5 468.5 l 1
 13.5 530.5 l 1
 99.5 530.5 l 1
 99.5 609 l 2
 99.5 675.397520144 99.5 675.397520144 142.34014696 712.948760072 c 0
 185.18029392 750.5 185.18029392 750.5 263 750.5 c 0
 301.676850346 750.5 301.676850346 750.5 332.416790769 744.956732055 c 0
 363.156731191 739.41346411 363.156731191 739.41346411 400.645721226 727.660854818 c 1
 465.5 736.606272579 l 1
 465.5 90 l 2
 465.5 66.6290462831 465.5 66.6290462831 473.551618513 56.5645231415 c 0
 481.603237026 46.5 481.603237026 46.5 500.468652971 46.5 c 0
 519.334068916 46.5 519.334068916 46.5 532.834924749 52.8003993887 c 2
 540.195342083 56.2352608112 l 1
 561.474225613 -0.951738675188 l 1
 555.080743712 -3.83911759827 l 2
 522.617361251 -18.5 522.617361251 -18.5 490 -18.5 c 0
EndSplineSet
Ligature2: "'liga' Standard Ligatures lookup 13 subtable" f l
EndChar

StartChar: ordfeminine
Encoding: 170 170 129
Width: 530
GlyphClass: 2
Flags: W
LayerCount: 2
Fore
SplineSet
359.290039062 319.782226562 m 1,0,1
 309.109494275 266.5 309.109494275 266.5 219.618320611 266.5 c 0,2,3
 153.58984375 266.5 153.58984375 266.5 116.294921875 300.598632812 c 128,-1,4
 79 334.697265625 79 334.697265625 79 392 c 0,5,6
 79 457.86328125 79 457.86328125 128.55078125 493.181640625 c 128,-1,7
 178.1015625 528.5 178.1015625 528.5 269.770992366 528.5 c 2,8,-1
 346 528.5 l 1,9,-1
 346 553.0703125 l 2,10,11
 346 591.71484375 346 591.71484375 324.720166388 607.857421875 c 128,-1,12
 303.32582896 624 303.32582896 624 250.470703125 624 c 128,-1,13
 197.7578125 624 197.7578125 624 134.936523438 602.405273438 c 2,14,-1
 127.928710938 599.99609375 l 1,15,-1
 107.921875 656.016601562 l 1,16,-1
 114.955078125 658.556640625 l 2,17,18
 188.18359375 685 188.18359375 685 257.511450382 685 c 0,19,20
 343.19001968 685 343.19001968 685 380.6875 652.010742188 c 128,-1,21
 418 619.020507812 418 619.020507812 418 553.850585938 c 2,22,-1
 418 373.08984375 l 2,23,24
 418 345.7734375 418 345.7734375 424.821289062 335.301757812 c 128,-1,25
 431.541015625 324.98828125 431.541015625 324.98828125 446.350585938 318.997070312 c 2,26,-1
 452.681640625 316.436523438 l 1,27,-1
 436.740234375 265.522460938 l 1,28,-1
 430.259765625 266.600585938 l 2,29,30
 398.092773438 271.8671875 398.092773438 271.8671875 379.958007812 288.063476562 c 0,31,32
 366.388671875 300.181640625 366.388671875 300.181640625 359.290039062 319.782226562 c 1,0,1
346 387.026367188 m 1,33,-1
 346 473.5 l 1,34,-1
 278.687022901 473.5 l 2,35,36
 219.430030415 473.5 219.430030415 473.5 188.40234375 457.44921875 c 0,37,38
 154 438.361328125 154 438.361328125 154 395 c 0,39,40
 154 361.321289062 154 361.321289062 173.196289062 343.91015625 c 128,-1,41
 192.392578125 326.5 192.392578125 326.5 231.877862595 326.5 c 0,42,43
 306.286229723 326.5 306.286229723 326.5 346 387.026367188 c 1,33,-1
80 0 m 1,44,-1
 80 66 l 1,45,-1
 465 66 l 1,46,-1
 465 0 l 1,47,-1
 80 0 l 1,44,-1
EndSplineSet
EndChar

StartChar: ordmasculine
Encoding: 186 186 130
Width: 530
GlyphClass: 2
Flags: W
LayerCount: 2
Fore
SplineSet
409.922851562 630.166992188 m 128,-1,1
 460 575.334960938 460 575.334960938 460 477.7421875 c 128,-1,2
 460 380.150390625 460 380.150390625 409.452148438 323.325195312 c 128,-1,3
 358.904296875 266.5 358.904296875 266.5 263.455006843 266.5 c 128,-1,4
 168.11328125 266.5 168.11328125 266.5 118.056640625 322.333984375 c 128,-1,5
 68 378.168945312 68 378.168945312 68 474.759765625 c 128,-1,6
 68 571.349609375 68 571.349609375 118.547851562 628.174804688 c 128,-1,7
 169.095703125 685 169.095703125 685 264.522239964 685 c 128,-1,0
 359.845703125 685 359.845703125 685 409.922851562 630.166992188 c 128,-1,1
355.926757812 587.869140625 m 0,8,9
 325.414119526 624 325.414119526 624 265.109489051 624 c 128,-1,10
 204.78752281 624 204.78752281 624 173.065429688 586.88671875 c 0,11,12
 143 549.7734375 143 549.7734375 143 475.734375 c 128,-1,13
 143 401.6953125 143 401.6953125 172.583007812 364.59765625 c 0,14,15
 203.718122719 327.5 203.718122719 327.5 264 327.5 c 128,-1,16
 324.281877281 327.5 324.281877281 327.5 355.416992188 364.59765625 c 0,17,18
 385 401.6953125 385 401.6953125 385 476.716796875 c 128,-1,19
 385 551.73828125 385 551.73828125 355.926757812 587.869140625 c 0,8,9
456 0 m 1,20,-1
 71 0 l 1,21,-1
 71 66 l 1,22,-1
 456 66 l 1,23,-1
 456 0 l 1,20,-1
EndSplineSet
EndChar

StartChar: uni03BC
Encoding: 65546 -1 131
Width: 615
Flags: W
LayerCount: 2
Fore
SplineSet
173.127929688 23.0087890625 m 1,0,1
 179 -21.853515625 179 -21.853515625 179 -75.0283203125 c 2,2,-1
 179 -196.264648438 l 1,3,-1
 106 -203.81640625 l 1,4,-1
 106 523 l 1,5,-1
 179 523 l 1,6,-1
 179 148.408203125 l 2,7,8
 179 95.390625 179 95.390625 205.331865027 71.4736328125 c 128,-1,9
 231.727102726 47.5 231.727102726 47.5 275.276595745 47.5 c 0,10,11
 370.697140957 47.5 370.697140957 47.5 429 157.984375 c 1,12,-1
 429 523 l 1,13,-1
 502 523 l 1,14,-1
 502 176.721679688 l 2,15,16
 502 79.9892578125 502 79.9892578125 528.598632812 3.7529296875 c 2,17,-1
 531.559570312 -4.7314453125 l 1,18,-1
 463.701171875 -13.5107421875 l 1,19,20
 449.325195312 21.6943359375 449.325195312 21.6943359375 444.670898438 41.171875 c 128,-1,21
 440.017578125 60.6494140625 440.017578125 60.6494140625 437.44921875 80.384765625 c 1,22,23
 372.545337434 -14.78515625 372.545337434 -14.78515625 275.276595745 -14.78515625 c 0,24,25
 229.402052859 -14.78515625 229.402052859 -14.78515625 199.826753657 1.9736328125 c 0,26,27
 184.840674867 10.4658203125 184.840674867 10.4658203125 173.127929688 23.0087890625 c 1,0,1
EndSplineSet
EndChar

StartChar: zero
Encoding: 48 48 132
Width: 580
Flags: W
LayerCount: 2
Fore
SplineSet
120.643554688 588.21875 m 128,-1,1
 175.287109375 676 175.287109375 676 290 676 c 128,-1,2
 404.725585938 676 404.725585938 676 459.36328125 587.724609375 c 128,-1,3
 514 499.44921875 514 499.44921875 514 332.4921875 c 128,-1,4
 514 165.534179688 514 165.534179688 459.403320312 78.1494140625 c 0,5,6
 403.5 -10.5107421875 403.5 -10.5107421875 290 -11 c 0,7,8
 175.274414062 -11 175.274414062 -11 120.63671875 77.275390625 c 128,-1,9
 66 165.55078125 66 165.55078125 66 332.989257812 c 128,-1,0
 66 500.4375 66 500.4375 120.643554688 588.21875 c 128,-1,1
401.333984375 544.561523438 m 0,10,11
 363.753319301 613 363.753319301 613 290 613 c 0,12,13
 141 613 141 613 141 325 c 128,-1,14
 141 37 141 37 290 37 c 0,15,16
 363.769106218 37 363.769106218 37 401.34375 104.95703125 c 0,17,18
 438 175.336914062 438 175.336914062 438 324.5 c 128,-1,19
 438 473.673828125 438 473.673828125 401.333984375 544.561523438 c 0,10,11
EndSplineSet
Substitution2: "'frac' Diagonal Fractions lookup 11 subtable" zero.numr
Substitution2: "'dnom' Denominators lookup 9 subtable" zero.dnom
Substitution2: "'numr' Numerators lookup 8 subtable" zero.numr
EndChar

StartChar: one
Encoding: 49 49 133
Width: 428
Flags: W
LayerCount: 2
Fore
SplineSet
250.237304688 665 m 1,0,-1
 309.868164062 665 l 1,1,-1
 309.868164062 0 l 1,2,-1
 236.868164062 0 l 1,3,-1
 236.868164062 581.877929688 l 1,4,-1
 77.9873046875 485.2421875 l 1,5,-1
 43 539.734375 l 1,6,-1
 250.237304688 665 l 1,0,-1
EndSplineSet
Substitution2: "'frac' Diagonal Fractions lookup 11 subtable" one.numr
Substitution2: "'dnom' Denominators lookup 9 subtable" one.dnom
Substitution2: "'numr' Numerators lookup 8 subtable" one.numr
EndChar

StartChar: two
Encoding: 50 50 134
Width: 509
Flags: W
LayerCount: 2
Fore
SplineSet
389.525390625 626.057617188 m 0,0,1
 441.25 576.083984375 441.25 576.083984375 441.25 497.879882812 c 0,2,3
 441.25 432.791992188 441.25 432.791992188 413.681640625 375.989257812 c 128,-1,4
 386.11328125 319.185546875 386.11328125 319.185546875 328.637420796 253.942382812 c 0,5,6
 267.197335277 188.69921875 267.197335277 188.69921875 139.178710938 66 c 1,7,-1
 460.51953125 66 l 1,8,-1
 450.166992188 0 l 1,9,-1
 46.25 0 l 1,10,-1
 46.25 58.04296875 l 1,11,12
 187.939391433 202.521484375 187.939391433 202.521484375 252.202990782 270.897460938 c 128,-1,13
 316.465528659 339.274414062 316.465528659 339.274414062 342.3203125 388.373046875 c 0,14,15
 366.25 437.47265625 366.25 437.47265625 366.25 492.734375 c 128,-1,16
 366.25 547.99609375 366.25 547.99609375 333.335493055 580.020507812 c 0,17,18
 298.23157356 612 298.23157356 612 239.683997509 612 c 0,19,20
 191.729905676 612 191.729905676 612 154.732321267 593.782226562 c 0,21,22
 120.555664062 575.564453125 120.555664062 575.564453125 89.4892578125 538.673828125 c 2,23,-1
 84.9208984375 533.248046875 l 1,24,-1
 33 572.188476562 l 1,25,-1
 37.9375 578.23828125 l 2,26,27
 78.9716796875 628.504882812 78.9716796875 628.504882812 126.932617188 652.2265625 c 0,28,29
 176.907519542 676 176.907519542 676 242.944837541 676 c 0,30,31
 337.599423526 676 337.599423526 676 389.525390625 626.057617188 c 0,0,1
EndSplineSet
Substitution2: "'frac' Diagonal Fractions lookup 11 subtable" two.numr
Substitution2: "'dnom' Denominators lookup 9 subtable" two.dnom
Substitution2: "'numr' Numerators lookup 8 subtable" two.numr
EndChar

StartChar: three
Encoding: 51 51 135
Width: 516
Flags: W
LayerCount: 2
Fore
SplineSet
413.999023438 592.607421875 m 128,-1,1
 437.025390625 554.197265625 437.025390625 554.197265625 437.025390625 506.20703125 c 0,2,3
 437.025390625 439.778320312 437.025390625 439.778320312 398.59765625 398.05078125 c 0,4,5
 372.3828125 369.584960938 372.3828125 369.584960938 335.423683513 355.7734375 c 1,6,7
 379.54296875 345.060546875 379.54296875 345.060546875 411.389648438 313.162109375 c 0,8,9
 456.025390625 268.452148438 456.025390625 268.452148438 456.025390625 191.087890625 c 0,10,11
 456.025390625 132.358398438 456.025390625 132.358398438 429.024414062 86.6240234375 c 128,-1,12
 401.934570312 40.740234375 401.934570312 40.740234375 351.729492188 15.115234375 c 0,13,14
 298.666675623 -10.5107421875 298.666675623 -10.5107421875 228.280690835 -11 c 0,15,16
 102.116210938 -11 102.116210938 -11 24.87109375 77.57421875 c 2,17,-1
 20 83.16015625 l 1,18,-1
 68.0478515625 126.013671875 l 1,19,-1
 73.048828125 120.572265625 l 2,20,21
 106.005859375 84.7060546875 106.005859375 84.7060546875 141.200241778 68.837890625 c 0,22,23
 179.139514257 53 179.139514257 53 226.114968227 53 c 0,24,25
 300.719247685 53 300.719247685 53 342.223632812 90.740234375 c 0,26,27
 381.025390625 128.48046875 381.025390625 128.48046875 381.025390625 190.626953125 c 0,28,29
 381.025390625 262.620117188 381.025390625 262.620117188 337.748046875 294.048828125 c 0,30,31
 299.940941122 319.5 299.940941122 319.5 230.446413444 319.5 c 2,32,-1
 173.178489674 319.5 l 1,33,-1
 184.606694866 381.5 l 1,34,-1
 226.114968227 381.5 l 2,35,36
 284.822124649 381.5 284.822124649 381.5 325.583815899 412.943359375 c 0,37,38
 364.025390625 444.387695312 364.025390625 444.387695312 364.025390625 503.044921875 c 0,39,40
 364.025390625 553.146484375 364.025390625 553.146484375 330.9124664 582.573242188 c 0,41,42
 295.47942565 612 295.47942565 612 235.860719966 612 c 0,43,44
 191.999549729 612 191.999549729 612 155.583050959 598.067382812 c 0,45,46
 120.612304688 584.073242188 120.612304688 584.073242188 85.5908203125 551.970703125 c 2,47,-1
 79.890625 546.745117188 l 1,48,-1
 39.18359375 594.018554688 l 1,49,-1
 44.3623046875 598.9375 l 2,50,51
 85.3603515625 637.885742188 85.3603515625 637.885742188 130.624023438 656.916992188 c 0,52,53
 178.993581776 676 178.993581776 676 240.381454416 676 c 128,-1,54
 301.770384537 676 301.770384537 676 347.654296875 653.555664062 c 0,55,0
 390.91796875 631.111328125 390.91796875 631.111328125 413.999023438 592.607421875 c 128,-1,1
EndSplineSet
Substitution2: "'frac' Diagonal Fractions lookup 11 subtable" three.numr
Substitution2: "'dnom' Denominators lookup 9 subtable" three.dnom
Substitution2: "'numr' Numerators lookup 8 subtable" three.numr
EndChar

StartChar: four
Encoding: 52 52 136
Width: 548
Flags: W
LayerCount: 2
Fore
SplineSet
423 230.5 m 1,0,-1
 513 230.5 l 1,1,-1
 513 167.5 l 1,2,-1
 423 167.5 l 1,3,-1
 423 0 l 1,4,-1
 351 0 l 1,5,-1
 351 167.5 l 1,6,-1
 45 167.5 l 1,7,-1
 45 218.8359375 l 1,8,-1
 257.690856074 678.196289062 l 1,9,-1
 324.987400968 652.958984375 l 1,10,-1
 125.982421875 230.5 l 1,11,-1
 351.264648438 230.5 l 1,12,-1
 355.818496919 425.5 l 1,13,-1
 423 425.5 l 1,14,-1
 423 230.5 l 1,0,-1
EndSplineSet
Substitution2: "'frac' Diagonal Fractions lookup 11 subtable" four.numr
Substitution2: "'dnom' Denominators lookup 9 subtable" four.dnom
Substitution2: "'numr' Numerators lookup 8 subtable" four.numr
EndChar

StartChar: five
Encoding: 53 53 137
Width: 517
Flags: W
LayerCount: 2
Fore
SplineSet
153.076171875 402.50390625 m 1,0,1
 208.833502211 428.5 208.833502211 428.5 268.370464655 428.5 c 0,2,3
 363.890625 428.5 363.890625 428.5 416.483398438 371.669921875 c 128,-1,4
 469.076171875 314.838867188 469.076171875 314.838867188 469.076171875 217.598632812 c 0,5,6
 469.076171875 151.90234375 469.076171875 151.90234375 441.6640625 99.5234375 c 128,-1,7
 414.251953125 47.1435546875 414.251953125 47.1435546875 363.868164062 18.033203125 c 0,8,9
 310.663522059 -11 310.663522059 -11 239.1214164 -11 c 0,10,11
 118.387695312 -11 118.387695312 -11 39.1728515625 71.30078125 c 2,12,-1
 34 76.67578125 l 1,13,-1
 80.8134765625 122.188476562 l 1,14,-1
 86.0380859375 116.637695312 l 2,15,16
 116.998046875 83.7431640625 116.998046875 83.7431640625 151.616210938 68.357421875 c 0,17,18
 188.850672622 53 188.850672622 53 239.1214164 53 c 0,19,20
 312.318090616 53 312.318090616 53 354.110351562 97.0888671875 c 0,21,22
 393.076171875 141.177734375 393.076171875 141.177734375 393.076171875 217.463867188 c 128,-1,23
 393.076171875 293.749023438 393.076171875 293.749023438 357.637695312 330.206054688 c 0,24,25
 320.131801207 366.5 320.131801207 366.5 254.287589569 366.5 c 0,26,27
 220.843934966 366.5 220.843934966 366.5 195.304971066 359.283203125 c 128,-1,28
 169.766007166 352.06640625 169.766007166 352.06640625 137.5546875 334.5 c 1,29,-1
 82.076171875 334.5 l 1,30,-1
 82.076171875 665 l 1,31,-1
 448.614257812 665 l 1,32,-1
 436.801757812 602 l 1,33,-1
 153.076171875 602 l 1,34,-1
 153.076171875 402.50390625 l 1,0,1
EndSplineSet
Substitution2: "'frac' Diagonal Fractions lookup 11 subtable" five.numr
Substitution2: "'dnom' Denominators lookup 9 subtable" five.dnom
Substitution2: "'numr' Numerators lookup 8 subtable" five.numr
EndChar

StartChar: six
Encoding: 54 54 138
Width: 554
Flags: W
LayerCount: 2
Fore
SplineSet
450.876953125 385.639648438 m 128,-1,1
 503 330.779296875 503 330.779296875 503 227.537109375 c 0,2,3
 503 156.02734375 503 156.02734375 476.674804688 101.69921875 c 128,-1,4
 450.350585938 47.37109375 450.350585938 47.37109375 404.037109375 18.1943359375 c 0,5,6
 355.398351648 -10.5078125 355.398351648 -10.5078125 292.618131868 -11 c 0,7,8
 170.245117188 -11 170.245117188 -11 118.122070312 74.3515625 c 128,-1,9
 66 159.702148438 66 159.702148438 66 300.694335938 c 0,10,11
 66 414.458984375 66 414.458984375 95.5361328125 499.1796875 c 128,-1,12
 125.071289062 583.900390625 125.071289062 583.900390625 180.916992188 629.950195312 c 0,13,14
 240.947490986 676 240.947490986 676 324.008241758 676 c 0,15,16
 397.819335938 676 397.819335938 676 456.727539062 635.694335938 c 2,17,-1
 462.672851562 631.625976562 l 1,18,-1
 429.825195312 579.0703125 l 1,19,-1
 423.438476562 583.1953125 l 2,20,21
 376.818380838 613 376.818380838 613 322.925824176 613 c 0,22,23
 239.875643887 613 239.875643887 613 190.283160199 538.90625 c 0,24,25
 147.4453125 468.833007812 147.4453125 468.833007812 140.962890625 358.971679688 c 1,26,27
 208.518302498 440.5 208.518302498 440.5 313.184065934 440.5 c 0,28,0
 398.75390625 440.5 398.75390625 440.5 450.876953125 385.639648438 c 128,-1,1
177.533203125 108.7265625 m 0,29,30
 213.907135345 52 213.907135345 52 292.618131868 52 c 0,31,32
 359.842183207 52 359.842183207 52 395.302734375 98.8564453125 c 0,33,34
 429 145.711914062 429 145.711914062 429 224.810546875 c 128,-1,35
 429 303.91015625 429 303.91015625 396.533203125 340.705078125 c 0,36,37
 362.505945227 377.5 362.505945227 377.5 304.524725275 377.5 c 0,38,39
 252.993614784 377.5 252.993614784 377.5 210.178925567 350.016601562 c 0,40,41
 168.896484375 322.611328125 168.896484375 322.611328125 140.056640625 275.392578125 c 1,42,43
 143.283203125 165.453125 143.283203125 165.453125 177.533203125 108.7265625 c 0,29,30
EndSplineSet
Substitution2: "'frac' Diagonal Fractions lookup 11 subtable" six.numr
Substitution2: "'dnom' Denominators lookup 9 subtable" six.dnom
Substitution2: "'numr' Numerators lookup 8 subtable" six.numr
EndChar

StartChar: seven
Encoding: 55 55 139
Width: 467
Flags: W
LayerCount: 2
Fore
SplineSet
30 665 m 1,0,-1
 431 665 l 1,1,-1
 431 612.169921875 l 1,2,-1
 150.815208958 -9.8203125 l 1,3,-1
 82.4345703125 12.40234375 l 1,4,-1
 352.188476562 601 l 1,5,-1
 30 601 l 1,6,-1
 30 665 l 1,0,-1
EndSplineSet
Substitution2: "'frac' Diagonal Fractions lookup 11 subtable" seven.numr
Substitution2: "'dnom' Denominators lookup 9 subtable" seven.dnom
Substitution2: "'numr' Numerators lookup 8 subtable" seven.numr
EndChar

StartChar: eight
Encoding: 56 56 140
Width: 568
Flags: W
LayerCount: 2
Fore
SplineSet
477.701171875 285.399414062 m 0,0,1
 515 242.728515625 515 242.728515625 515 176.408203125 c 0,2,3
 515 120.373046875 515 120.373046875 486.256835938 77.9228515625 c 128,-1,4
 457.580078125 35.572265625 457.580078125 35.572265625 406.370117188 12.2861328125 c 0,5,6
 352.272163723 -11 352.272163723 -11 281.855072464 -11 c 128,-1,7
 211.404466712 -11 211.404466712 -11 158.575195312 12.3134765625 c 0,8,9
 108.33984375 35.626953125 108.33984375 35.626953125 80.673828125 78.02734375 c 128,-1,10
 53 120.440429688 53 120.440429688 53 175.4296875 c 0,11,12
 53 298.546875 53 298.546875 186.239271966 356.916015625 c 1,13,14
 136.055664062 381.583984375 136.055664062 381.583984375 111.067382812 413.15234375 c 0,15,16
 82 449.874023438 82 449.874023438 82 504.130859375 c 128,-1,17
 82 558.38671875 82 558.38671875 109.305664062 597.443359375 c 128,-1,18
 136.49609375 636.333007812 136.49609375 636.333007812 181.779749774 656.166015625 c 0,19,20
 229.708616395 676 229.708616395 676 284 676 c 128,-1,21
 338.251585145 676 338.251585145 676 386.145889946 656.688476562 c 0,22,23
 431.40234375 637.377929688 431.40234375 637.377929688 459.201171875 599.393554688 c 128,-1,24
 487 561.409179688 487 561.409179688 487 507.600585938 c 128,-1,25
 487 453.791992188 487 453.791992188 456.436523438 415.114257812 c 0,26,27
 429.7890625 381.392578125 429.7890625 381.392578125 375.578351449 352.3984375 c 1,28,29
 444.4609375 323.427734375 444.4609375 323.427734375 477.701171875 285.399414062 c 0,0,1
390.755180027 428.053710938 m 0,30,31
 414 458.040039062 414 458.040039062 414 501.5 c 0,32,33
 414 555.165039062 414 555.165039062 379.782325634 585.083007812 c 0,34,35
 344.187839674 615 344.187839674 615 285.05675385 615 c 128,-1,36
 225.925668025 615 225.925668025 615 189.8106601 585.067382812 c 0,37,38
 155 555.133789062 155 555.133789062 155 501.5 c 0,39,40
 155 456.565429688 155 456.565429688 181.399569746 430.262695312 c 0,41,42
 209.103487319 403.9609375 209.103487319 403.9609375 280.337494339 379.541992188 c 2,43,-1
 310.133973053 369.68359375 l 1,44,45
 366.229902627 398.185546875 366.229902627 398.185546875 390.755180027 428.053710938 c 0,30,31
398.890625 86.5029296875 m 0,46,47
 439 120.005859375 439 120.005859375 439 180.5 c 0,48,49
 439 218.524414062 439 218.524414062 424.96875 243.313476562 c 128,-1,50
 410.904296875 268.159179688 410.904296875 268.159179688 380.020069067 286.950195312 c 0,51,52
 347.98230865 305.741210938 347.98230865 305.741210938 288.686792346 326.474609375 c 2,53,-1
 255.081182065 338.456054688 l 1,54,55
 187.579851676 313.471679688 187.579851676 313.471679688 157.797851562 275.232421875 c 0,56,57
 129 236.993164062 129 236.993164062 129 178.001953125 c 128,-1,58
 129 119.010742188 129 119.010742188 168.606445312 86.005859375 c 0,59,60
 210.765596694 53 210.765596694 53 283.460626132 53 c 128,-1,61
 356.156702899 53 356.156702899 53 398.890625 86.5029296875 c 0,46,47
EndSplineSet
Substitution2: "'frac' Diagonal Fractions lookup 11 subtable" eight.numr
Substitution2: "'dnom' Denominators lookup 9 subtable" eight.dnom
Substitution2: "'numr' Numerators lookup 8 subtable" eight.numr
EndChar

StartChar: nine
Encoding: 57 57 141
Width: 548
Flags: W
LayerCount: 2
Fore
SplineSet
155.764648438 648.96875 m 0,0,1
 206.049515538 676 206.049515538 676 270 676 c 0,2,3
 382.352539062 676 382.352539062 676 434.67578125 604.498046875 c 128,-1,4
 487 532.99609375 487 532.99609375 487 405.731445312 c 128,-1,5
 487 278.467773438 487 278.467773438 449.237304688 196.545898438 c 128,-1,6
 411.474609375 114.625 411.474609375 114.625 336.255673883 65.7607421875 c 0,7,8
 257.310874214 16.896484375 257.310874214 16.896484375 132.706054688 -18.669921875 c 2,9,-1
 125.701171875 -20.8251953125 l 1,10,-1
 105.948242188 36.78125 l 1,11,-1
 113.31640625 38.9609375 l 2,12,13
 255.926490485 79.255859375 255.926490485 79.255859375 333.055080307 148.912109375 c 0,14,15
 398.772460938 211.456054688 398.772460938 211.456054688 410.866210938 315.844726562 c 1,16,17
 385.1171875 285.177734375 385.1171875 285.177734375 351.036192825 266.016601562 c 0,18,19
 303.627400489 240.5 303.627400489 240.5 246.095037535 240.5 c 128,-1,20
 188.561616184 240.5 188.561616184 240.5 144.546875 266.67578125 c 0,21,22
 101.723632812 292.858398438 101.723632812 292.858398438 77.3623046875 341.267578125 c 128,-1,23
 53 389.67578125 53 389.67578125 53 455.36328125 c 128,-1,24
 53 521.05078125 53 521.05078125 80.44921875 571.456054688 c 128,-1,25
 107.8984375 621.861328125 107.8984375 621.861328125 155.764648438 648.96875 c 0,0,1
381.14453125 561.26953125 m 0,26,27
 347.773153806 613 347.773153806 613 272.167597765 613 c 0,28,29
 203.266988914 613 203.266988914 613 164.463867188 571.8515625 c 0,30,31
 128 530.702148438 128 530.702148438 128 455.78515625 c 128,-1,32
 128 380.868164062 128 380.868164062 161.489257812 342.184570312 c 0,33,34
 196.821349075 303.5 196.821349075 303.5 258.078212291 303.5 c 0,35,36
 306.515766847 303.5 306.515766847 303.5 345.096466917 327.133789062 c 0,37,38
 382.342773438 350.737304688 382.342773438 350.737304688 413.015625 396.024414062 c 0,39,40
 413.028320312 399.309570312 413.028320312 399.309570312 413.028320312 400.400390625 c 0,41,42
 413.028320312 509.5390625 413.028320312 509.5390625 381.14453125 561.26953125 c 0,26,27
EndSplineSet
Substitution2: "'frac' Diagonal Fractions lookup 11 subtable" nine.numr
Substitution2: "'dnom' Denominators lookup 9 subtable" nine.dnom
Substitution2: "'numr' Numerators lookup 8 subtable" nine.numr
EndChar

StartChar: zero.dnom
Encoding: 65547 -1 142
Width: 400
Flags: W
LayerCount: 2
Fore
SplineSet
200 428.5 m 0
 272.003085653 428.5 272.003085653 428.5 310.251542827 371.389289974 c 0
 348.5 314.278579948 348.5 314.278579948 348.5 207.008596998 c 0
 348.5 99.7386140475 348.5 99.7386140475 310.261732612 42.1193070237 c 0
 272.023465223 -15.5 272.023465223 -15.5 200 -15.5 c 0
 127.95636552 -15.5 127.95636552 -15.5 89.72818276 42.6277847446 c 0
 51.5 100.755569489 51.5 100.755569489 51.5 207.517074719 c 0
 51.5 314.278579948 51.5 314.278579948 89.7484571734 371.389289974 c 0
 127.996914347 428.5 127.996914347 428.5 200 428.5 c 0
119.5 207 m 0
 119.5 118.903086275 119.5 118.903086275 140.482764352 80.2015431375 c 0
 161.465528703 41.5 161.465528703 41.5 200 41.5 c 0
 238.560365755 41.5 238.560365755 41.5 259.530182877 79.711666757 c 0
 280.5 117.923333514 280.5 117.923333514 280.5 206.528679951 c 0
 280.5 295.134026389 280.5 295.134026389 259.368934779 334.994899419 c 0
 239.486712784 372.5 239.486712784 372.5 200.476120744 372.5 c 0
 161.465528703 372.5 161.465528703 372.5 140.482764352 333.798456863 c 0
 119.5 295.096913725 119.5 295.096913725 119.5 207 c 0
EndSplineSet
EndChar

StartChar: one.dnom
Encoding: 65548 -1 143
Width: 400
Flags: W
LayerCount: 2
Fore
SplineSet
265.5 421.5 m 1
 265.5 -7.5 l 1
 199.5 -7.5 l 1
 199.5 345.951258165 l 1
 101.555541827 288.896233987 l 1
 70.5085452814 337.491532928 l 1
 211.940521491 421.5 l 1
 265.5 421.5 l 1
EndSplineSet
EndChar

StartChar: two.dnom
Encoding: 65549 -1 144
Width: 400
Flags: W
LayerCount: 2
Fore
SplineSet
329.5 307 m 0
 329.5 267.204577531 329.5 267.204577531 311.8702429 232.463585597 c 0
 294.240485799 197.722593664 294.240485799 197.722593664 258.396428118 158.00350272 c 0
 222.552370436 118.284411775 222.552370436 118.284411775 153.401305662 50.5 c 1
 342.820625477 50.5 l 1
 333.378765012 -7.5 l 1
 67.5 -7.5 l 1
 67.5 44.104521875 l 1
 155.581648507 132.186170382 155.581648507 132.186170382 193.686759227 173.755382076 c 0
 231.791869947 215.324593771 231.791869947 215.324593771 246.645934973 244.074397048 c 0
 261.5 272.824200325 261.5 272.824200325 261.5 303.804607173 c 0
 261.5 334.78501402 261.5 334.78501402 243.332935287 352.065880455 c 0
 225.004758329 369.5 225.004758329 369.5 195.406612082 369.5 c 0
 165.808465835 369.5 165.808465835 369.5 145.755933107 359.24056465 c 0
 125.703400378 348.981129301 125.703400378 348.981129301 106.661085443 327.082467126 c 2
 102.10200546 321.839525145 l 1
 55.1236270249 356.737749125 l 1
 60.2657858475 362.832159582 l 2
 88.3321321262 396.095977394 88.3321321262 396.095977394 121.823364162 411.79499241 c 0
 155.327380353 427.5 155.327380353 427.5 197 427.5 c 0
 256.972221498 427.5 256.972221498 427.5 293.137984102 393.461635196 c 0
 329.5 359.23856141 329.5 359.23856141 329.5 307 c 0
EndSplineSet
EndChar

StartChar: three.dnom
Encoding: 65550 -1 145
Width: 400
Flags: W
LayerCount: 2
Fore
SplineSet
332.5 317 m 0
 332.5 275.030486945 332.5 275.030486945 306.964866316 247.865451111 c 0
 291.773793267 231.704735101 291.773793267 231.704735101 270.532358712 222.172390213 c 1
 295.268734196 214.499260069 295.268734196 214.499260069 313.753020763 196.351051441 c 0
 343.5 167.144926371 343.5 167.144926371 343.5 117 c 0
 343.5 58.6552701913 343.5 58.6552701913 302.184920893 21.5776350956 c 0
 260.869841787 -15.5 260.869841787 -15.5 192 -15.5 c 0
 110.688112114 -15.5 110.688112114 -15.5 57.4541898279 42.9529342746 c 2
 52.3861539378 48.5178364285 l 1
 94.3268774475 86.3997802437 l 1
 99.3662405976 81.2375057972 l 2
 138.157615304 41.5 138.157615304 41.5 189 41.5 c 0
 231.033308569 41.5 231.033308569 41.5 253.266654285 62.3721204675 c 0
 275.5 83.2442409351 275.5 83.2442409351 275.5 118 c 0
 275.5 158.55089698 275.5 158.55089698 250.606140638 176.058666202 c 0
 230.072369143 190.5 230.072369143 190.5 192 190.5 c 2
 153.032913138 190.5 l 1
 162.72522083 244.5 l 1
 189 244.5 l 2
 221.434312251 244.5 221.434312251 244.5 243.467156126 261.58669525 c 0
 265.5 278.673390499 265.5 278.673390499 265.5 312 c 0
 265.5 340.552205923 265.5 340.552205923 246.863786788 356.526102961 c 0
 228.227573577 372.5 228.227573577 372.5 196 372.5 c 0
 170.477928157 372.5 170.477928157 372.5 149.691374438 363.996409842 c 0
 128.904820719 355.492819684 128.904820719 355.492819684 105.796784385 336.236122739 c 2
 100.164209336 331.542310199 l 1
 63.3812585039 373.774587081 l 1
 69.1231445949 378.69620373 l 2
 98.0684355701 403.506453137 98.0684355701 403.506453137 129.218933168 415.966652177 c 0
 160.552302727 428.5 160.552302727 428.5 199 428.5 c 0
 259.762094048 428.5 259.762094048 428.5 296.131047024 397.479422461 c 0
 332.5 366.458844923 332.5 366.458844923 332.5 317 c 0
EndSplineSet
EndChar

StartChar: four.dnom
Encoding: 65551 -1 146
Width: 400
Flags: W
LayerCount: 2
Fore
SplineSet
354.5 152.5 m 1
 354.5 95.5 l 1
 298.5 95.5 l 1
 298.5 -7.5 l 1
 233.5 -7.5 l 1
 233.5 95.5 l 1
 44.5 95.5 l 1
 44.5 141.652959438 l 1
 178.144755433 430.531238489 l 1
 236.171892226 408.11166291 l 1
 117.741778137 152.5 l 1
 233.818883825 152.5 l 1
 238.818883825 267.5 l 1
 298.5 267.5 l 1
 298.5 152.5 l 1
 354.5 152.5 l 1
EndSplineSet
EndChar

StartChar: five.dnom
Encoding: 65552 -1 147
Width: 400
Flags: W
LayerCount: 2
Fore
SplineSet
213 273.5 m 0
 272.199820007 273.5 272.199820007 273.5 308.416302478 235.685731537 c 0
 344.5 198.010106184 344.5 198.010106184 344.5 132.938951276 c 0
 344.5 67.8677963687 344.5 67.8677963687 302.268552742 26.1642422016 c 0
 260.07691507 -15.5 260.07691507 -15.5 191 -15.5 c 0
 149.435141111 -15.5 149.435141111 -15.5 117.011159868 -1.37987913615 c 0
 84.7751165232 12.6583978045 84.7751165232 12.6583978045 56.7994800092 39.5978996328 c 2
 50.9275470177 45.2523536247 l 1
 95.330974448 84.273547427 l 1
 100.302260938 79.3022609375 l 2
 119.312870818 60.291651057 119.312870818 60.291651057 140.540094908 50.8573292392 c 0
 161.594085696 41.5 161.594085696 41.5 191 41.5 c 0
 229.810606122 41.5 229.810606122 41.5 253.095999042 65.6985455842 c 0
 276.5 90.0203505009 276.5 90.0203505009 276.5 133.457914313 c 0
 276.5 176.895478125 276.5 176.895478125 255.697739063 197.697739063 c 0
 234.895478125 218.5 234.895478125 218.5 200 218.5 c 0
 181.105883467 218.5 181.105883467 218.5 166.976013841 214.261039112 c 0
 152.846144215 210.022078224 152.846144215 210.022078224 132.854195589 199.5 c 1
 85.5 199.5 l 1
 85.5 421.5 l 1
 331.106033724 421.5 l 1
 320.179204456 365.5 l 1
 150.5 365.5 l 1
 150.5 259.760218935 l 1
 182.416719694 273.5 182.416719694 273.5 213 273.5 c 0
EndSplineSet
EndChar

StartChar: six.dnom
Encoding: 65553 -1 148
Width: 400
Flags: W
LayerCount: 2
Fore
SplineSet
309.841690342 243.262538382 m 0
 345.5 207.072015147 345.5 207.072015147 345.5 138.567547919 c 0
 345.5 70.0630806909 345.5 70.0630806909 305.887462643 27.2815403455 c 0
 266.274925286 -15.5 266.274925286 -15.5 205 -15.5 c 0
 126.933527958 -15.5 126.933527958 -15.5 90.7167639789 40.1373475618 c 0
 54.5 95.7746951237 54.5 95.7746951237 54.5 186 c 0
 54.5 299.367438952 54.5 299.367438952 99.8005355288 363.933719476 c 0
 145.101071058 428.5 145.101071058 428.5 224 428.5 c 0
 274.245104205 428.5 274.245104205 428.5 314.114451963 402.270165949 c 2
 320.210642202 398.259514476 l 1
 291.50795648 351.788499498 l 1
 285.179003638 355.546315247 l 2
 254.941218791 373.5 254.941218791 373.5 224 373.5 c 0
 178.077481748 373.5 178.077481748 373.5 151.799458006 332.930419487 c 0
 128.603705097 297.119432538 128.603705097 297.119432538 122.95032488 237.720722017 c 1
 164.209876891 279.499999962 164.209876891 279.499999962 219.173504731 279.499999981 c 0
 274.137132571 279.5 274.137132571 279.5 309.841690342 243.262538382 c 0
205 40.5 m 0
 240.133654842 40.5 240.133654842 40.5 259.316827421 67.4477900514 c 0
 278.5 94.3955801028 278.5 94.3955801028 278.5 138.773075516 c 0
 278.5 183.15057093 278.5 183.15057093 260.566920413 203.325285465 c 0
 242.633840826 223.5 242.633840826 223.5 213.867127145 223.5 c 0
 185.100413464 223.5 185.100413464 223.5 161.672225634 209.259336809 c 0
 138.244037804 195.018673619 138.244037804 195.018673619 121.569796769 169.876244514 c 1
 123.802755337 103.659480624 123.802755337 103.659480624 143.482884088 72.0797403118 c 0
 163.163012839 40.5 163.163012839 40.5 205 40.5 c 0
EndSplineSet
EndChar

StartChar: seven.dnom
Encoding: 65554 -1 149
Width: 400
Flags: W
LayerCount: 2
Fore
SplineSet
332.5 421.5 m 1
 332.5 374.421075583 l 1
 161.113805481 -15.2784857638 l 1
 98.7614952362 5.50561765111 l 1
 259.412713908 363.5 l 1
 67.5 363.5 l 1
 67.5 421.5 l 1
 332.5 421.5 l 1
EndSplineSet
EndChar

StartChar: eight.dnom
Encoding: 65555 -1 150
Width: 400
Flags: W
LayerCount: 2
Fore
SplineSet
353.5 109 m 0
 353.5 53.376031637 353.5 53.376031637 310.055118506 18.9380158185 c 0
 266.610237012 -15.5 266.610237012 -15.5 198 -15.5 c 0
 129.286562902 -15.5 129.286562902 -15.5 88.203215615 18.7361227393 c 0
 47 53 47 53 46.5 107 c 0
 46.5 148.691434179 46.5 148.691434179 71.7110803295 179.266574153 c 0
 92.2549003931 204.181419762 92.2549003931 204.181419762 126.655774389 220.629011788 c 1
 98.7085038691 236.465874456 98.7085038691 236.465874456 84.0621290356 255.420006597 c 0
 65.5 279.441585349 65.5 279.441585349 65.5 316 c 0
 65.5 367.688687983 65.5 367.688687983 104.974009555 398.094343991 c 0
 144.44801911 428.5 144.44801911 428.5 200 428.5 c 0
 255.480435388 428.5 255.480435388 428.5 294.990217694 399.134621259 c 0
 334.5 369.769242518 334.5 369.769242518 334.5 317 c 0
 334.5 283.359825875 334.5 283.359825875 314.346825029 258.304527263 c 0
 298.326644779 238.387546411 298.326644779 238.387546411 268.391059659 221.617749168 c 1
 308.022892253 203.248076651 308.022892253 203.248076651 328.618728517 179.965826959 c 0
 353.5 151.839172238 353.5 151.839172238 353.5 109 c 0
269.5 316 m 0
 269.5 344.488802418 269.5 344.488802418 250.893281451 359.994401209 c 0
 232.286562902 375.5 232.286562902 375.5 200.475596738 375.5 c 0
 168.664630575 375.5 168.664630575 375.5 149.582315287 359.967882906 c 0
 130.5 344.435765811 130.5 344.435765811 130.5 317.736446306 c 0
 130.5 291.037126802 130.5 291.037126802 144.791640549 276.298872485 c 0
 159.083281098 261.560618169 159.083281098 261.560618169 197.317334496 249.134550815 c 0
 197.589804036 249.040121797 197.589804036 249.040121797 213.522926059 243.17002421 c 1
 243.716218852 258.747646588 243.716218852 258.747646588 256.534488538 275.54399997 c 0
 269.5 292.533290851 269.5 292.533290851 269.5 316 c 0
286.5 109 m 0
 286.5 138.776008321 286.5 138.776008321 269.241811782 155.125870843 c 0
 251.983623565 171.475733365 251.983623565 171.475733365 206.451648229 187.944745721 c 2
 184.011819444 196.023076028 l 1
 146.026069551 181.976917292 146.026069551 181.976917292 129.763034776 161.196372856 c 0
 113.5 140.415828421 113.5 140.415828421 113.5 107.589726486 c 0
 113.5 74.763624552 113.5 74.763624552 136.492695423 57.631812276 c 0
 159.485390846 40.5 159.485390846 40.5 199.519228469 40.5 c 0
 239.553066092 40.5 239.553066092 40.5 263.026533046 57.6536873895 c 0
 286.5 74.807374779 286.5 74.807374779 286.5 109 c 0
EndSplineSet
EndChar

StartChar: nine.dnom
Encoding: 65556 -1 151
Width: 400
Flags: W
LayerCount: 2
Fore
SplineSet
200 428.5 m 0
 271.590308952 428.5 271.590308952 428.5 308.545154476 382.570406277 c 0
 345.5 336.640812555 345.5 336.640812555 345.5 254.94960772 c 0
 345.5 173.258402886 345.5 173.258402886 319.153454913 119.532114867 c 0
 292.806909827 65.8058268467 292.806909827 65.8058268467 241.943875856 33.4384415928 c 0
 191.080841886 1.07105633887 191.080841886 1.07105633887 111.013782191 -21.2260995255 c 2
 104.029519074 -23.171084191 l 1
 87.4964757991 29.1835528463 l 1
 95.0245632687 31.2366676108 l 2
 181.305918428 54.7679462906 181.305918428 54.7679462906 226.475922943 95.5666600464 c 0
 262.498084497 128.102805966 262.498084497 128.102805966 273.656814873 179.606507455 c 1
 236 144 236 144 182 143.5 c 0
 126.769142044 143.5 126.769142044 143.5 90.5473315403 181.852505239 c 0
 54.5 220.020268046 54.5 220.020268046 54.5 284.591393508 c 0
 54.5 349.16251897 54.5 349.16251897 95.2684964113 388.872093397 c 0
 135.95314719 428.5 135.95314719 428.5 200 428.5 c 0
278.457982228 250.380326802 m 1
 277.163585457 315.387694822 277.163585457 315.387694822 259.003490202 344.443847411 c 0
 240.843394947 373.5 240.843394947 373.5 202.088436032 373.5 c 0
 163.333477118 373.5 163.333477118 373.5 142.416738559 350.309702902 c 0
 121.5 327.119405804 121.5 327.119405804 121.5 283.990071811 c 0
 121.5 240.860737819 121.5 240.860737819 140.427138175 219.68036891 c 0
 159.354276349 198.5 159.354276349 198.5 193 198.5 c 0
 240.274946872 198.5 240.274946872 198.5 278.457982228 250.380326802 c 1
EndSplineSet
EndChar

StartChar: one.numr
Encoding: 65558 -1 153
Width: 400
Flags: W
LayerCount: 2
Fore
SplineSet
265.5 692.5 m 1
 265.5 263.5 l 1
 199.5 263.5 l 1
 199.5 616.951258165 l 1
 101.555541827 559.896233987 l 1
 70.5085452814 608.491532928 l 1
 211.940521491 692.5 l 1
 214 692.5 l 1
 265.5 692.5 l 1
EndSplineSet
Substitution2: "Single Substitution lookup 19 subtable" one.dnom
EndChar

StartChar: two.numr
Encoding: 65559 -1 154
Width: 400
Flags: W
LayerCount: 2
Fore
SplineSet
329.5 578 m 0
 329.5 538.204577531 329.5 538.204577531 311.8702429 503.463585597 c 0
 294.240485799 468.722593664 294.240485799 468.722593664 258.396428118 429.00350272 c 0
 222.552370436 389.284411775 222.552370436 389.284411775 153.401305662 321.5 c 1
 342.820625477 321.5 l 1
 333.378765012 263.5 l 1
 67.5 263.5 l 1
 67.5 315.104521875 l 1
 155.581648507 403.186170382 155.581648507 403.186170382 193.686759227 444.755382076 c 0
 231.791869947 486.324593771 231.791869947 486.324593771 246.645934973 515.074397048 c 0
 261.5 543.824200325 261.5 543.824200325 261.5 574.804607173 c 0
 261.5 605.78501402 261.5 605.78501402 243.332935287 623.065880455 c 0
 225.004758329 640.5 225.004758329 640.5 195.406612082 640.5 c 0
 165.808465835 640.5 165.808465835 640.5 145.755933107 630.24056465 c 0
 125.703400378 619.981129301 125.703400378 619.981129301 106.661085443 598.082467126 c 2
 102.10200546 592.839525145 l 1
 55.1236270249 627.737749125 l 1
 60.2657858475 633.832159582 l 2
 88.3321321262 667.095977394 88.3321321262 667.095977394 121.823364162 682.79499241 c 0
 155.327380353 698.5 155.327380353 698.5 197 698.5 c 0
 256.972221498 698.5 256.972221498 698.5 293.137984102 664.461635196 c 0
 329.5 630.23856141 329.5 630.23856141 329.5 578 c 0
EndSplineSet
Substitution2: "Single Substitution lookup 19 subtable" two.dnom
EndChar

StartChar: three.numr
Encoding: 65560 -1 155
Width: 400
Flags: W
LayerCount: 2
Fore
SplineSet
332.5 588 m 0
 332.5 546.030486945 332.5 546.030486945 306.964866316 518.865451111 c 0
 291.773793267 502.704735101 291.773793267 502.704735101 270.532358712 493.172390213 c 1
 295.268734196 485.499260069 295.268734196 485.499260069 313.753020763 467.351051441 c 0
 343.5 438.144926371 343.5 438.144926371 343.5 388 c 0
 343.5 329.655270191 343.5 329.655270191 302.184920893 292.577635096 c 0
 260.869841787 255.5 260.869841787 255.5 192 255.5 c 0
 110.688112114 255.5 110.688112114 255.5 57.4541898279 313.952934275 c 2
 52.3861539378 319.517836428 l 1
 94.3268774475 357.399780244 l 1
 99.3662405976 352.237505797 l 2
 138.157615304 312.5 138.157615304 312.5 189 312.5 c 0
 231.033308569 312.5 231.033308569 312.5 253.266654285 333.372120468 c 0
 275.5 354.244240935 275.5 354.244240935 275.5 389 c 0
 275.5 429.55089698 275.5 429.55089698 250.606140638 447.058666202 c 0
 230.072369143 461.5 230.072369143 461.5 192 461.5 c 2
 153.032913138 461.5 l 1
 162.72522083 515.5 l 1
 189 515.5 l 2
 221.434312251 515.5 221.434312251 515.5 243.467156126 532.58669525 c 0
 265.5 549.673390499 265.5 549.673390499 265.5 583 c 0
 265.5 611.552205923 265.5 611.552205923 246.863786788 627.526102961 c 0
 228.227573577 643.5 228.227573577 643.5 196 643.5 c 0
 170.477928157 643.5 170.477928157 643.5 149.691374438 634.996409842 c 0
 128.904820719 626.492819684 128.904820719 626.492819684 105.796784385 607.236122739 c 2
 100.164209336 602.542310199 l 1
 63.3812585039 644.774587081 l 1
 69.1231445949 649.69620373 l 2
 98.0684355702 674.506453137 98.0684355702 674.506453137 129.218933168 686.966652177 c 0
 160.552302727 699.5 160.552302727 699.5 199 699.5 c 0
 259.762094048 699.5 259.762094048 699.5 296.131047024 668.479422461 c 0
 332.5 637.458844923 332.5 637.458844923 332.5 588 c 0
EndSplineSet
Substitution2: "Single Substitution lookup 19 subtable" three.dnom
EndChar

StartChar: four.numr
Encoding: 65561 -1 156
Width: 400
Flags: W
LayerCount: 2
Fore
SplineSet
354.5 423.5 m 1
 354.5 366.5 l 1
 298.5 366.5 l 1
 298.5 263.5 l 1
 233.5 263.5 l 1
 233.5 366.5 l 1
 44.5 366.5 l 1
 44.5 411 l 1
 44.5 412.652959438 l 1
 178.144755433 701.531238489 l 1
 236.171892226 679.11166291 l 1
 117.741778137 423.5 l 1
 233.818883825 423.5 l 1
 238.818883825 538.5 l 1
 298.5 538.5 l 1
 298.5 423.5 l 1
 354.5 423.5 l 1
EndSplineSet
Substitution2: "Single Substitution lookup 19 subtable" four.dnom
EndChar

StartChar: five.numr
Encoding: 65562 -1 157
Width: 400
Flags: W
LayerCount: 2
Fore
SplineSet
213 544.5 m 0
 272.199820007 544.5 272.199820007 544.5 308.416302478 506.685731537 c 0
 344.5 469.010106184 344.5 469.010106184 344.5 403.938951276 c 0
 344.5 338.867796369 344.5 338.867796369 302.268552742 297.164242202 c 0
 260.07691507 255.5 260.07691507 255.5 191 255.5 c 0
 149.435141111 255.5 149.435141111 255.5 117.011159868 269.620120864 c 0
 84.7751165232 283.658397805 84.7751165232 283.658397805 56.7994800092 310.597899633 c 2
 50.9275470177 316.252353625 l 1
 95.330974448 355.273547427 l 1
 100.302260937 350.302260938 l 2
 119.312870818 331.291651057 119.312870818 331.291651057 140.540094908 321.857329239 c 0
 161.594085696 312.5 161.594085696 312.5 191 312.5 c 0
 229.810606122 312.5 229.810606122 312.5 253.095999042 336.698545584 c 0
 276.5 361.020350501 276.5 361.020350501 276.5 404.457914313 c 0
 276.5 447.895478125 276.5 447.895478125 255.697739063 468.697739062 c 0
 234.895478125 489.5 234.895478125 489.5 200 489.5 c 0
 181.105883467 489.5 181.105883467 489.5 166.976013841 485.261039112 c 0
 152.846144215 481.022078224 152.846144215 481.022078224 132.854195589 470.5 c 1
 85.5 470.5 l 1
 85.5 692.5 l 1
 331.106033724 692.5 l 1
 320.179204456 636.5 l 1
 150.5 636.5 l 1
 150.5 530.760218935 l 1
 182.416719694 544.5 182.416719694 544.5 213 544.5 c 0
EndSplineSet
Substitution2: "Single Substitution lookup 19 subtable" five.dnom
EndChar

StartChar: seven.numr
Encoding: 65564 -1 159
Width: 400
Flags: W
LayerCount: 2
Fore
SplineSet
332.5 692.5 m 1
 332.5 645.421075583 l 1
 161.113805481 255.721514236 l 1
 98.7614952362 276.505617651 l 1
 259.412713908 634.5 l 1
 67.5 634.5 l 1
 67.5 692.5 l 1
 332.5 692.5 l 1
EndSplineSet
Substitution2: "Single Substitution lookup 19 subtable" seven.dnom
EndChar

StartChar: uni00B9
Encoding: 185 185 162
Width: 400
Flags: W
LayerCount: 2
Fore
SplineSet
265.5 744.5 m 1
 265.5 315.5 l 1
 199.5 315.5 l 1
 199.5 668.951258165 l 1
 101.555541827 611.896233987 l 1
 70.5085452814 660.491532928 l 1
 211.940521491 744.5 l 1
 214 744.5 l 1
 265.5 744.5 l 1
EndSplineSet
EndChar

StartChar: uni00B2
Encoding: 178 178 163
Width: 400
Flags: W
LayerCount: 2
Fore
SplineSet
329.5 630 m 0
 329.5 590.204577531 329.5 590.204577531 311.8702429 555.463585597 c 0
 294.240485799 520.722593664 294.240485799 520.722593664 258.396428118 481.00350272 c 0
 222.552370436 441.284411775 222.552370436 441.284411775 153.401305662 373.5 c 1
 342.820625477 373.5 l 1
 333.378765012 315.5 l 1
 67.5 315.5 l 1
 67.5 367.104521875 l 1
 155.581648507 455.186170382 155.581648507 455.186170382 193.686759227 496.755382076 c 0
 231.791869947 538.324593771 231.791869947 538.324593771 246.645934973 567.074397048 c 0
 261.5 595.824200325 261.5 595.824200325 261.5 626.804607173 c 0
 261.5 657.78501402 261.5 657.78501402 243.332935287 675.065880455 c 0
 225.004758329 692.5 225.004758329 692.5 195.406612082 692.5 c 0
 165.808465835 692.5 165.808465835 692.5 145.755933107 682.24056465 c 0
 125.703400378 671.981129301 125.703400378 671.981129301 106.661085443 650.082467126 c 2
 102.10200546 644.839525145 l 1
 55.1236270249 679.737749125 l 1
 60.2657858475 685.832159582 l 2
 88.3321321262 719.095977394 88.3321321262 719.095977394 121.823364162 734.79499241 c 0
 155.327380353 750.5 155.327380353 750.5 197 750.5 c 0
 256.972221498 750.5 256.972221498 750.5 293.137984102 716.461635196 c 0
 329.5 682.23856141 329.5 682.23856141 329.5 630 c 0
EndSplineSet
EndChar

StartChar: uni00B3
Encoding: 179 179 164
Width: 400
Flags: W
LayerCount: 2
Fore
SplineSet
332.5 640 m 0
 332.5 598.030486945 332.5 598.030486945 306.964866316 570.865451111 c 0
 291.773793267 554.704735101 291.773793267 554.704735101 270.532358712 545.172390213 c 1
 295.268734196 537.499260069 295.268734196 537.499260069 313.753020763 519.351051441 c 0
 343.5 490.144926371 343.5 490.144926371 343.5 440 c 0
 343.5 381.655270191 343.5 381.655270191 302.184920893 344.577635096 c 0
 260.869841787 307.5 260.869841787 307.5 192 307.5 c 0
 110.688112114 307.5 110.688112114 307.5 57.4541898279 365.952934275 c 2
 52.3861539378 371.517836428 l 1
 94.3268774475 409.399780244 l 1
 99.3662405976 404.237505797 l 2
 138.157615304 364.5 138.157615304 364.5 189 364.5 c 0
 231.033308569 364.5 231.033308569 364.5 253.266654285 385.372120468 c 0
 275.5 406.244240935 275.5 406.244240935 275.5 441 c 0
 275.5 481.55089698 275.5 481.55089698 250.606140638 499.058666202 c 0
 230.072369143 513.5 230.072369143 513.5 192 513.5 c 2
 153.032913138 513.5 l 1
 162.72522083 567.5 l 1
 189 567.5 l 2
 221.434312251 567.5 221.434312251 567.5 243.467156126 584.58669525 c 0
 265.5 601.673390499 265.5 601.673390499 265.5 635 c 0
 265.5 663.552205923 265.5 663.552205923 246.863786788 679.526102961 c 0
 228.227573577 695.5 228.227573577 695.5 196 695.5 c 0
 170.477928157 695.5 170.477928157 695.5 149.691374438 686.996409842 c 0
 128.904820719 678.492819684 128.904820719 678.492819684 105.796784385 659.236122739 c 2
 100.164209336 654.542310199 l 1
 63.3812585039 696.774587081 l 1
 69.1231445949 701.69620373 l 2
 98.0684355702 726.506453137 98.0684355702 726.506453137 129.218933168 738.966652177 c 0
 160.552302727 751.5 160.552302727 751.5 199 751.5 c 0
 259.762094048 751.5 259.762094048 751.5 296.131047024 720.479422461 c 0
 332.5 689.458844923 332.5 689.458844923 332.5 640 c 0
EndSplineSet
EndChar

StartChar: fraction
Encoding: 8260 8260 166
Width: 114
Flags: W
LayerCount: 2
Fore
SplineSet
237.638057291 756.900925223 m 1
 291.183578814 731.4668025 l 1
 -122.662735051 -80.9735040792 l 1
 -177.157625444 -54.3906307164 l 1
 237.638057291 756.900925223 l 1
EndSplineSet
EndChar

StartChar: onehalf
Encoding: 189 189 167
Width: 914
Flags: W
LayerCount: 2
Fore
SplineSet
265.5 692.5 m 1
 265.5 263.5 l 1
 199.5 263.5 l 1
 199.5 616.951258165 l 1
 101.555541827 559.896233987 l 1
 70.5085452814 608.491532928 l 1
 211.940521491 692.5 l 1
 214 692.5 l 1
 265.5 692.5 l 1
843.5 307 m 0
 843.5 267.204577531 843.5 267.204577531 825.8702429 232.463585597 c 0
 808.240485799 197.722593664 808.240485799 197.722593664 772.396428118 158.00350272 c 0
 736.552370436 118.284411775 736.552370436 118.284411775 667.401305662 50.5 c 1
 856.820625477 50.5 l 1
 847.378765012 -7.5 l 1
 581.5 -7.5 l 1
 581.5 44.104521875 l 1
 669.581648507 132.186170382 669.581648507 132.186170382 707.686759227 173.755382076 c 0
 745.791869947 215.324593771 745.791869947 215.324593771 760.645934973 244.074397048 c 0
 775.5 272.824200325 775.5 272.824200325 775.5 303.804607173 c 0
 775.5 334.78501402 775.5 334.78501402 757.332935287 352.065880455 c 0
 739.004758329 369.5 739.004758329 369.5 709.406612082 369.5 c 0
 679.808465835 369.5 679.808465835 369.5 659.755933107 359.24056465 c 0
 639.703400378 348.981129301 639.703400378 348.981129301 620.661085443 327.082467126 c 2
 616.10200546 321.839525145 l 1
 569.123627025 356.737749125 l 1
 574.265785847 362.832159582 l 2
 602.332132126 396.095977394 602.332132126 396.095977394 635.823364162 411.79499241 c 0
 669.327380353 427.5 669.327380353 427.5 711 427.5 c 0
 770.972221498 427.5 770.972221498 427.5 807.137984102 393.461635196 c 0
 843.5 359.23856141 843.5 359.23856141 843.5 307 c 0
637.638057291 756.900925223 m 1
 691.183578814 731.4668025 l 1
 277.337264949 -80.9735040792 l 1
 222.842374556 -54.3906307164 l 1
 637.638057291 756.900925223 l 1
EndSplineSet
EndChar

StartChar: onequarter
Encoding: 188 188 168
Width: 914
Flags: W
LayerCount: 2
Fore
SplineSet
265.5 692.5 m 1
 265.5 263.5 l 1
 199.5 263.5 l 1
 199.5 616.951258165 l 1
 101.555541827 559.896233987 l 1
 70.5085452814 608.491532928 l 1
 211.940521491 692.5 l 1
 214 692.5 l 1
 265.5 692.5 l 1
868.5 152.5 m 1
 868.5 95.5 l 1
 812.5 95.5 l 1
 812.5 -7.5 l 1
 747.5 -7.5 l 1
 747.5 95.5 l 1
 558.5 95.5 l 1
 558.5 141.652959438 l 1
 692.144755433 430.531238489 l 1
 750.171892226 408.11166291 l 1
 631.741778137 152.5 l 1
 747.818883825 152.5 l 1
 752.818883825 267.5 l 1
 812.5 267.5 l 1
 812.5 152.5 l 1
 868.5 152.5 l 1
637.638057291 756.900925223 m 1
 691.183578814 731.4668025 l 1
 277.337264949 -80.9735040792 l 1
 222.842374556 -54.3906307164 l 1
 637.638057291 756.900925223 l 1
EndSplineSet
EndChar

StartChar: threequarters
Encoding: 190 190 169
Width: 914
Flags: W
LayerCount: 2
Fore
SplineSet
332.5 588 m 0
 332.5 546.030486945 332.5 546.030486945 306.964866316 518.865451111 c 0
 291.773793267 502.704735101 291.773793267 502.704735101 270.532358712 493.172390213 c 1
 295.268734196 485.499260069 295.268734196 485.499260069 313.753020763 467.351051441 c 0
 343.5 438.144926371 343.5 438.144926371 343.5 388 c 0
 343.5 329.655270191 343.5 329.655270191 302.184920893 292.577635096 c 0
 260.869841787 255.5 260.869841787 255.5 192 255.5 c 0
 110.688112114 255.5 110.688112114 255.5 57.4541898279 313.952934275 c 2
 52.3861539378 319.517836428 l 1
 94.3268774475 357.399780244 l 1
 99.3662405976 352.237505797 l 2
 138.157615304 312.5 138.157615304 312.5 189 312.5 c 0
 231.033308569 312.5 231.033308569 312.5 253.266654285 333.372120468 c 0
 275.5 354.244240935 275.5 354.244240935 275.5 389 c 0
 275.5 429.55089698 275.5 429.55089698 250.606140638 447.058666202 c 0
 230.072369143 461.5 230.072369143 461.5 192 461.5 c 2
 153.032913138 461.5 l 1
 162.72522083 515.5 l 1
 189 515.5 l 2
 221.434312251 515.5 221.434312251 515.5 243.467156126 532.58669525 c 0
 265.5 549.673390499 265.5 549.673390499 265.5 583 c 0
 265.5 611.552205923 265.5 611.552205923 246.863786788 627.526102961 c 0
 228.227573577 643.5 228.227573577 643.5 196 643.5 c 0
 170.477928157 643.5 170.477928157 643.5 149.691374438 634.996409842 c 0
 128.904820719 626.492819684 128.904820719 626.492819684 105.796784385 607.236122739 c 2
 100.164209336 602.542310199 l 1
 63.3812585039 644.774587081 l 1
 69.1231445949 649.69620373 l 2
 98.0684355702 674.506453137 98.0684355702 674.506453137 129.218933168 686.966652177 c 0
 160.552302727 699.5 160.552302727 699.5 199 699.5 c 0
 259.762094048 699.5 259.762094048 699.5 296.131047024 668.479422461 c 0
 332.5 637.458844923 332.5 637.458844923 332.5 588 c 0
868.5 152.5 m 1
 868.5 95.5 l 1
 812.5 95.5 l 1
 812.5 -7.5 l 1
 747.5 -7.5 l 1
 747.5 95.5 l 1
 558.5 95.5 l 1
 558.5 141.652959438 l 1
 692.144755433 430.531238489 l 1
 750.171892226 408.11166291 l 1
 631.741778137 152.5 l 1
 747.818883825 152.5 l 1
 752.818883825 267.5 l 1
 812.5 267.5 l 1
 812.5 152.5 l 1
 868.5 152.5 l 1
637.638057291 756.900925223 m 1
 691.183578814 731.4668025 l 1
 277.337264949 -80.9735040792 l 1
 222.842374556 -54.3906307164 l 1
 637.638057291 756.900925223 l 1
EndSplineSet
EndChar

StartChar: asterisk
Encoding: 42 42 170
Width: 436
Flags: W
LayerCount: 2
Fore
SplineSet
181.06327748 743.5 m 1
 253.88699896 743.5 l 1
 246.073395346 588.204628176 l 1
 388.537457278 643.824159205 l 1
 411.736275246 576.805351742 l 1
 263.144658265 537.702294641 l 1
 359.766668586 418.632746568 l 1
 301.024890697 375.214910737 l 1
 218 504.147682173 l 1
 135.036233434 375.309832917 l 1
 76.1624374089 417.545382239 l 1
 172.904446565 536.762807664 l 1
 24.4131983281 576.816368044 l 1
 46.3300851609 643.85625718 l 1
 189.853601164 588.204281587 l 1
 181.06327748 743.5 l 1
EndSplineSet
EndChar

StartChar: backslash
Encoding: 92 92 171
Width: 520
Flags: W
LayerCount: 2
Fore
SplineSet
174.40313074 812.011130503 m 1
 410.161314329 -92.4060392989 l 1
 344.613539781 -109.114295556 l 1
 109.821647536 796.511574534 l 1
 174.40313074 812.011130503 l 1
EndSplineSet
EndChar

StartChar: periodcentered
Encoding: 183 183 172
Width: 207
Flags: W
LayerCount: 2
Fore
SplineSet
142.802260937 357.802260938 m 0
 158.5 342.104521875 158.5 342.104521875 158.5 318.5 c 0
 158.5 294.895478125 158.5 294.895478125 142.802260937 279.197739062 c 0
 127.104521875 263.5 127.104521875 263.5 103.5 263.5 c 0
 79.895478125 263.5 79.895478125 263.5 63.6977390625 279.697739062 c 0
 47.5 295.895478125 47.5 295.895478125 47.5 319 c 0
 47.5 342.184747113 47.5 342.184747113 63.7957483872 357.898504486 c 0
 79.9750770682 373.5 79.9750770682 373.5 103.539799472 373.5 c 0
 127.104521875 373.5 127.104521875 373.5 142.802260937 357.802260938 c 0
EndSplineSet
EndChar

StartChar: bullet
Encoding: 8226 8226 173
Width: 287
Flags: W
LayerCount: 2
Fore
SplineSet
202.364744332 403.739038123 m 0
 225.5 380.052943034 225.5 380.052943034 225.5 345.474210579 c 0
 225.5 310.895478125 225.5 310.895478125 202.302260937 287.697739062 c 0
 179.104521875 264.5 179.104521875 264.5 143.5 264.5 c 0
 107.895478125 264.5 107.895478125 264.5 84.6977390625 287.697739062 c 0
 61.5 310.895478125 61.5 310.895478125 61.5 346 c 0
 61.5 381.104521875 61.5 381.104521875 84.6977390625 404.302260938 c 0
 107.895478125 427.5 107.895478125 427.5 143.525920544 427.5 c 0
 179.156362963 427.5 179.156362963 427.5 202.364744332 403.739038123 c 0
EndSplineSet
EndChar

StartChar: comma
Encoding: 44 44 175
Width: 207
Flags: W
LayerCount: 2
Fore
SplineSet
142.802260937 75.8022609375 m 0
 158.5 60.104521875 158.5 60.104521875 158.5 36.7546146796 c 0
 158.5 13.4047074842 158.5 13.4047074842 142.875256738 -21.0012470043 c 1
 84.9810449504 -158.5 l 1
 80 -158.5 l 1
 28.1849809808 -158.5 l 1
 69.3014787657 -7.39687064045 l 1
 59.968291914 -0.771694317216 59.968291914 -0.771694317216 53.734145957 10.6575732706 c 0
 47.5 22.0868408585 47.5 22.0868408585 47.5 37 c 0
 47.5 60.1847471128 47.5 60.1847471128 63.7957483872 75.8985044862 c 0
 79.9750770682 91.5 79.9750770682 91.5 103.539799472 91.5 c 0
 127.104521875 91.5 127.104521875 91.5 142.802260937 75.8022609375 c 0
EndSplineSet
EndChar

StartChar: exclam
Encoding: 33 33 177
Width: 240
Flags: W
LayerCount: 2
Fore
SplineSet
153.436040529 210.5 m 1
 85.5798617994 210.5 l 1
 80.4192622277 692.5 l 1
 157.564520186 692.5 l 1
 153.436040529 210.5 l 1
175.5 37 m 0
 175.5 13.9750770682 175.5 13.9750770682 159.898504486 -2.20425161279 c 0
 144 -18 144 -18 120.447739063 -18.25 c 0
 96.895478125 -18.5 96.895478125 -18.5 80.6977390625 -2.3022609375 c 0
 64.5 13.895478125 64.5 13.895478125 64.5 37 c 0
 64.5 60.1847471128 64.5 60.1847471128 80.7957483872 75.8985044862 c 0
 96.9750770682 91.5 96.9750770682 91.5 120.539799472 91.5 c 0
 144.104521875 91.5 144.104521875 91.5 159.802260937 75.8022609375 c 0
 175.5 60.104521875 175.5 60.104521875 175.5 37 c 0
EndSplineSet
EndChar

StartChar: exclamdown
Encoding: 161 161 178
Width: 240
Flags: W
LayerCount: 2
Fore
SplineSet
175.5 427 m 0
 175.5 403.895478125 175.5 403.895478125 159.802260937 388.197739062 c 0
 144.104521875 372.5 144.104521875 372.5 120 372.5 c 0
 95.895478125 372.5 95.895478125 372.5 80.1977390625 388.197739062 c 0
 64.5 403.895478125 64.5 403.895478125 64.5 427 c 0
 64.5 450.024922932 64.5 450.024922932 80.1014955138 466.204251613 c 0
 95.8152528872 482.5 95.8152528872 482.5 120 482.5 c 0
 144.184747113 482.5 144.184747113 482.5 159.898504486 466.204251613 c 0
 175.5 450.024922932 175.5 450.024922932 175.5 427 c 0
159.584560902 -204.5 m 1
 82.4154390984 -204.5 l 1
 87.5836005334 256.5 l 1
 154.416399467 256.5 l 1
 159.584560902 -204.5 l 1
EndSplineSet
EndChar

StartChar: numbersign
Encoding: 35 35 179
Width: 503
Flags: W
LayerCount: 2
Fore
SplineSet
495.5 506.5 m 1
 495.5 444.5 l 1
 416.570956664 444.5 l 1
 388.562107106 233.5 l 1
 458.5 233.5 l 1
 458.5 172.5 l 1
 380.56711996 172.5 l 1
 356.56711996 -7.5 l 1
 289.43288004 -7.5 l 1
 313.43288004 172.5 l 1
 145.56711996 172.5 l 1
 121.56711996 -7.5 l 1
 54.4328800401 -7.5 l 1
 78.4328800401 172.5 l 1
 7.5 172.5 l 1
 7.5 233.5 l 1
 86.429043336 233.5 l 1
 114.437892894 444.5 l 1
 44.5 444.5 l 1
 44.5 506.5 l 1
 122.427655951 506.5 l 1
 144.427655951 672.5 l 1
 211.560295857 672.5 l 1
 189.560295857 506.5 l 1
 357.427655951 506.5 l 1
 379.427655951 672.5 l 1
 446.560295857 672.5 l 1
 424.560295857 506.5 l 1
 495.5 506.5 l 1
153.562107106 233.5 m 1
 321.429043336 233.5 l 1
 349.437892894 444.5 l 1
 181.570956664 444.5 l 1
 153.562107106 233.5 l 1
EndSplineSet
EndChar

StartChar: period
Encoding: 46 46 180
Width: 207
Flags: W
LayerCount: 2
Fore
SplineSet
142.802260937 75.8022609375 m 0
 158.5 60.104521875 158.5 60.104521875 158.5 36.5 c 0
 158.5 12.895478125 158.5 12.895478125 142.802260937 -2.8022609375 c 0
 127.104521875 -18.5 127.104521875 -18.5 103.5 -18.5 c 0
 79.895478125 -18.5 79.895478125 -18.5 63.6977390625 -2.3022609375 c 0
 47.5 13.895478125 47.5 13.895478125 47.5 37 c 0
 47.5 60.1847471128 47.5 60.1847471128 63.7957483872 75.8985044862 c 0
 79.9750770682 91.5 79.9750770682 91.5 103.539799472 91.5 c 0
 127.104521875 91.5 127.104521875 91.5 142.802260937 75.8022609375 c 0
EndSplineSet
EndChar

StartChar: question
Encoding: 63 63 181
Width: 447
Flags: W
LayerCount: 2
Fore
SplineSet
392.875531627 626.949664745 m 0
 414.5 592.139544925 414.5 592.139544925 414.5 552.183787295 c 0
 414.5 512.228029665 414.5 512.228029665 400.797048812 484.822127289 c 0
 387.094097624 457.416224913 387.094097624 457.416224913 367.8795981 439.759657782 c 0
 348.665098576 422.103090652 348.665098576 422.103090652 317.293827466 400.851584417 c 0
 287.695576151 380.132808496 287.695576151 380.132808496 270.892641 364.770124929 c 0
 254.089705849 349.407441363 254.089705849 349.407441363 242.794852924 326.817735514 c 0
 231.5 304.228029665 231.5 304.228029665 231.5 273 c 2
 231.5 210.5 l 1
 159.5 210.5 l 1
 159.5 277 l 2
 159.5 320.691281928 159.5 320.691281928 174.170762145 351.604673591 c 0
 188.841524291 382.518065255 188.841524291 382.518065255 209.574991955 401.696522844 c 0
 230.308459618 420.874980433 230.308459618 420.874980433 262.811432582 443.220774346 c 0
 301.950184333 469.639431777 301.950184333 469.639431777 320.225092166 491.194451273 c 0
 338.5 512.749470769 338.5 512.749470769 338.5 547 c 0
 338.5 589.546153029 338.5 589.546153029 309.866617809 614.023076514 c 0
 281.233235619 638.5 281.233235619 638.5 231 638.5 c 0
 187.749742333 638.5 187.749742333 638.5 153.705238134 621.71749793 c 0
 119.660733935 604.93499586 119.660733935 604.93499586 86.6547968884 567.075244542 c 2
 81.9285302916 561.65393874 l 1
 30.205223456 603.032584209 l 1
 35.3467411012 608.92651907 l 2
 77.3592200303 657.087165648 77.3592200303 657.087165648 125.240262428 680.255411969 c 0
 173.279077692 703.5 173.279077692 703.5 231.545636029 703.5 c 0
 289.812194366 703.5 289.812194366 703.5 330.542252529 682.612790686 c 0
 371.272310692 661.725581371 371.272310692 661.725581371 392.875531627 626.949664745 c 0
253.5 37 m 0
 253.5 13.9750770682 253.5 13.9750770682 237.898504486 -2.20425161279 c 0
 222 -18 222 -18 198 -18.5 c 0
 173.815252887 -18.5 173.815252887 -18.5 158.101495514 -2.20425161279 c 0
 142.5 13.9750770682 142.5 13.9750770682 142.5 37 c 0
 142.5 60.104521875 142.5 60.104521875 158.197739063 75.8022609375 c 0
 173.895478125 91.5 173.895478125 91.5 198 91.5 c 0
 222.104521875 91.5 222.104521875 91.5 237.802260937 75.8022609375 c 0
 253.5 60.104521875 253.5 60.104521875 253.5 37 c 0
EndSplineSet
EndChar

StartChar: questiondown
Encoding: 191 191 182
Width: 447
Flags: W
LayerCount: 2
Fore
SplineSet
210.197739063 388.197739062 m 0
 194.5 403.895478125 194.5 403.895478125 194.5 427.5 c 0
 194.5 451.104521875 194.5 451.104521875 210.197739063 466.802260938 c 0
 225.895478125 482.5 225.895478125 482.5 249.540112619 482.5 c 0
 273.184747113 482.5 273.184747113 482.5 288.898504486 466.204251613 c 0
 304.5 450.024922932 304.5 450.024922932 304.5 427 c 0
 304.5 403.895478125 304.5 403.895478125 288.802260938 388.197739062 c 0
 273.104521875 372.5 273.104521875 372.5 249.5 372.5 c 0
 225.895478125 372.5 225.895478125 372.5 210.197739063 388.197739062 c 0
55.15182867 -137.49337264 m 0
 33.5 -103.167302797 33.5 -103.167302797 33.5 -64.2125654912 c 0
 33.5 -25.2578281854 33.5 -25.2578281854 47.2622942132 2.79607924914 c 0
 60.9293200755 30.6557858147 60.9293200755 30.6557858147 81.1731431241 48.304246934 c 0
 101.416966173 65.9527080533 101.416966173 65.9527080533 132.715812279 87.15515219 c 0
 174.934076671 116.609755254 174.934076671 116.609755254 195.217038335 140.194594399 c 0
 215.5 163.779433544 215.5 163.779433544 215.5 204 c 2
 215.5 256.5 l 1
 287.5 256.5 l 1
 287.5 200 l 2
 287.5 159.256741648 287.5 159.256741648 273.297354398 130.325426534 c 0
 259.094708797 101.394111419 259.094708797 101.394111419 238.860975186 83.2356325379 c 0
 218.627241576 65.0771536568 218.627241576 65.0771536568 187.117264082 43.7316850318 c 0
 147.015423505 17.3231558713 147.015423505 17.3231558713 128.257711752 -4.71715543776 c 0
 109.5 -26.7574667468 109.5 -26.7574667468 109.5 -63.6518098878 c 0
 109.5 -100.546153029 109.5 -100.546153029 138.133382191 -125.023076514 c 0
 166.766764381 -149.5 166.766764381 -149.5 216 -149.5 c 0
 258.228029665 -149.5 258.228029665 -149.5 292.776395094 -132.225817286 c 0
 327.324760522 -114.951634572 327.324760522 -114.951634572 360.345203112 -77.0752445424 c 2
 365.015054651 -71.7186501293 l 1
 417.932255718 -113.01988023 l 1
 412.593499654 -118.994202492 l 2
 369.598548472 -167.107600243 369.598548472 -167.107600243 321.65973539 -190.303800122 c 0
 273.720922308 -213.5 273.720922308 -213.5 215.954363971 -213.5 c 0
 158.187805634 -213.5 158.187805634 -213.5 117.470136697 -192.619144135 c 0
 76.7524677599 -171.73828827 76.7524677599 -171.73828827 55.15182867 -137.49337264 c 0
EndSplineSet
EndChar

StartChar: quotesingle
Encoding: 39 39 184
Width: 204
Flags: W
LayerCount: 2
Fore
SplineSet
63.2261733747 692.5 m 1
 140.773826625 692.5 l 1
 131.23597802 426.5 l 1
 72.7640219802 426.5 l 1
 63.2261733747 692.5 l 1
EndSplineSet
EndChar

StartChar: slash
Encoding: 47 47 186
Width: 520
Flags: W
LayerCount: 2
Fore
SplineSet
345.6321476 812.146465516 m 1
 410.152243222 795.371240655 l 1
 174.3678524 -109.146465516 l 1
 109.847756778 -92.3712406546 l 1
 345.6321476 812.146465516 l 1
EndSplineSet
Substitution2: "'frac' Diagonal Fractions lookup 10 subtable" fraction
EndChar

StartChar: underscore
Encoding: 95 95 187
Width: 520
Flags: W
LayerCount: 2
Fore
SplineSet
21.5 -129.5 m 1
 21.5 -63.5 l 1
 499.5 -63.5 l 1
 499.5 -129.5 l 1
 21.5 -129.5 l 1
EndSplineSet
EndChar

StartChar: braceleft
Encoding: 123 123 188
Width: 326
Flags: W
LayerCount: 2
Fore
SplineSet
262 775.5 m 2
 217.934762471 775.5 217.934762471 775.5 200.217381236 759.111422357 c 0
 182.5 742.722844714 182.5 742.722844714 182.5 705 c 2
 182.5 451 l 2
 182.5 399.227573577 182.5 399.227573577 162.69620373 376.123144595 c 0
 148.597818067 359.675027988 148.597818067 359.675027988 122.80688325 349.111575372 c 1
 149.32359285 338.627651688 149.32359285 338.627651688 163.206078214 322.365311691 c 0
 182.5 299.763860456 182.5 299.763860456 182.5 247 c 2
 182.5 -6 l 2
 182.5 -43.7228447141 182.5 -43.7228447141 200.217381236 -60.1114223571 c 0
 217.934762471 -76.5 217.934762471 -76.5 262 -76.5 c 2
 269.5 -76.5 l 1
 269.5 -136.5 l 1
 262 -136.5 l 2
 185.201887187 -136.5 185.201887187 -136.5 148.850943593 -104.960210706 c 0
 112.5 -73.4204214117 112.5 -73.4204214117 112.5 -4 c 2
 112.5 251 l 2
 112.5 286.708135204 112.5 286.708135204 96.2897206259 301.604067602 c 0
 80.0794412519 316.5 80.0794412519 316.5 44 316.5 c 2
 36.5 316.5 l 1
 36.5 381.5 l 1
 44 381.5 l 2
 80.0794412519 381.5 80.0794412519 381.5 96.2897206259 396.395932398 c 0
 112.5 411.291864796 112.5 411.291864796 112.5 448 c 2
 112.5 703 l 2
 112.5 772.420421412 112.5 772.420421412 148.850943593 803.960210706 c 0
 185.201887187 835.5 185.201887187 835.5 262 835.5 c 2
 269.5 835.5 l 1
 269.5 775.5 l 1
 262 775.5 l 2
EndSplineSet
EndChar

StartChar: braceright
Encoding: 125 125 189
Width: 326
Flags: W
LayerCount: 2
Fore
SplineSet
213.5 703 m 2
 213.5 448 l 2
 213.5 411.291864796 213.5 411.291864796 229.710279374 396.395932398 c 0
 245.920558748 381.5 245.920558748 381.5 282 381.5 c 2
 289.5 381.5 l 1
 289.5 316.5 l 1
 282 316.5 l 2
 245.920558748 316.5 245.920558748 316.5 229.710279374 301.604067602 c 0
 213.5 286.708135204 213.5 286.708135204 213.5 251 c 2
 213.5 -4 l 2
 213.5 -73.4532321081 213.5 -73.4532321081 176.633669623 -104.976616054 c 0
 139.767339245 -136.5 139.767339245 -136.5 64 -136.5 c 2
 56.5 -136.5 l 1
 56.5 -76.5 l 1
 64 -76.5 l 2
 108.065237529 -76.5 108.065237529 -76.5 125.782618764 -60.1114223571 c 0
 143.5 -43.7228447141 143.5 -43.7228447141 143.5 -6 c 2
 143.5 247 l 2
 143.5 299.763860456 143.5 299.763860456 162.793921786 322.365311691 c 0
 176.67640715 338.627651688 176.67640715 338.627651688 203.19311675 349.111575372 c 1
 177.402181933 359.675027988 177.402181933 359.675027988 163.30379627 376.123144595 c 0
 143.5 399.227573577 143.5 399.227573577 143.5 451 c 2
 143.5 705 l 2
 143.5 742.722844714 143.5 742.722844714 125.782618764 759.111422357 c 0
 108.065237529 775.5 108.065237529 775.5 64 775.5 c 2
 56.5 775.5 l 1
 56.5 835.5 l 1
 64 835.5 l 2
 139.767339245 835.5 139.767339245 835.5 176.633669623 803.976616054 c 0
 213.5 772.453232108 213.5 772.453232108 213.5 703 c 2
EndSplineSet
EndChar

StartChar: bracketleft
Encoding: 91 91 190
Width: 317
Flags: W
LayerCount: 2
Fore
SplineSet
258.5 814.5 m 1
 258.5 750.5 l 1
 146.5 750.5 l 1
 146.5 -56.5 l 1
 258.5 -56.5 l 1
 258.5 -119.5 l 1
 76.5 -119.5 l 1
 76.5 814.5 l 1
 258.5 814.5 l 1
EndSplineSet
EndChar

StartChar: bracketright
Encoding: 93 93 191
Width: 317
Flags: W
LayerCount: 2
Fore
SplineSet
240.5 814.5 m 1
 240.5 -119.5 l 1
 58.5 -119.5 l 1
 58.5 -56.5 l 1
 170.5 -56.5 l 1
 170.5 750.5 l 1
 58.5 750.5 l 1
 58.5 814.5 l 1
 240.5 814.5 l 1
EndSplineSet
EndChar

StartChar: parenleft.dnom
Encoding: 65567 -1 192
Width: 399
Flags: W
LayerCount: 2
Fore
SplineSet
185.5 194 m 0
 185.5 78.17699812 185.5 78.17699812 228.195164906 -6.11858387353 c 0
 247.509353376 -44.2517252124 247.509353376 -44.2517252124 283.313779699 -99.0772530188 c 1
 237.125922328 -130.321980064 l 1
 193.650713054 -69.0107874986 193.650713054 -69.0107874986 170.82243454 -28.427181251 c 0
 147.994156025 12.1564249967 147.994156025 12.1564249967 133.251296049 67.5692435304 c 0
 118.5 123.013770058 118.5 123.013770058 118.5 194 c 0
 118.5 264.986229942 118.5 264.986229942 133.251296049 320.43075647 c 0
 147.994156025 375.843575003 147.994156025 375.843575003 170.82243454 416.427181251 c 0
 193.650713054 457.010787499 193.650713054 457.010787499 237.125922328 518.321980064 c 1
 283.313779699 487.077253019 l 1
 247.509353376 432.251725212 247.509353376 432.251725212 228.299610496 394.324796963 c 0
 185.5 309.82300188 185.5 309.82300188 185.5 194 c 0
EndSplineSet
EndChar

StartChar: parenright.dnom
Encoding: 65568 -1 193
Width: 399
Flags: W
LayerCount: 2
Fore
SplineSet
280.5 194 m 0
 280.5 122.972253597 280.5 122.972253597 265.227400463 67.9908952632 c 0
 249.989886103 13.135843567 249.989886103 13.135843567 227.689527747 -26.9034362087 c 0
 205.389169391 -66.9427159843 205.389169391 -66.9427159843 161.976844367 -130.391498711 c 1
 115.742199652 -99.1151214028 l 1
 151.464505844 -43.2990179769 151.464505844 -43.2990179769 170.185035379 -5.85795890797 c 0
 188.905564913 31.583100161 188.905564913 31.583100161 200.706613185 80.7541346274 c 0
 212.5 129.893246356 212.5 129.893246356 212.5 194 c 0
 212.5 309.228029665 212.5 309.228029665 170.287422501 393.653184663 c 0
 151.464505844 431.299017977 151.464505844 431.299017977 115.742199652 487.115121403 c 1
 161.976844367 518.391498711 l 1
 205.389169391 454.942715984 205.389169391 454.942715984 227.689527747 414.903436209 c 0
 249.989886103 374.864156433 249.989886103 374.864156433 265.227400463 320.009104737 c 0
 280.5 265.027746403 280.5 265.027746403 280.5 194 c 0
EndSplineSet
EndChar

StartChar: parenleft
Encoding: 40 40 196
Width: 324
Flags: W
LayerCount: 2
Fore
SplineSet
121.5 350 m 0
 121.5 247.917732942 121.5 247.917732942 140.782028801 169.800795747 c 0
 160.068959178 91.6640008859 160.068959178 91.6640008859 191.767150995 30.7440384881 c 0
 223.465342812 -30.1759239098 223.465342812 -30.1759239098 280.4712652 -115.147015771 c 1
 231.058986233 -147.198223749 l 1
 164.671726744 -54.0419080151 164.671726744 -54.0419080151 128.846340743 8.52637176173 c 0
 93.0209547413 71.0946515385 93.0209547413 71.0946515385 69.7713636881 154.995349687 c 0
 46.5 238.974618648 46.5 238.974618648 46.5 350 c 0
 46.5 461.025381352 46.5 461.025381352 69.7713636881 545.004650313 c 0
 93.0209547413 628.905348461 93.0209547413 628.905348461 128.846340743 691.473628238 c 0
 164.671726744 754.041908015 164.671726744 754.041908015 231.058986233 847.198223749 c 1
 280.4712652 815.147015771 l 1
 223.465342812 730.17592391 223.465342812 730.17592391 191.767150995 669.255961512 c 0
 160.068959178 608.335999114 160.068959178 608.335999114 140.782028801 530.199204253 c 0
 121.5 452.082267058 121.5 452.082267058 121.5 350 c 0
EndSplineSet
Substitution2: "'dnom' Denominators lookup 9 subtable" parenleft.dnom
Substitution2: "'numr' Numerators lookup 8 subtable" parenleft.numr
EndChar

StartChar: parenright
Encoding: 41 41 197
Width: 324
Flags: W
LayerCount: 2
Fore
SplineSet
277.5 350 m 0
 277.5 238.974618648 277.5 238.974618648 254.228636312 154.995349687 c 0
 230.979045259 71.0946515385 230.979045259 71.0946515385 195.153659257 8.52637176173 c 0
 159.328273256 -54.0419080151 159.328273256 -54.0419080151 92.9410137674 -147.198223749 c 1
 43.5287348004 -115.147015771 l 1
 100.534657188 -30.1759239098 100.534657188 -30.1759239098 132.232849005 30.7440384881 c 0
 163.931040822 91.6640008859 163.931040822 91.6640008859 183.217971199 169.800795747 c 0
 202.5 247.917732942 202.5 247.917732942 202.5 350 c 0
 202.5 452.082267058 202.5 452.082267058 183.217971199 530.199204253 c 0
 163.931040822 608.335999114 163.931040822 608.335999114 132.232849005 669.255961512 c 0
 100.534657188 730.17592391 100.534657188 730.17592391 43.5287348004 815.147015771 c 1
 92.9410137674 847.198223749 l 1
 159.328273256 754.041908015 159.328273256 754.041908015 195.153659257 691.473628238 c 0
 230.979045259 628.905348461 230.979045259 628.905348461 254.228636312 545.004650313 c 0
 277.5 461.025381352 277.5 461.025381352 277.5 350 c 0
EndSplineSet
Substitution2: "'dnom' Denominators lookup 9 subtable" parenright.dnom
Substitution2: "'numr' Numerators lookup 8 subtable" parenright.numr
EndChar

StartChar: emdash
Encoding: 8212 8212 198
Width: 783
Flags: W
LayerCount: 2
Fore
SplineSet
32.5 280.5 m 1
 32.5 345.5 l 1
 750.5 345.5 l 1
 750.5 280.5 l 1
 32.5 280.5 l 1
EndSplineSet
EndChar

StartChar: endash
Encoding: 8211 8211 199
Width: 520
Flags: W
LayerCount: 2
Fore
SplineSet
32.5 280.5 m 1
 32.5 345.5 l 1
 487.5 345.5 l 1
 487.5 280.5 l 1
 32.5 280.5 l 1
EndSplineSet
EndChar

StartChar: hyphen
Encoding: 45 45 200
Width: 401
Flags: W
LayerCount: 2
Fore
SplineSet
60.5 280.5 m 1
 60.5 345.5 l 1
 340.5 345.5 l 1
 340.5 280.5 l 1
 60.5 280.5 l 1
EndSplineSet
EndChar

StartChar: uni00AD
Encoding: 173 173 201
Width: 401
Flags: W
LayerCount: 2
Fore
SplineSet
60.5 280.5 m 1
 60.5 345.5 l 1
 340.5 345.5 l 1
 340.5 280.5 l 1
 60.5 280.5 l 1
EndSplineSet
EndChar

StartChar: guillemotleft
Encoding: 171 171 202
Width: 555
Flags: W
LayerCount: 2
Fore
SplineSet
276.5 268 m 1
 276.5 307 l 1
 276.5 309.551149388 l 1
 446.413777214 530.231847842 l 1
 494.301431227 496.976532555 l 1
 355.98671326 287.990060882 l 1
 494.365357657 77.8969365414 l 1
 446.34512549 45.8834484297 l 1
 276.5 265.439342355 l 1
 276.5 268 l 1
63.5 268 m 1
 63.5 307 l 1
 63.5 309.551149388 l 1
 233.413777214 530.231847842 l 1
 281.301431227 496.976532555 l 1
 142.98671326 287.990060882 l 1
 281.365357657 77.8969365414 l 1
 233.34512549 45.8834484297 l 1
 63.5 265.439342355 l 1
 63.5 268 l 1
EndSplineSet
EndChar

StartChar: guillemotright
Encoding: 187 187 203
Width: 546
Flags: W
LayerCount: 2
Fore
SplineSet
482.5 307 m 1
 482.5 268 l 1
 482.5 265.439342355 l 1
 312.65487451 45.8834484297 l 1
 264.613871196 77.9107839726 l 1
 403.993357899 287.990010307 l 1
 264.67836386 496.962501366 l 1
 312.586222786 530.231847842 l 1
 482.5 309.551149388 l 1
 482.5 307 l 1
278.5 307 m 1
 278.5 268 l 1
 278.5 265.439342355 l 1
 108.65487451 45.8834484297 l 1
 60.613871196 77.9107839726 l 1
 199.993357899 287.990010307 l 1
 60.6783638596 496.962501366 l 1
 108.586222786 530.231847842 l 1
 278.5 309.551149388 l 1
 278.5 307 l 1
EndSplineSet
EndChar

StartChar: guilsinglleft
Encoding: 8249 8249 204
Width: 342
Flags: W
LayerCount: 2
Fore
SplineSet
63.5 268 m 1
 63.5 307 l 1
 63.5 309.551149388 l 1
 233.413777214 530.231847842 l 1
 281.301431227 496.976532555 l 1
 142.98671326 287.990060882 l 1
 281.365357657 77.8969365414 l 1
 233.34512549 45.8834484297 l 1
 63.5 265.439342355 l 1
 63.5 268 l 1
EndSplineSet
EndChar

StartChar: guilsinglright
Encoding: 8250 8250 205
Width: 342
Flags: W
LayerCount: 2
Fore
SplineSet
278.5 307 m 1
 278.5 268 l 1
 278.5 265.439342355 l 1
 108.65487451 45.8834484297 l 1
 60.613871196 77.9107839726 l 1
 199.993357899 287.990010307 l 1
 60.6783638596 496.962501366 l 1
 108.586222786 530.231847842 l 1
 278.5 309.551149388 l 1
 278.5 307 l 1
EndSplineSet
EndChar

StartChar: quotedblleft
Encoding: 8220 8220 207
Width: 371
Flags: W
LayerCount: 2
Fore
SplineSet
53.5 571 m 0
 53.5 581.160940457 53.5 581.160940457 56.7354593771 591.406561817 c 0
 59.9709187542 601.652183178 59.9709187542 601.652183178 68.181546366 620.126095305 c 2
 127.192131589 748.5 l 1
 180.924124157 748.5 l 1
 141.696125371 610.169688493 l 1
 160.5 595.946187928 160.5 595.946187928 160.5 571 c 0
 160.5 549.895478125 160.5 549.895478125 145.302260937 534.697739062 c 0
 130.104521875 519.5 130.104521875 519.5 107 519.5 c 0
 83.895478125 519.5 83.895478125 519.5 68.6977390625 534.697739062 c 0
 53.5 549.895478125 53.5 549.895478125 53.5 571 c 0
205.5 571 m 0
 205.5 581.160940457 205.5 581.160940457 208.735459377 591.406561817 c 0
 211.970918754 601.652183178 211.970918754 601.652183178 220.181546366 620.126095305 c 2
 279.192131589 748.5 l 1
 323 748.5 l 1
 332.924124157 748.5 l 1
 293.696125371 610.169688493 l 1
 312.5 595.946187928 312.5 595.946187928 312.5 571 c 0
 312.5 549.895478125 312.5 549.895478125 297.302260937 534.697739062 c 0
 282.104521875 519.5 282.104521875 519.5 259 519.5 c 0
 235.895478125 519.5 235.895478125 519.5 220.697739063 534.697739062 c 0
 205.5 549.895478125 205.5 549.895478125 205.5 571 c 0
EndSplineSet
EndChar

StartChar: quoteleft
Encoding: 8216 8216 209
Width: 219
Flags: W
LayerCount: 2
Fore
SplineSet
53.5 571 m 0
 53.5 581.160940457 53.5 581.160940457 56.7354593771 591.406561817 c 0
 59.9709187542 601.652183178 59.9709187542 601.652183178 68.181546366 620.126095305 c 2
 127.192131589 748.5 l 1
 180.924124157 748.5 l 1
 141.696125371 610.169688493 l 1
 160.5 595.946187928 160.5 595.946187928 160.5 571 c 0
 160.5 549.895478125 160.5 549.895478125 145.302260937 534.697739062 c 0
 130.104521875 519.5 130.104521875 519.5 107 519.5 c 0
 83.895478125 519.5 83.895478125 519.5 68.6977390625 534.697739062 c 0
 53.5 549.895478125 53.5 549.895478125 53.5 571 c 0
EndSplineSet
EndChar

StartChar: quotesinglbase
Encoding: 8218 8218 211
Width: 219
Flags: W
LayerCount: 2
Fore
SplineSet
165.5 31 m 0
 165.5 20.8390595434 165.5 20.8390595434 162.264540623 10.5934381826 c 0
 159.029081246 0.347816821785 159.029081246 0.347816821785 150.818453634 -18.1260953048 c 2
 91.8078684112 -146.5 l 1
 38.0758758433 -146.5 l 1
 77.3038746289 -8.16968849287 l 1
 58.5 6.05381207209 58.5 6.05381207209 58.5 31 c 0
 58.5 52.104521875 58.5 52.104521875 73.6977390625 67.3022609375 c 0
 88.895478125 82.5 88.895478125 82.5 112.5 82.5 c 0
 136.104521875 82.5 136.104521875 82.5 150.802260937 67.8022609375 c 0
 165.5 53.104521875 165.5 53.104521875 165.5 31 c 0
EndSplineSet
EndChar

